# Blender 5.0.1
# www.blender.org
mtllib epikModel.mtl.mtl
o Sphere
v 0.000000 2.210441 0.000000
v 0.000000 1.837914 -1.228055
v 0.000000 1.228055 -1.837914
v 0.000000 0.431236 -2.167968
v 0.000000 0.000000 -2.210441
v 0.000000 -0.431236 -2.167968
v 0.000000 -1.228055 -1.837914
v 0.000000 -2.210441 0.000000
v 0.084130 2.167968 -0.422950
v 0.165027 2.042181 -0.829645
v 0.239582 1.837914 -1.204458
v 0.304930 1.563018 -1.532985
v 0.358559 1.228055 -1.802599
v 0.398410 0.845899 -2.002941
v 0.422950 0.431236 -2.126311
v 0.431236 0.000000 -2.167968
v 0.422950 -0.431236 -2.126311
v 0.398410 -0.845899 -2.002941
v 0.358559 -1.228055 -1.802599
v 0.304930 -1.563018 -1.532985
v 0.239582 -1.837914 -1.204458
v 0.165027 -2.042181 -0.829645
v 0.084130 -2.167968 -0.422950
v 0.165027 2.167968 -0.398410
v 0.323712 2.042181 -0.781509
v 0.469956 1.837914 -1.134575
v 0.598141 1.563018 -1.444040
v 0.703339 1.228055 -1.698011
v 0.781509 0.845899 -1.886729
v 0.829645 0.431236 -2.002941
v 0.845899 0.000000 -2.042181
v 0.829645 -0.431236 -2.002941
v 0.781509 -0.845899 -1.886729
v 0.703339 -1.228055 -1.698011
v 0.598141 -1.563018 -1.444040
v 0.469956 -1.837914 -1.134575
v 0.323712 -2.042181 -0.781509
v 0.165027 -2.167968 -0.398410
v 0.239582 2.167968 -0.358559
v 0.469956 2.042181 -0.703339
v 0.682271 1.837914 -1.021090
v 0.868366 1.563018 -1.299602
v 1.021090 1.228055 -1.528170
v 1.134575 0.845899 -1.698011
v 1.204458 0.431236 -1.802599
v 1.228055 0.000000 -1.837914
v 1.204458 -0.431236 -1.802599
v 1.134575 -0.845899 -1.698011
v 1.021090 -1.228055 -1.528170
v 0.868366 -1.563018 -1.299602
v 0.682271 -1.837914 -1.021090
v 0.469956 -2.042181 -0.703339
v 0.239582 -2.167968 -0.358559
v 0.304930 2.167968 -0.304930
v 0.598141 2.042181 -0.598141
v 0.868366 1.837914 -0.868366
v 1.105220 1.563018 -1.105220
v 1.299602 1.228055 -1.299601
v 1.444040 0.845899 -1.444040
v 1.532985 0.431236 -1.532985
v 1.563018 0.000000 -1.563017
v 1.532985 -0.431236 -1.532985
v 1.444040 -0.845899 -1.444040
v 1.299602 -1.228055 -1.299601
v 1.105220 -1.563018 -1.105220
v 0.868366 -1.837914 -0.868366
v 0.598141 -2.042181 -0.598141
v 0.304930 -2.167968 -0.304930
v 0.358559 2.167968 -0.239582
v 0.703339 2.042181 -0.469956
v 1.021090 1.837914 -0.682271
v 1.299602 1.563018 -0.868366
v 1.528170 1.228055 -1.021090
v 1.698011 0.845899 -1.134575
v 1.802599 0.431236 -1.204458
v 1.837914 0.000000 -1.228055
v 1.802599 -0.431236 -1.204458
v 1.698011 -0.845899 -1.134575
v 1.528170 -1.228055 -1.021090
v 1.299602 -1.563018 -0.868366
v 1.021090 -1.837914 -0.682271
v 0.703339 -2.042181 -0.469956
v 0.358559 -2.167968 -0.239582
v 0.398410 2.167968 -0.165027
v 0.781509 2.042181 -0.323712
v 1.134575 1.837914 -0.469956
v 1.444040 1.563018 -0.598141
v 1.698011 1.228055 -0.703339
v 1.886729 0.845899 -0.781509
v 2.002941 0.431236 -0.829645
v 2.042181 0.000000 -0.845899
v 2.002941 -0.431236 -0.829645
v 1.886729 -0.845899 -0.781509
v 1.698011 -1.228055 -0.703339
v 1.444040 -1.563018 -0.598141
v 1.134575 -1.837914 -0.469956
v 0.781509 -2.042181 -0.323712
v 0.398410 -2.167968 -0.165027
v 0.422949 2.167968 -0.084130
v 0.829645 2.042181 -0.165027
v 1.204458 1.837914 -0.239582
v 1.532985 1.563018 -0.304930
v 1.802599 1.228055 -0.358559
v 2.002941 0.845899 -0.398410
v 2.126311 0.431236 -0.422949
v 2.167967 0.000000 -0.431235
v 2.126311 -0.431236 -0.422949
v 2.002941 -0.845899 -0.398410
v 1.802599 -1.228055 -0.358559
v 1.532985 -1.563018 -0.304930
v 1.204458 -1.837914 -0.239582
v 0.829645 -2.042181 -0.165027
v 0.422949 -2.167968 -0.084130
v 0.431235 2.167968 0.000000
v 0.845899 2.042181 0.000000
v 1.228055 1.837914 0.000000
v 1.563018 1.563018 -0.000000
v 1.837914 1.228055 0.000000
v 2.042181 0.845899 -0.000000
v 2.167968 0.431236 0.000000
v 2.210440 0.000000 0.000000
v 2.167968 -0.431236 0.000000
v 2.042181 -0.845899 -0.000000
v 1.837914 -1.228055 0.000000
v 1.563018 -1.563018 -0.000000
v 1.228055 -1.837914 0.000000
v 0.845899 -2.042181 0.000000
v 0.431235 -2.167968 0.000000
v 0.422949 2.167968 0.084130
v 0.829645 2.042181 0.165027
v 1.204458 1.837914 0.239582
v 1.532985 1.563018 0.304930
v 1.802599 1.228055 0.358559
v 2.002941 0.845899 0.398410
v 2.126311 0.431236 0.422950
v 2.167967 0.000000 0.431236
v 2.126311 -0.431236 0.422950
v 2.002941 -0.845899 0.398410
v 1.802599 -1.228055 0.358559
v 1.532985 -1.563018 0.304930
v 1.204458 -1.837914 0.239582
v 0.829645 -2.042181 0.165027
v 0.422949 -2.167968 0.084130
v 0.398410 2.167968 0.165027
v 0.781509 2.042181 0.323712
v 1.134575 1.837914 0.469956
v 1.444040 1.563018 0.598141
v 1.698011 1.228055 0.703339
v 1.886729 0.845899 0.781509
v 2.002941 0.431236 0.829645
v 2.042180 0.000000 0.845899
v 2.002941 -0.431236 0.829645
v 1.886729 -0.845899 0.781509
v 1.698011 -1.228055 0.703339
v 1.444040 -1.563018 0.598141
v 1.134575 -1.837914 0.469956
v 0.781509 -2.042181 0.323712
v 0.398410 -2.167968 0.165027
v 0.358559 2.167968 0.239582
v 0.703339 2.042181 0.469956
v 1.021090 1.837914 0.682271
v 1.299602 1.563018 0.868366
v 1.528169 1.228055 1.021090
v 1.698011 0.845899 1.134575
v 1.802599 0.431236 1.204458
v 1.837913 0.000000 1.228055
v 1.802599 -0.431236 1.204458
v 1.698011 -0.845899 1.134575
v 1.528169 -1.228055 1.021090
v 1.299602 -1.563018 0.868366
v 1.021090 -1.837914 0.682271
v 0.703339 -2.042181 0.469956
v 0.358559 -2.167968 0.239582
v 0.304929 2.167968 0.304929
v 0.598141 2.042181 0.598141
v 0.868366 1.837914 0.868366
v 1.105220 1.563018 1.105220
v 1.299601 1.228055 1.299601
v 1.444040 0.845899 1.444040
v 1.532984 0.431236 1.532985
v 1.563017 0.000000 1.563017
v 1.532984 -0.431236 1.532985
v 1.444040 -0.845899 1.444040
v 1.299601 -1.228055 1.299601
v 1.105220 -1.563018 1.105220
v 0.868366 -1.837914 0.868366
v 0.598141 -2.042181 0.598141
v 0.304929 -2.167968 0.304929
v 0.239582 2.167968 0.358559
v 0.469956 2.042181 0.703339
v 0.682270 1.837914 1.021090
v 0.868366 1.563018 1.299602
v 1.021090 1.228055 1.528170
v 1.134575 0.845899 1.698011
v 1.204458 0.431236 1.802599
v 1.228054 0.000000 1.837914
v 1.204458 -0.431236 1.802599
v 1.134575 -0.845899 1.698011
v 1.021090 -1.228055 1.528170
v 0.868366 -1.563018 1.299602
v 0.682270 -1.837914 1.021090
v 0.469956 -2.042181 0.703339
v 0.239582 -2.167968 0.358559
v 0.165027 2.167968 0.398410
v 0.323711 2.042181 0.781509
v 0.469956 1.837914 1.134575
v 0.598141 1.563018 1.444040
v 0.703339 1.228055 1.698011
v 0.781509 0.845899 1.886729
v 0.829645 0.431236 2.002941
v 0.845898 0.000000 2.042180
v 0.829645 -0.431236 2.002941
v 0.781509 -0.845899 1.886729
v 0.703339 -1.228055 1.698011
v 0.598141 -1.563018 1.444040
v 0.469956 -1.837914 1.134575
v 0.323711 -2.042181 0.781509
v 0.165027 -2.167968 0.398410
v 0.084130 2.167968 0.422949
v 0.165027 2.042181 0.829645
v 0.239581 1.837914 1.204458
v 0.304930 1.563018 1.532985
v 0.358559 1.228055 1.802599
v 0.398410 0.845899 2.002941
v 0.422949 0.431236 2.126310
v 0.431235 0.000000 2.167967
v 0.422949 -0.431236 2.126310
v 0.398410 -0.845899 2.002941
v 0.358559 -1.228055 1.802599
v 0.304930 -1.563018 1.532985
v 0.239581 -1.837914 1.204458
v 0.165027 -2.042181 0.829645
v 0.084130 -2.167968 0.422949
v -0.000000 2.167968 0.431235
v -0.000000 2.042181 0.845899
v -0.000000 1.837914 1.228055
v -0.000000 1.563018 1.563017
v -0.000000 1.228055 1.837914
v 0.000000 0.845899 2.042181
v -0.000000 0.431236 2.167967
v -0.000001 0.000000 2.210439
v -0.000000 -0.431236 2.167967
v 0.000000 -0.845899 2.042181
v -0.000000 -1.228055 1.837914
v -0.000000 -1.563018 1.563017
v -0.000000 -1.837914 1.228055
v -0.000000 -2.042181 0.845899
v -0.000000 -2.167968 0.431235
v -0.084130 2.167968 0.422949
v -0.165027 2.042181 0.829645
v -0.239582 1.837914 1.204458
v -0.304930 1.563018 1.532984
v -0.358559 1.228055 1.802599
v -0.398410 0.845899 2.002940
v -0.422950 0.431236 2.126310
v -0.431236 0.000000 2.167966
v -0.422950 -0.431236 2.126310
v -0.398410 -0.845899 2.002940
v -0.358559 -1.228055 1.802599
v -0.304930 -1.563018 1.532984
v -0.239582 -1.837914 1.204458
v -0.165027 -2.042181 0.829645
v -0.084130 -2.167968 0.422949
v -0.165027 2.167968 0.398409
v -0.323712 2.042181 0.781509
v -0.469956 1.837914 1.134574
v -0.598141 1.563018 1.444040
v -0.703339 1.228055 1.698011
v -0.781509 0.845899 1.886729
v -0.829645 0.431236 2.002940
v -0.845899 0.000000 2.042179
v -0.829645 -0.431236 2.002940
v -0.781509 -0.845899 1.886729
v -0.703339 -1.228055 1.698011
v -0.598141 -1.563018 1.444040
v -0.469956 -1.837914 1.134574
v -0.323712 -2.042181 0.781509
v -0.165027 -2.167968 0.398409
v -0.239582 2.167968 0.358559
v -0.469956 2.042181 0.703339
v -0.682271 1.837914 1.021090
v -0.868366 1.563018 1.299601
v -1.021090 1.228055 1.528169
v -1.134575 0.845899 1.698011
v -1.204458 0.431236 1.802598
v -1.228055 0.000000 1.837913
v -1.204458 -0.431236 1.802598
v -1.134575 -0.845899 1.698011
v -1.021090 -1.228055 1.528169
v -0.868366 -1.563018 1.299601
v -0.682271 -1.837914 1.021090
v -0.469956 -2.042181 0.703339
v -0.239582 -2.167968 0.358559
v -0.304929 2.167968 0.304929
v -0.598141 2.042181 0.598141
v -0.868366 1.837914 0.868365
v -1.105220 1.563018 1.105220
v -1.299601 1.228055 1.299601
v -1.444039 0.845899 1.444040
v -1.532984 0.431236 1.532984
v -1.563017 0.000000 1.563016
v -1.532984 -0.431236 1.532984
v -1.444039 -0.845899 1.444040
v -1.299601 -1.228055 1.299601
v -1.105220 -1.563018 1.105220
v -0.868366 -1.837914 0.868365
v -0.598141 -2.042181 0.598141
v -0.304929 -2.167968 0.304929
v -0.358559 2.167968 0.239581
v -0.703339 2.042181 0.469956
v -1.021090 1.837914 0.682270
v -1.299601 1.563018 0.868366
v -1.528169 1.228055 1.021090
v -1.698011 0.845899 1.134575
v -1.802599 0.431236 1.204458
v -1.837913 0.000000 1.228053
v -1.802599 -0.431236 1.204458
v -1.698011 -0.845899 1.134575
v -1.528169 -1.228055 1.021090
v -1.299601 -1.563018 0.868366
v -1.021090 -1.837914 0.682270
v -0.703339 -2.042181 0.469956
v -0.358559 -2.167968 0.239581
v -0.398409 2.167968 0.165027
v -0.781509 2.042181 0.323711
v -1.134574 1.837914 0.469956
v -1.444040 1.563018 0.598141
v -1.698011 1.228055 0.703339
v -1.886729 0.845899 0.781509
v -2.002940 0.431236 0.829645
v -2.042180 0.000000 0.845897
v -2.002940 -0.431236 0.829645
v -1.886729 -0.845899 0.781509
v -1.698011 -1.228055 0.703339
v -1.444040 -1.563018 0.598141
v -1.134574 -1.837914 0.469956
v -0.781509 -2.042181 0.323711
v -0.398409 -2.167968 0.165027
v -0.422949 2.167968 0.084130
v -0.829645 2.042181 0.165027
v -1.204458 1.837914 0.239581
v -1.532984 1.563018 0.304929
v -1.802598 1.228055 0.358559
v -2.002940 0.845899 0.398410
v -2.126310 0.431236 0.422949
v -2.167966 0.000000 0.431234
v -2.126310 -0.431236 0.422949
v -2.002940 -0.845899 0.398410
v -1.802598 -1.228055 0.358559
v -1.532984 -1.563018 0.304929
v -1.204458 -1.837914 0.239581
v -0.829645 -2.042181 0.165027
v -0.422949 -2.167968 0.084130
v -0.431235 2.167968 -0.000000
v -0.845899 2.042181 -0.000000
v -1.228054 1.837914 -0.000000
v -1.563017 1.563018 -0.000000
v -1.837914 1.228055 -0.000000
v -2.042180 0.845899 -0.000000
v -2.167967 0.431236 -0.000001
v -2.210439 0.000000 -0.000001
v -2.167967 -0.431236 -0.000001
v -2.042180 -0.845899 -0.000000
v -1.837914 -1.228055 -0.000000
v -1.563017 -1.563018 -0.000000
v -1.228054 -1.837914 -0.000000
v -0.845899 -2.042181 -0.000000
v -0.431235 -2.167968 -0.000000
v -0.422949 2.167968 -0.084130
v -0.829645 2.042181 -0.165027
v -1.204457 1.837914 -0.239582
v -1.532984 1.563018 -0.304930
v -1.802598 1.228055 -0.358560
v -2.002940 0.845899 -0.398410
v -2.126310 0.431236 -0.422950
v -2.167966 0.000000 -0.431236
v -2.126310 -0.431236 -0.422950
v -2.002940 -0.845899 -0.398410
v -1.802598 -1.228055 -0.358560
v -1.532984 -1.563018 -0.304930
v -1.204457 -1.837914 -0.239582
v -0.829645 -2.042181 -0.165027
v -0.422949 -2.167968 -0.084130
v -0.398409 2.167968 -0.165027
v -0.781508 2.042181 -0.323712
v -1.134574 1.837914 -0.469956
v -1.444040 1.563018 -0.598141
v -1.698010 1.228055 -0.703339
v -1.886728 0.845899 -0.781509
v -2.002940 0.431236 -0.829646
v -2.042179 0.000000 -0.845899
v -2.002940 -0.431236 -0.829646
v -1.886728 -0.845899 -0.781509
v -1.698010 -1.228055 -0.703339
v -1.444040 -1.563018 -0.598141
v -1.134574 -1.837914 -0.469956
v -0.781508 -2.042181 -0.323712
v -0.398409 -2.167968 -0.165027
v -0.358559 2.167968 -0.239581
v -0.703339 2.042181 -0.469956
v -1.021089 1.837914 -0.682271
v -1.299601 1.563018 -0.868366
v -1.528169 1.228055 -1.021090
v -1.698011 0.845899 -1.134575
v -1.802598 0.431236 -1.204458
v -1.837912 0.000000 -1.228055
v -1.802598 -0.431236 -1.204458
v -1.698011 -0.845899 -1.134575
v -1.528169 -1.228055 -1.021090
v -1.299601 -1.563018 -0.868366
v -1.021089 -1.837914 -0.682271
v -0.703339 -2.042181 -0.469956
v -0.358559 -2.167968 -0.239581
v -0.304929 2.167968 -0.304929
v -0.598141 2.042181 -0.598141
v -0.868365 1.837914 -0.868366
v -1.105220 1.563018 -1.105220
v -1.299600 1.228055 -1.299601
v -1.444039 0.845899 -1.444039
v -1.532984 0.431236 -1.532984
v -1.563015 0.000000 -1.563017
v -1.532984 -0.431236 -1.532984
v -1.444039 -0.845899 -1.444039
v -1.299600 -1.228055 -1.299601
v -1.105220 -1.563018 -1.105220
v -0.868365 -1.837914 -0.868366
v -0.598141 -2.042181 -0.598141
v -0.304929 -2.167968 -0.304929
v -0.239581 2.167968 -0.358559
v -0.469956 2.042181 -0.703339
v -0.682270 1.837914 -1.021090
v -0.868366 1.563018 -1.299601
v -1.021089 1.228055 -1.528169
v -1.134574 0.845899 -1.698011
v -1.204457 0.431236 -1.802599
v -1.228053 0.000000 -1.837913
v -1.204457 -0.431236 -1.802599
v -1.134574 -0.845899 -1.698011
v -1.021089 -1.228055 -1.528169
v -0.868366 -1.563018 -1.299601
v -0.682270 -1.837914 -1.021090
v -0.469956 -2.042181 -0.703339
v -0.239581 -2.167968 -0.358559
v -0.165027 2.167968 -0.398409
v -0.323711 2.042181 -0.781509
v -0.469955 1.837914 -1.134574
v -0.598141 1.563018 -1.444040
v -0.703338 1.228055 -1.698010
v -0.781508 0.845899 -1.886728
v -0.829644 0.431236 -2.002940
v -0.845897 0.000000 -2.042179
v -0.829644 -0.431236 -2.002940
v -0.781508 -0.845899 -1.886728
v -0.703338 -1.228055 -1.698010
v -0.598141 -1.563018 -1.444040
v -0.469955 -1.837914 -1.134574
v -0.323711 -2.042181 -0.781509
v -0.165027 -2.167968 -0.398409
v -0.084130 2.167968 -0.422949
v -0.165027 2.042181 -0.829645
v -0.239581 1.837914 -1.204457
v -0.304929 1.563018 -1.532984
v -0.358559 1.228055 -1.802598
v -0.398409 0.845899 -2.002940
v -0.422949 0.431236 -2.126310
v -0.431234 0.000000 -2.167965
v -0.422949 -0.431236 -2.126310
v -0.398409 -0.845899 -2.002940
v -0.358559 -1.228055 -1.802598
v -0.304929 -1.563018 -1.532984
v -0.239581 -1.837914 -1.204457
v -0.165027 -2.042181 -0.829645
v -0.084130 -2.167968 -0.422949
v 0.000000 2.167968 -0.431235
v 0.000000 2.042181 -0.845899
v 0.000000 1.563018 -1.563017
v 0.000000 0.845899 -2.042180
v 0.000000 -0.845899 -2.042180
v 0.000000 -1.563018 -1.563017
v 0.000000 -1.837914 -1.228054
v 0.000000 -2.042181 -0.845899
v 0.000000 -2.167968 -0.431235
vn 0.0975 0.0975 -0.9904
vn 0.0097 0.9951 -0.0980
vn 0.0097 -0.9951 -0.0980
vn 0.0975 -0.0975 -0.9904
vn 0.0286 0.9565 -0.2902
vn 0.0938 -0.2890 -0.9527
vn 0.0464 0.8810 -0.4709
vn 0.0865 -0.4696 -0.8786
vn 0.0624 0.7715 -0.6332
vn 0.0759 -0.6326 -0.7708
vn 0.0759 0.6326 -0.7708
vn 0.0624 -0.7715 -0.6332
vn 0.0865 0.4696 -0.8786
vn 0.0464 -0.8810 -0.4709
vn 0.0938 0.2890 -0.9527
vn 0.0286 -0.9565 -0.2902
vn 0.1374 -0.8810 -0.4528
vn 0.2779 0.2890 -0.9161
vn 0.0846 -0.9565 -0.2790
vn 0.2889 0.0976 -0.9524
vn 0.0286 0.9951 -0.0942
vn 0.0286 -0.9951 -0.0942
vn 0.2889 -0.0976 -0.9524
vn 0.0846 0.9565 -0.2790
vn 0.2779 -0.2890 -0.9161
vn 0.1374 0.8810 -0.4528
vn 0.2563 -0.4696 -0.8448
vn 0.1847 0.7715 -0.6088
vn 0.2248 -0.6326 -0.7412
vn 0.2248 0.6326 -0.7412
vn 0.1847 -0.7715 -0.6088
vn 0.2563 0.4696 -0.8448
vn 0.4162 -0.4696 -0.7786
vn 0.2999 0.7715 -0.5611
vn 0.3651 -0.6326 -0.6831
vn 0.3651 0.6326 -0.6831
vn 0.2999 -0.7715 -0.5611
vn 0.4162 0.4696 -0.7786
vn 0.2230 -0.8810 -0.4173
vn 0.4513 0.2890 -0.8443
vn 0.1374 -0.9565 -0.2571
vn 0.4691 0.0975 -0.8777
vn 0.0464 0.9951 -0.0869
vn 0.0464 -0.9951 -0.0869
vn 0.4691 -0.0975 -0.8777
vn 0.1374 0.9565 -0.2571
vn 0.4513 -0.2890 -0.8443
vn 0.2230 0.8810 -0.4173
vn 0.1850 -0.9565 -0.2254
vn 0.6314 0.0975 -0.7693
vn 0.0625 0.9951 -0.0761
vn 0.0625 -0.9951 -0.0761
vn 0.6314 -0.0975 -0.7693
vn 0.1850 0.9565 -0.2254
vn 0.6073 -0.2890 -0.7400
vn 0.3002 0.8810 -0.3658
vn 0.5601 -0.4696 -0.6825
vn 0.4036 0.7715 -0.4918
vn 0.4913 -0.6326 -0.5987
vn 0.4913 0.6326 -0.5987
vn 0.4036 -0.7715 -0.4918
vn 0.5601 0.4696 -0.6825
vn 0.3002 -0.8810 -0.3658
vn 0.6073 0.2890 -0.7400
vn 0.4918 0.7715 -0.4036
vn 0.5987 -0.6326 -0.4913
vn 0.5987 0.6326 -0.4913
vn 0.4918 -0.7715 -0.4036
vn 0.6825 0.4696 -0.5601
vn 0.3658 -0.8810 -0.3002
vn 0.7400 0.2890 -0.6073
vn 0.2254 -0.9565 -0.1850
vn 0.7693 0.0975 -0.6314
vn 0.0761 0.9951 -0.0625
vn 0.0761 -0.9951 -0.0625
vn 0.7693 -0.0975 -0.6314
vn 0.2254 0.9565 -0.1850
vn 0.7400 -0.2890 -0.6073
vn 0.3658 0.8810 -0.3002
vn 0.6825 -0.4696 -0.5601
vn 0.8777 0.0975 -0.4691
vn 0.0869 0.9951 -0.0464
vn 0.0869 -0.9951 -0.0464
vn 0.8777 -0.0975 -0.4691
vn 0.2571 0.9565 -0.1374
vn 0.8443 -0.2890 -0.4513
vn 0.4173 0.8810 -0.2230
vn 0.7786 -0.4696 -0.4162
vn 0.5611 0.7715 -0.2999
vn 0.6831 -0.6326 -0.3651
vn 0.6831 0.6326 -0.3651
vn 0.5611 -0.7715 -0.2999
vn 0.7786 0.4696 -0.4162
vn 0.4173 -0.8810 -0.2230
vn 0.8443 0.2890 -0.4513
vn 0.2571 -0.9565 -0.1374
vn 0.7412 -0.6326 -0.2248
vn 0.7412 0.6326 -0.2248
vn 0.6088 -0.7715 -0.1847
vn 0.8448 0.4696 -0.2563
vn 0.4528 -0.8810 -0.1374
vn 0.9161 0.2890 -0.2779
vn 0.2790 -0.9565 -0.0846
vn 0.9524 0.0975 -0.2889
vn 0.0942 0.9951 -0.0286
vn 0.0942 -0.9951 -0.0286
vn 0.9524 -0.0975 -0.2889
vn 0.2790 0.9565 -0.0846
vn 0.9161 -0.2890 -0.2779
vn 0.4528 0.8810 -0.1374
vn 0.8448 -0.4696 -0.2563
vn 0.6088 0.7715 -0.1847
vn 0.0980 0.9951 -0.0097
vn 0.0980 -0.9951 -0.0097
vn 0.9904 -0.0975 -0.0975
vn 0.2902 0.9565 -0.0286
vn 0.9527 -0.2890 -0.0938
vn 0.4709 0.8810 -0.0464
vn 0.8786 -0.4696 -0.0865
vn 0.6332 0.7715 -0.0624
vn 0.7708 -0.6326 -0.0759
vn 0.7708 0.6326 -0.0759
vn 0.6332 -0.7715 -0.0624
vn 0.8786 0.4696 -0.0865
vn 0.4709 -0.8810 -0.0464
vn 0.9527 0.2890 -0.0938
vn 0.2902 -0.9565 -0.0286
vn 0.9904 0.0975 -0.0975
vn 0.7708 0.6326 0.0759
vn 0.6332 -0.7715 0.0624
vn 0.8786 0.4696 0.0865
vn 0.4709 -0.8810 0.0464
vn 0.9527 0.2890 0.0938
vn 0.2902 -0.9565 0.0286
vn 0.9904 0.0975 0.0976
vn 0.0980 0.9951 0.0097
vn 0.0980 -0.9951 0.0097
vn 0.9904 -0.0975 0.0976
vn 0.2902 0.9565 0.0286
vn 0.9527 -0.2890 0.0938
vn 0.4709 0.8810 0.0464
vn 0.8786 -0.4696 0.0865
vn 0.6332 0.7715 0.0624
vn 0.7708 -0.6326 0.0759
vn 0.9524 -0.0975 0.2889
vn 0.2790 0.9565 0.0846
vn 0.9161 -0.2890 0.2779
vn 0.4528 0.8810 0.1374
vn 0.8448 -0.4696 0.2563
vn 0.6088 0.7715 0.1847
vn 0.7412 -0.6326 0.2248
vn 0.7412 0.6326 0.2248
vn 0.6088 -0.7715 0.1847
vn 0.8448 0.4696 0.2563
vn 0.4528 -0.8810 0.1374
vn 0.9161 0.2890 0.2779
vn 0.2790 -0.9565 0.0846
vn 0.9524 0.0975 0.2889
vn 0.0942 0.9951 0.0286
vn 0.0942 -0.9951 0.0286
vn 0.5611 -0.7715 0.2999
vn 0.7786 0.4696 0.4162
vn 0.4173 -0.8810 0.2230
vn 0.8443 0.2890 0.4513
vn 0.2571 -0.9565 0.1374
vn 0.8777 0.0975 0.4691
vn 0.0869 0.9951 0.0464
vn 0.0869 -0.9951 0.0464
vn 0.8777 -0.0975 0.4691
vn 0.2571 0.9565 0.1374
vn 0.8443 -0.2890 0.4513
vn 0.4173 0.8810 0.2230
vn 0.7786 -0.4696 0.4162
vn 0.5611 0.7715 0.2999
vn 0.6831 -0.6326 0.3651
vn 0.6831 0.6326 0.3651
vn 0.7400 -0.2890 0.6073
vn 0.3658 0.8810 0.3002
vn 0.6825 -0.4696 0.5601
vn 0.4918 0.7715 0.4036
vn 0.5987 -0.6326 0.4913
vn 0.5987 0.6326 0.4913
vn 0.4918 -0.7715 0.4036
vn 0.6825 0.4696 0.5601
vn 0.3658 -0.8810 0.3002
vn 0.7400 0.2890 0.6073
vn 0.2254 -0.9565 0.1850
vn 0.7693 0.0975 0.6314
vn 0.0761 0.9951 0.0625
vn 0.0761 -0.9951 0.0625
vn 0.7693 -0.0975 0.6314
vn 0.2254 0.9565 0.1850
vn 0.3002 -0.8810 0.3658
vn 0.6073 0.2890 0.7400
vn 0.1850 -0.9565 0.2254
vn 0.6314 0.0975 0.7693
vn 0.0625 0.9951 0.0761
vn 0.0625 -0.9951 0.0761
vn 0.6314 -0.0975 0.7693
vn 0.1850 0.9565 0.2254
vn 0.6073 -0.2890 0.7400
vn 0.3002 0.8810 0.3658
vn 0.5601 -0.4696 0.6825
vn 0.4036 0.7715 0.4918
vn 0.4913 -0.6326 0.5987
vn 0.4913 0.6326 0.5987
vn 0.4036 -0.7715 0.4918
vn 0.5601 0.4696 0.6825
vn 0.2230 0.8810 0.4173
vn 0.4162 -0.4696 0.7786
vn 0.2999 0.7715 0.5611
vn 0.3651 -0.6326 0.6831
vn 0.3651 0.6326 0.6831
vn 0.2999 -0.7715 0.5611
vn 0.4162 0.4696 0.7786
vn 0.2230 -0.8810 0.4173
vn 0.4513 0.2890 0.8443
vn 0.1374 -0.9565 0.2571
vn 0.4691 0.0975 0.8777
vn 0.0464 0.9951 0.0869
vn 0.0464 -0.9951 0.0869
vn 0.4691 -0.0975 0.8777
vn 0.1374 0.9565 0.2571
vn 0.4513 -0.2890 0.8443
vn 0.2779 0.2890 0.9161
vn 0.0846 -0.9565 0.2790
vn 0.2889 0.0975 0.9524
vn 0.0286 0.9951 0.0942
vn 0.0286 -0.9951 0.0942
vn 0.2889 -0.0975 0.9524
vn 0.0846 0.9565 0.2790
vn 0.2779 -0.2890 0.9161
vn 0.1374 0.8810 0.4528
vn 0.2563 -0.4696 0.8448
vn 0.1847 0.7715 0.6088
vn 0.2248 -0.6326 0.7412
vn 0.2248 0.6326 0.7412
vn 0.1847 -0.7715 0.6088
vn 0.2563 0.4696 0.8448
vn 0.1374 -0.8810 0.4528
vn 0.0865 -0.4696 0.8786
vn 0.0624 0.7715 0.6332
vn 0.0759 -0.6326 0.7708
vn 0.0759 0.6326 0.7708
vn 0.0624 -0.7715 0.6332
vn 0.0865 0.4696 0.8786
vn 0.0464 -0.8810 0.4709
vn 0.0938 0.2890 0.9527
vn 0.0286 -0.9565 0.2902
vn 0.0975 0.0975 0.9904
vn 0.0097 0.9951 0.0980
vn 0.0097 -0.9951 0.0980
vn 0.0975 -0.0975 0.9904
vn 0.0286 0.9565 0.2902
vn 0.0938 -0.2890 0.9527
vn 0.0464 0.8810 0.4709
vn -0.0286 -0.9565 0.2902
vn -0.0976 0.0975 0.9904
vn -0.0097 0.9951 0.0980
vn -0.0097 -0.9951 0.0980
vn -0.0976 -0.0975 0.9904
vn -0.0286 0.9565 0.2902
vn -0.0938 -0.2890 0.9527
vn -0.0464 0.8810 0.4709
vn -0.0865 -0.4696 0.8786
vn -0.0624 0.7715 0.6332
vn -0.0759 -0.6326 0.7708
vn -0.0759 0.6326 0.7708
vn -0.0624 -0.7715 0.6332
vn -0.0865 0.4696 0.8786
vn -0.0464 -0.8810 0.4709
vn -0.0938 0.2890 0.9527
vn -0.1847 0.7715 0.6088
vn -0.2248 -0.6326 0.7412
vn -0.2248 0.6326 0.7412
vn -0.1847 -0.7715 0.6088
vn -0.2563 0.4696 0.8448
vn -0.1374 -0.8810 0.4528
vn -0.2779 0.2890 0.9161
vn -0.0846 -0.9565 0.2790
vn -0.2889 0.0975 0.9524
vn -0.0286 0.9951 0.0942
vn -0.0286 -0.9951 0.0942
vn -0.2889 -0.0975 0.9524
vn -0.0846 0.9565 0.2790
vn -0.2779 -0.2890 0.9161
vn -0.1374 0.8810 0.4528
vn -0.2563 -0.4696 0.8448
vn -0.4691 0.0975 0.8777
vn -0.0464 0.9951 0.0869
vn -0.0464 -0.9951 0.0869
vn -0.4691 -0.0975 0.8777
vn -0.1374 0.9565 0.2571
vn -0.4513 -0.2890 0.8443
vn -0.2230 0.8810 0.4173
vn -0.4162 -0.4696 0.7786
vn -0.2999 0.7715 0.5611
vn -0.3651 -0.6326 0.6831
vn -0.3651 0.6326 0.6831
vn -0.2999 -0.7715 0.5611
vn -0.4162 0.4696 0.7786
vn -0.2230 -0.8810 0.4173
vn -0.4513 0.2890 0.8443
vn -0.1374 -0.9565 0.2571
vn -0.4913 -0.6326 0.5987
vn -0.4913 0.6326 0.5987
vn -0.4036 -0.7715 0.4918
vn -0.5601 0.4696 0.6825
vn -0.3002 -0.8810 0.3658
vn -0.6073 0.2890 0.7400
vn -0.1850 -0.9565 0.2254
vn -0.6314 0.0975 0.7693
vn -0.0625 0.9951 0.0761
vn -0.0625 -0.9951 0.0761
vn -0.6314 -0.0975 0.7693
vn -0.1850 0.9565 0.2254
vn -0.6073 -0.2890 0.7400
vn -0.3002 0.8810 0.3658
vn -0.5601 -0.4696 0.6825
vn -0.4036 0.7715 0.4918
vn -0.0761 -0.9951 0.0625
vn -0.7693 -0.0975 0.6314
vn -0.2254 0.9565 0.1850
vn -0.7400 -0.2890 0.6073
vn -0.3658 0.8810 0.3002
vn -0.6825 -0.4696 0.5601
vn -0.4918 0.7715 0.4036
vn -0.5987 -0.6326 0.4913
vn -0.5987 0.6326 0.4913
vn -0.4918 -0.7715 0.4036
vn -0.6825 0.4696 0.5601
vn -0.3658 -0.8810 0.3002
vn -0.7400 0.2890 0.6073
vn -0.2254 -0.9565 0.1850
vn -0.7693 0.0975 0.6314
vn -0.0761 0.9951 0.0625
vn -0.5611 -0.7715 0.2999
vn -0.7786 0.4696 0.4162
vn -0.4173 -0.8810 0.2230
vn -0.8443 0.2890 0.4513
vn -0.2571 -0.9565 0.1374
vn -0.8777 0.0975 0.4691
vn -0.0869 0.9951 0.0464
vn -0.0869 -0.9951 0.0464
vn -0.8777 -0.0975 0.4691
vn -0.2571 0.9565 0.1374
vn -0.8443 -0.2890 0.4513
vn -0.4173 0.8810 0.2230
vn -0.7786 -0.4696 0.4162
vn -0.5611 0.7715 0.2999
vn -0.6831 -0.6326 0.3651
vn -0.6831 0.6326 0.3651
vn -0.2790 0.9565 0.0846
vn -0.9161 -0.2890 0.2779
vn -0.4528 0.8810 0.1374
vn -0.8448 -0.4696 0.2563
vn -0.6088 0.7715 0.1847
vn -0.7412 -0.6326 0.2248
vn -0.7412 0.6326 0.2248
vn -0.6088 -0.7715 0.1847
vn -0.8448 0.4696 0.2563
vn -0.4528 -0.8810 0.1374
vn -0.9161 0.2890 0.2779
vn -0.2790 -0.9565 0.0846
vn -0.9524 0.0975 0.2889
vn -0.0942 0.9951 0.0286
vn -0.0942 -0.9951 0.0286
vn -0.9524 -0.0975 0.2889
vn -0.8786 0.4696 0.0865
vn -0.4709 -0.8810 0.0464
vn -0.9527 0.2890 0.0938
vn -0.2902 -0.9565 0.0286
vn -0.9904 0.0975 0.0975
vn -0.0980 0.9951 0.0097
vn -0.0980 -0.9951 0.0097
vn -0.9904 -0.0975 0.0975
vn -0.2902 0.9565 0.0286
vn -0.9527 -0.2890 0.0938
vn -0.4709 0.8810 0.0464
vn -0.8786 -0.4696 0.0865
vn -0.6332 0.7715 0.0624
vn -0.7708 -0.6326 0.0759
vn -0.7708 0.6326 0.0759
vn -0.6332 -0.7715 0.0624
vn -0.9527 -0.2890 -0.0938
vn -0.4709 0.8810 -0.0464
vn -0.8786 -0.4696 -0.0865
vn -0.6332 0.7715 -0.0624
vn -0.7708 -0.6326 -0.0759
vn -0.7708 0.6326 -0.0759
vn -0.6332 -0.7715 -0.0624
vn -0.8786 0.4696 -0.0865
vn -0.4709 -0.8810 -0.0464
vn -0.9527 0.2890 -0.0938
vn -0.2902 -0.9565 -0.0286
vn -0.9904 0.0975 -0.0976
vn -0.0980 0.9951 -0.0097
vn -0.0980 -0.9951 -0.0097
vn -0.9904 -0.0975 -0.0976
vn -0.2902 0.9565 -0.0286
vn -0.4528 -0.8810 -0.1374
vn -0.9161 0.2890 -0.2779
vn -0.2790 -0.9565 -0.0846
vn -0.9524 0.0975 -0.2889
vn -0.0942 0.9951 -0.0286
vn -0.0942 -0.9951 -0.0286
vn -0.9524 -0.0975 -0.2889
vn -0.2790 0.9565 -0.0846
vn -0.9161 -0.2890 -0.2779
vn -0.4528 0.8810 -0.1374
vn -0.8448 -0.4696 -0.2563
vn -0.6088 0.7715 -0.1847
vn -0.7412 -0.6326 -0.2248
vn -0.7412 0.6326 -0.2248
vn -0.6088 -0.7715 -0.1847
vn -0.8448 0.4696 -0.2563
vn -0.4173 0.8810 -0.2231
vn -0.7786 -0.4696 -0.4162
vn -0.5611 0.7715 -0.2999
vn -0.6831 -0.6326 -0.3651
vn -0.6831 0.6326 -0.3651
vn -0.5611 -0.7715 -0.2999
vn -0.7786 0.4696 -0.4162
vn -0.4173 -0.8810 -0.2231
vn -0.8443 0.2890 -0.4513
vn -0.2571 -0.9565 -0.1374
vn -0.8777 0.0975 -0.4691
vn -0.0869 0.9951 -0.0464
vn -0.0869 -0.9951 -0.0464
vn -0.8777 -0.0975 -0.4691
vn -0.2571 0.9565 -0.1374
vn -0.8443 -0.2890 -0.4513
vn -0.7400 0.2890 -0.6073
vn -0.2254 -0.9565 -0.1850
vn -0.7693 0.0975 -0.6314
vn -0.0761 0.9951 -0.0625
vn -0.0761 -0.9951 -0.0625
vn -0.7693 -0.0975 -0.6314
vn -0.2254 0.9565 -0.1850
vn -0.7400 -0.2890 -0.6073
vn -0.3658 0.8810 -0.3002
vn -0.6825 -0.4696 -0.5601
vn -0.4918 0.7715 -0.4036
vn -0.5987 -0.6326 -0.4913
vn -0.5987 0.6326 -0.4913
vn -0.4918 -0.7715 -0.4036
vn -0.6825 0.4696 -0.5601
vn -0.3658 -0.8810 -0.3002
vn -0.5601 -0.4696 -0.6825
vn -0.4036 0.7715 -0.4918
vn -0.4913 -0.6326 -0.5987
vn -0.4913 0.6326 -0.5987
vn -0.4036 -0.7715 -0.4918
vn -0.5601 0.4696 -0.6825
vn -0.3002 -0.8810 -0.3658
vn -0.6073 0.2890 -0.7400
vn -0.1850 -0.9565 -0.2254
vn -0.6314 0.0975 -0.7693
vn -0.0625 0.9951 -0.0761
vn -0.0625 -0.9951 -0.0761
vn -0.6314 -0.0975 -0.7693
vn -0.1850 0.9565 -0.2254
vn -0.6073 -0.2890 -0.7400
vn -0.3002 0.8810 -0.3658
vn -0.1374 -0.9565 -0.2571
vn -0.4691 0.0975 -0.8777
vn -0.0464 0.9951 -0.0869
vn -0.0464 -0.9951 -0.0869
vn -0.4691 -0.0975 -0.8777
vn -0.1374 0.9565 -0.2571
vn -0.4513 -0.2890 -0.8443
vn -0.2230 0.8810 -0.4173
vn -0.4162 -0.4696 -0.7786
vn -0.2999 0.7715 -0.5611
vn -0.3651 -0.6326 -0.6831
vn -0.3651 0.6326 -0.6831
vn -0.2999 -0.7715 -0.5611
vn -0.4162 0.4696 -0.7786
vn -0.2230 -0.8810 -0.4173
vn -0.4513 0.2890 -0.8443
vn -0.2248 -0.6326 -0.7412
vn -0.2248 0.6326 -0.7412
vn -0.1847 -0.7715 -0.6088
vn -0.2563 0.4696 -0.8448
vn -0.1374 -0.8810 -0.4528
vn -0.2779 0.2890 -0.9161
vn -0.0846 -0.9565 -0.2790
vn -0.2889 0.0975 -0.9524
vn -0.0286 0.9951 -0.0942
vn -0.0286 -0.9951 -0.0942
vn -0.2889 -0.0975 -0.9524
vn -0.0846 0.9565 -0.2790
vn -0.2779 -0.2890 -0.9161
vn -0.1374 0.8810 -0.4528
vn -0.2563 -0.4696 -0.8448
vn -0.1847 0.7715 -0.6088
vn -0.0097 0.9951 -0.0980
vn -0.0097 -0.9951 -0.0980
vn -0.0976 -0.0975 -0.9904
vn -0.0286 0.9565 -0.2902
vn -0.0938 -0.2890 -0.9527
vn -0.0464 0.8810 -0.4709
vn -0.0865 -0.4696 -0.8786
vn -0.0624 0.7715 -0.6332
vn -0.0759 -0.6326 -0.7708
vn -0.0759 0.6326 -0.7708
vn -0.0624 -0.7715 -0.6332
vn -0.0865 0.4696 -0.8786
vn -0.0464 -0.8810 -0.4709
vn -0.0938 0.2890 -0.9527
vn -0.0286 -0.9565 -0.2902
vn -0.0976 0.0975 -0.9904
vt 0.500000 0.500000
vt 0.500000 0.597545
vt 0.595671 0.597545
vt 0.597545 0.500000
vt 0.500000 0.597545
vt 0.500000 0.500000
vt 0.519030 0.595671
vt 0.500000 0.402455
vt 0.595671 0.402455
vt 0.500000 0.691342
vt 0.537329 0.687665
vt 0.500000 0.308658
vt 0.590120 0.308658
vt 0.500000 0.777785
vt 0.554193 0.772448
vt 0.500000 0.222215
vt 0.581106 0.222215
vt 0.500000 0.853553
vt 0.568975 0.846760
vt 0.500000 0.146447
vt 0.568975 0.146447
vt 0.500000 0.777785
vt 0.500000 0.853553
vt 0.568975 0.853553
vt 0.581106 0.777785
vt 0.500000 0.777785
vt 0.500000 0.691342
vt 0.590120 0.691342
vt 0.606304 0.756640
vt 0.573223 0.676777
vt 0.676777 0.691342
vt 0.687665 0.597545
vt 0.537329 0.590120
vt 0.691342 0.500000
vt 0.687665 0.402455
vt 0.676777 0.308658
vt 0.659095 0.222215
vt 0.635299 0.826641
vt 0.635299 0.146447
vt 0.635299 0.853553
vt 0.659095 0.777785
vt 0.756640 0.308658
vt 0.730970 0.222215
vt 0.654329 0.730970
vt 0.696424 0.793969
vt 0.696424 0.146447
vt 0.696424 0.853553
vt 0.730970 0.777785
vt 0.756640 0.691342
vt 0.606304 0.659095
vt 0.772447 0.597545
vt 0.554193 0.581106
vt 0.777785 0.500000
vt 0.772447 0.402455
vt 0.635299 0.635299
vt 0.568975 0.568975
vt 0.846760 0.597545
vt 0.853553 0.500000
vt 0.846760 0.402455
vt 0.826641 0.308658
vt 0.696424 0.696424
vt 0.793969 0.222215
vt 0.750000 0.750000
vt 0.730970 0.845671
vt 0.793969 0.793969
vt 0.793969 0.777785
vt 0.826641 0.691342
vt 0.730970 0.654329
vt 0.793969 0.696424
vt 0.845671 0.730970
vt 0.826641 0.691342
vt 0.756640 0.691342
vt 0.659095 0.606304
vt 0.581106 0.554193
vt 0.777785 0.500000
vt 0.826641 0.308658
vt 0.756640 0.308658
vt 0.687665 0.597545
vt 0.691342 0.500000
vt 0.590120 0.537329
vt 0.687665 0.402455
vt 0.676777 0.573223
vt 0.676777 0.308658
vt 0.756640 0.606304
vt 0.826641 0.635299
vt 0.635299 0.146447
vt 0.635299 0.853553
vt 0.676777 0.691342
vt 0.568975 0.146447
vt 0.568975 0.853553
vt 0.846760 0.568975
vt 0.772447 0.554193
vt 0.590120 0.691342
vt 0.687665 0.537329
vt 0.595671 0.519030
vt 0.597545 0.500000
vt 0.590120 0.308658
vt 0.597545 0.500000
vt 0.500000 0.500000
vt 0.691342 0.500000
vt 0.500000 0.308658
vt 0.777785 0.500000
vt 0.500000 0.691342
vt 0.431025 0.853553
vt 0.418894 0.777785
vt 0.846760 0.431025
vt 0.772447 0.445807
vt 0.409880 0.691342
vt 0.687665 0.462671
vt 0.404329 0.597545
vt 0.595671 0.480970
vt 0.402455 0.500000
vt 0.404329 0.402455
vt 0.409880 0.308658
vt 0.418894 0.222215
vt 0.431025 0.146447
vt 0.308658 0.500000
vt 0.312335 0.402455
vt 0.590120 0.462671
vt 0.676777 0.426777
vt 0.323223 0.308658
vt 0.756640 0.393696
vt 0.340905 0.222215
vt 0.826641 0.364701
vt 0.364701 0.146447
vt 0.364701 0.853553
vt 0.340905 0.777785
vt 0.323223 0.691342
vt 0.312335 0.597545
vt 0.793969 0.303576
vt 0.730970 0.345671
vt 0.269030 0.777785
vt 0.243360 0.691342
vt 0.659095 0.393696
vt 0.227552 0.597545
vt 0.581106 0.445807
vt 0.222215 0.500000
vt 0.227552 0.402455
vt 0.243360 0.308658
vt 0.269030 0.222215
vt 0.303576 0.146447
vt 0.303576 0.853553
vt 0.153240 0.402455
vt 0.173359 0.308658
vt 0.635299 0.364701
vt 0.696424 0.303576
vt 0.206031 0.222215
vt 0.750000 0.250000
vt 0.845671 0.269030
vt 0.793969 0.206031
vt 0.206031 0.777785
vt 0.173359 0.691342
vt 0.153240 0.597545
vt 0.568975 0.431025
vt 0.146447 0.500000
vt 0.654329 0.269030
vt 0.606304 0.340905
vt 0.846760 0.597545
vt 0.772447 0.597545
vt 0.554193 0.418894
vt 0.853553 0.500000
vt 0.777785 0.500000
vt 0.846760 0.402455
vt 0.772447 0.402455
vt 0.793969 0.222215
vt 0.730970 0.222215
vt 0.696424 0.206031
vt 0.730970 0.154329
vt 0.793969 0.777785
vt 0.730970 0.777785
vt 0.573223 0.323223
vt 0.606304 0.243360
vt 0.659095 0.222215
vt 0.635299 0.173359
vt 0.696424 0.146447
vt 0.696424 0.853553
vt 0.659095 0.777785
vt 0.687665 0.597545
vt 0.537329 0.409880
vt 0.691341 0.500000
vt 0.687665 0.402455
vt 0.595671 0.597545
vt 0.537329 0.312335
vt 0.519030 0.404329
vt 0.597545 0.500000
vt 0.595671 0.402455
vt 0.554193 0.227553
vt 0.581106 0.222215
vt 0.568975 0.153240
vt 0.581106 0.777785
vt 0.500000 0.222215
vt 0.500000 0.222215
vt 0.500000 0.146447
vt 0.500000 0.146447
vt 0.500000 0.853553
vt 0.500000 0.777785
vt 0.500000 0.308658
vt 0.500000 0.597545
vt 0.500000 0.402455
vt 0.500000 0.500000
vt 0.500000 0.402455
vt 0.462671 0.312335
vt 0.480970 0.404329
vt 0.404329 0.597545
vt 0.402455 0.500000
vt 0.404329 0.402455
vt 0.409880 0.308658
vt 0.445807 0.227553
vt 0.418894 0.222215
vt 0.431025 0.153240
vt 0.431025 0.146447
vt 0.431025 0.853553
vt 0.418894 0.777785
vt 0.409880 0.691342
vt 0.393696 0.243360
vt 0.364701 0.173359
vt 0.340905 0.222215
vt 0.340905 0.777785
vt 0.426777 0.323223
vt 0.462671 0.409880
vt 0.308658 0.500000
vt 0.227552 0.597545
vt 0.445807 0.418894
vt 0.227552 0.402455
vt 0.393696 0.340905
vt 0.243360 0.308658
vt 0.345671 0.269030
vt 0.303576 0.206031
vt 0.303576 0.146447
vt 0.303576 0.853553
vt 0.243360 0.691342
vt 0.269030 0.154329
vt 0.206031 0.206031
vt 0.250000 0.250000
vt 0.303576 0.303576
vt 0.173359 0.691342
vt 0.364701 0.364701
vt 0.431025 0.431025
vt 0.146447 0.500000
vt 0.173359 0.308658
vt 0.418894 0.445807
vt 0.153240 0.402455
vt 0.146447 0.500000
vt 0.222215 0.500000
vt 0.227553 0.402455
vt 0.340905 0.393696
vt 0.269030 0.345671
vt 0.206031 0.222215
vt 0.269030 0.222215
vt 0.206031 0.303576
vt 0.154329 0.269030
vt 0.206031 0.777785
vt 0.269030 0.777785
vt 0.153240 0.597545
vt 0.227553 0.597545
vt 0.173359 0.364701
vt 0.243360 0.393696
vt 0.340905 0.777785
vt 0.323223 0.426777
vt 0.312335 0.597545
vt 0.409880 0.462671
vt 0.308659 0.500000
vt 0.312335 0.402455
vt 0.340905 0.222215
vt 0.364701 0.146447
vt 0.364701 0.853553
vt 0.404329 0.480970
vt 0.312335 0.462671
vt 0.404329 0.402455
vt 0.227553 0.445807
vt 0.418894 0.222215
vt 0.153240 0.431025
vt 0.431025 0.146447
vt 0.431025 0.853553
vt 0.418894 0.777785
vt 0.404329 0.597545
vt 0.402455 0.500000
vt 0.500000 0.777785
vt 0.222215 0.500000
vt 0.308658 0.500000
vt 0.500000 0.597545
vt 0.402455 0.500000
vt 0.500000 0.500000
vt 0.500000 0.402455
vt 0.500000 0.222215
vt 0.595671 0.402455
vt 0.312335 0.537329
vt 0.227553 0.554193
vt 0.581106 0.222215
vt 0.153240 0.568975
vt 0.581106 0.777785
vt 0.595671 0.597545
vt 0.404329 0.519030
vt 0.597545 0.500000
vt 0.243360 0.606304
vt 0.323223 0.573223
vt 0.676777 0.691342
vt 0.687665 0.597545
vt 0.409880 0.537329
vt 0.691342 0.500000
vt 0.687665 0.402455
vt 0.676777 0.308658
vt 0.659095 0.222215
vt 0.173359 0.635299
vt 0.659095 0.777785
vt 0.340905 0.606304
vt 0.269030 0.654329
vt 0.756640 0.308658
vt 0.206031 0.696424
vt 0.756640 0.691342
vt 0.418894 0.554193
vt 0.777785 0.500000
vt 0.826641 0.691342
vt 0.364701 0.635299
vt 0.431025 0.568975
vt 0.853553 0.500000
vt 0.826641 0.308658
vt 0.303576 0.696424
vt 0.793969 0.222215
vt 0.250000 0.750000
vt 0.154329 0.730970
vt 0.206031 0.793969
vt 0.793969 0.777785
vt 0.206031 0.222215
vt 0.173359 0.308658
vt 0.243360 0.308658
vt 0.269030 0.222215
vt 0.345671 0.730970
vt 0.303576 0.793969
vt 0.269030 0.845671
vt 0.173359 0.691342
vt 0.206031 0.777785
vt 0.269030 0.777785
vt 0.243360 0.691342
vt 0.393696 0.659095
vt 0.153240 0.597545
vt 0.227553 0.597545
vt 0.445807 0.581106
vt 0.146447 0.500000
vt 0.222215 0.500000
vt 0.153240 0.402455
vt 0.227553 0.402455
vt 0.426777 0.676777
vt 0.462671 0.590120
vt 0.312335 0.597545
vt 0.312335 0.402455
vt 0.393696 0.756640
vt 0.340905 0.222215
vt 0.364701 0.826641
vt 0.340905 0.777785
vt 0.418894 0.222215
vt 0.418894 0.777785
vt 0.431025 0.846760
vt 0.445807 0.772447
vt 0.462671 0.687665
vt 0.480970 0.595671
s 0
f 5/1/1 4/2/1 15/3/1 16/4/1
f 474/5/2 1/6/2 9/7/2
f 8/6/3 482/5/3 23/7/3
f 6/8/4 5/1/4 16/4/4 17/9/4
f 475/10/5 474/5/5 9/7/5 10/11/5
f 478/12/6 6/8/6 17/9/6 18/13/6
f 2/14/7 475/10/7 10/11/7 11/15/7
f 7/16/8 478/12/8 18/13/8 19/17/8
f 476/18/9 2/14/9 11/15/9 12/19/9
f 479/20/10 7/16/10 19/17/10 20/21/10
f 3/22/11 476/23/11 12/24/11 13/25/11
f 480/26/12 479/18/12 20/19/12 21/15/12
f 477/27/13 3/22/13 13/25/13 14/28/13
f 481/10/14 480/26/14 21/15/14 22/11/14
f 4/2/15 477/27/15 14/28/15 15/3/15
f 482/5/16 481/10/16 22/11/16 23/7/16
f 22/11/17 21/15/17 36/29/17 37/30/17
f 15/3/18 14/28/18 29/31/18 30/32/18
f 23/7/19 22/11/19 37/30/19 38/33/19
f 16/4/20 15/3/20 30/32/20 31/34/20
f 9/7/21 1/6/21 24/33/21
f 8/6/22 23/7/22 38/33/22
f 17/9/23 16/4/23 31/34/23 32/35/23
f 10/11/24 9/7/24 24/33/24 25/30/24
f 18/13/25 17/9/25 32/35/25 33/36/25
f 11/15/26 10/11/26 25/30/26 26/29/26
f 19/17/27 18/13/27 33/36/27 34/37/27
f 12/19/28 11/15/28 26/29/28 27/38/28
f 20/21/29 19/17/29 34/37/29 35/39/29
f 13/25/30 12/24/30 27/40/30 28/41/30
f 21/15/31 20/19/31 35/38/31 36/29/31
f 14/28/32 13/25/32 28/41/32 29/31/32
f 34/37/33 33/36/33 48/42/33 49/43/33
f 27/38/34 26/29/34 41/44/34 42/45/34
f 35/39/35 34/37/35 49/43/35 50/46/35
f 28/41/36 27/40/36 42/47/36 43/48/36
f 36/29/37 35/38/37 50/45/37 51/44/37
f 29/31/38 28/41/38 43/48/38 44/49/38
f 37/30/39 36/29/39 51/44/39 52/50/39
f 30/32/40 29/31/40 44/49/40 45/51/40
f 38/33/41 37/30/41 52/50/41 53/52/41
f 31/34/42 30/32/42 45/51/42 46/53/42
f 24/33/43 1/6/43 39/52/43
f 8/6/44 38/33/44 53/52/44
f 32/35/45 31/34/45 46/53/45 47/54/45
f 25/30/46 24/33/46 39/52/46 40/50/46
f 33/36/47 32/35/47 47/54/47 48/42/47
f 26/29/48 25/30/48 40/50/48 41/44/48
f 53/52/49 52/50/49 67/55/49 68/56/49
f 46/53/50 45/51/50 60/57/50 61/58/50
f 39/52/51 1/6/51 54/56/51
f 8/6/52 53/52/52 68/56/52
f 47/54/53 46/53/53 61/58/53 62/59/53
f 40/50/54 39/52/54 54/56/54 55/55/54
f 48/42/55 47/54/55 62/59/55 63/60/55
f 41/44/56 40/50/56 55/55/56 56/61/56
f 49/43/57 48/42/57 63/60/57 64/62/57
f 42/45/58 41/44/58 56/61/58 57/63/58
f 50/45/59 49/64/59 64/65/59 65/63/59
f 43/64/60 42/45/60 57/63/60 58/65/60
f 51/44/61 50/45/61 65/63/61 66/61/61
f 44/49/62 43/48/62 58/66/62 59/67/62
f 52/50/63 51/44/63 66/61/63 67/55/63
f 45/51/64 44/49/64 59/67/64 60/57/64
f 57/63/65 56/61/65 71/68/65 72/69/65
f 65/63/66 64/65/66 79/70/66 80/69/66
f 58/65/67 57/63/67 72/69/67 73/70/67
f 66/61/68 65/63/68 80/69/68 81/68/68
f 59/71/69 58/66/69 73/48/69 74/72/69
f 67/55/70 66/61/70 81/68/70 82/73/70
f 60/57/71 59/71/71 74/72/71 75/51/71
f 68/56/72 67/55/72 82/73/72 83/74/72
f 61/58/73 60/57/73 75/51/73 76/75/73
f 54/56/74 1/6/74 69/74/74
f 8/6/75 68/56/75 83/74/75
f 62/59/76 61/58/76 76/75/76 77/54/76
f 55/55/77 54/56/77 69/74/77 70/73/77
f 63/76/78 62/59/78 77/54/78 78/77/78
f 56/61/79 55/55/79 70/73/79 71/68/79
f 64/62/80 63/76/80 78/77/80 79/43/80
f 76/75/81 75/51/81 90/78/81 91/79/81
f 69/74/82 1/6/82 84/80/82
f 8/6/83 83/74/83 98/80/83
f 77/54/84 76/75/84 91/79/84 92/81/84
f 70/73/85 69/74/85 84/80/85 85/82/85
f 78/77/86 77/54/86 92/81/86 93/83/86
f 71/68/87 70/73/87 85/82/87 86/84/87
f 79/43/88 78/77/88 93/83/88 94/37/88
f 72/69/89 71/68/89 86/84/89 87/85/89
f 80/46/90 79/43/90 94/37/90 95/86/90
f 73/48/91 72/47/91 87/87/91 88/41/91
f 81/68/92 80/69/92 95/85/92 96/84/92
f 74/72/93 73/48/93 88/41/93 89/88/93
f 82/73/94 81/68/94 96/84/94 97/82/94
f 75/51/95 74/72/95 89/88/95 90/78/95
f 83/74/96 82/73/96 97/82/96 98/80/96
f 95/86/97 94/37/97 109/17/97 110/89/97
f 88/41/98 87/87/98 102/90/98 103/25/98
f 96/84/99 95/85/99 110/91/99 111/92/99
f 89/88/100 88/41/100 103/25/100 104/93/100
f 97/82/101 96/84/101 111/92/101 112/94/101
f 90/78/102 89/88/102 104/93/102 105/3/102
f 98/80/103 97/82/103 112/94/103 113/95/103
f 91/79/104 90/78/104 105/3/104 106/96/104
f 84/80/105 1/6/105 99/95/105
f 8/6/106 98/80/106 113/95/106
f 92/81/107 91/79/107 106/96/107 107/9/107
f 85/82/108 84/80/108 99/95/108 100/94/108
f 93/83/109 92/81/109 107/9/109 108/97/109
f 86/84/110 85/82/110 100/94/110 101/92/110
f 94/37/111 93/83/111 108/97/111 109/17/111
f 87/85/112 86/84/112 101/92/112 102/91/112
f 99/95/113 1/6/113 114/98/113
f 8/6/114 113/95/114 128/98/114
f 107/9/115 106/96/115 121/99/115 122/8/115
f 100/94/116 99/95/116 114/98/116 115/100/116
f 108/97/117 107/9/117 122/8/117 123/101/117
f 101/92/118 100/94/118 115/100/118 116/102/118
f 109/17/119 108/97/119 123/101/119 124/16/119
f 102/91/120 101/92/120 116/102/120 117/58/120
f 110/89/121 109/17/121 124/16/121 125/20/121
f 103/25/122 102/90/122 117/23/122 118/22/122
f 111/92/123 110/91/123 125/58/123 126/102/123
f 104/93/124 103/25/124 118/22/124 119/103/124
f 112/94/125 111/92/125 126/102/125 127/100/125
f 105/3/126 104/93/126 119/103/126 120/2/126
f 113/95/127 112/94/127 127/100/127 128/98/127
f 106/96/128 105/3/128 120/2/128 121/99/128
f 118/22/129 117/23/129 132/104/129 133/105/129
f 126/102/130 125/58/130 140/106/130 141/107/130
f 119/103/131 118/22/131 133/105/131 134/108/131
f 127/100/132 126/102/132 141/107/132 142/109/132
f 120/2/133 119/103/133 134/108/133 135/110/133
f 128/98/134 127/100/134 142/109/134 143/111/134
f 121/99/135 120/2/135 135/110/135 136/112/135
f 114/98/136 1/6/136 129/111/136
f 8/6/137 128/98/137 143/111/137
f 122/8/138 121/99/138 136/112/138 137/113/138
f 115/100/139 114/98/139 129/111/139 130/109/139
f 123/101/140 122/8/140 137/113/140 138/114/140
f 116/102/141 115/100/141 130/109/141 131/107/141
f 124/16/142 123/101/142 138/114/142 139/115/142
f 117/58/143 116/102/143 131/107/143 132/106/143
f 125/20/144 124/16/144 139/115/144 140/116/144
f 137/113/145 136/112/145 151/117/145 152/118/145
f 130/109/146 129/111/146 144/119/146 145/120/146
f 138/114/147 137/113/147 152/118/147 153/121/147
f 131/107/148 130/109/148 145/120/148 146/122/148
f 139/115/149 138/114/149 153/121/149 154/123/149
f 132/106/150 131/107/150 146/122/150 147/124/150
f 140/116/151 139/115/151 154/123/151 155/125/151
f 133/105/152 132/104/152 147/126/152 148/127/152
f 141/107/153 140/106/153 155/124/153 156/122/153
f 134/108/154 133/105/154 148/127/154 149/128/154
f 142/109/155 141/107/155 156/122/155 157/120/155
f 135/110/156 134/108/156 149/128/156 150/129/156
f 143/111/157 142/109/157 157/120/157 158/119/157
f 136/112/158 135/110/158 150/129/158 151/117/158
f 129/111/159 1/6/159 144/119/159
f 8/6/160 143/111/160 158/119/160
f 156/122/161 155/124/161 170/130/161 171/131/161
f 149/128/162 148/127/162 163/132/162 164/133/162
f 157/120/163 156/122/163 171/131/163 172/134/163
f 150/129/164 149/128/164 164/133/164 165/135/164
f 158/119/165 157/120/165 172/134/165 173/136/165
f 151/117/166 150/129/166 165/135/166 166/137/166
f 144/119/167 1/6/167 159/136/167
f 8/6/168 158/119/168 173/136/168
f 152/118/169 151/117/169 166/137/169 167/138/169
f 145/120/170 144/119/170 159/136/170 160/134/170
f 153/121/171 152/118/171 167/138/171 168/139/171
f 146/122/172 145/120/172 160/134/172 161/131/172
f 154/123/173 153/121/173 168/139/173 169/140/173
f 147/124/174 146/122/174 161/131/174 162/130/174
f 155/125/175 154/123/175 169/140/175 170/141/175
f 148/127/176 147/126/176 162/142/176 163/132/176
f 168/139/177 167/138/177 182/143/177 183/144/177
f 161/131/178 160/134/178 175/145/178 176/146/178
f 169/140/179 168/139/179 183/144/179 184/147/179
f 162/130/180 161/131/180 176/146/180 177/148/180
f 170/130/181 169/149/181 184/150/181 185/148/181
f 163/149/182 162/130/182 177/148/182 178/150/182
f 171/131/183 170/130/183 185/148/183 186/146/183
f 164/133/184 163/132/184 178/151/184 179/152/184
f 172/134/185 171/131/185 186/146/185 187/145/185
f 165/135/186 164/133/186 179/152/186 180/153/186
f 173/136/187 172/134/187 187/145/187 188/154/187
f 166/137/188 165/135/188 180/153/188 181/155/188
f 159/136/189 1/6/189 174/154/189
f 8/6/190 173/136/190 188/154/190
f 167/138/191 166/137/191 181/155/191 182/143/191
f 160/134/192 159/136/192 174/154/192 175/145/192
f 187/145/193 186/146/193 201/156/193 202/157/193
f 180/158/194 179/67/194 194/49/194 195/159/194
f 188/154/195 187/145/195 202/157/195 203/160/195
f 181/161/196 180/158/196 195/159/196 196/162/196
f 174/154/197 1/6/197 189/160/197
f 8/6/198 188/154/198 203/160/198
f 182/163/199 181/161/199 196/162/199 197/164/199
f 175/145/200 174/154/200 189/160/200 190/157/200
f 183/60/201 182/163/201 197/164/201 198/42/201
f 176/146/202 175/145/202 190/157/202 191/156/202
f 184/165/203 183/60/203 198/42/203 199/166/203
f 177/148/204 176/146/204 191/156/204 192/167/204
f 185/148/205 184/150/205 199/168/205 200/167/205
f 178/150/206 177/148/206 192/167/206 193/168/206
f 186/146/207 185/148/207 200/167/207 201/156/207
f 179/67/208 178/169/208 193/170/208 194/49/208
f 191/156/209 190/157/209 205/171/209 206/172/209
f 199/166/210 198/42/210 213/36/210 214/173/210
f 192/167/211 191/156/211 206/172/211 207/174/211
f 200/175/212 199/166/212 214/173/212 215/39/212
f 193/170/213 192/176/213 207/40/213 208/177/213
f 201/156/214 200/167/214 215/174/214 216/172/214
f 194/49/215 193/170/215 208/177/215 209/31/215
f 202/157/216 201/156/216 216/172/216 217/171/216
f 195/159/217 194/49/217 209/31/217 210/178/217
f 203/160/218 202/157/218 217/171/218 218/179/218
f 196/162/219 195/159/219 210/178/219 211/180/219
f 189/160/220 1/6/220 204/179/220
f 8/6/221 203/160/221 218/179/221
f 197/164/222 196/162/222 211/180/222 212/181/222
f 190/157/223 189/160/223 204/179/223 205/171/223
f 198/42/224 197/164/224 212/181/224 213/36/224
f 210/178/225 209/31/225 224/28/225 225/182/225
f 218/179/226 217/171/226 232/183/226 233/184/226
f 211/180/227 210/178/227 225/182/227 226/185/227
f 204/179/228 1/6/228 219/184/228
f 8/6/229 218/179/229 233/184/229
f 212/181/230 211/180/230 226/185/230 227/186/230
f 205/171/231 204/179/231 219/184/231 220/183/231
f 213/36/232 212/181/232 227/186/232 228/13/232
f 206/172/233 205/171/233 220/183/233 221/187/233
f 214/173/234 213/36/234 228/13/234 229/188/234
f 207/174/235 206/172/235 221/187/235 222/189/235
f 215/39/236 214/173/236 229/188/236 230/21/236
f 208/177/237 207/40/237 222/24/237 223/190/237
f 216/172/238 215/174/238 230/189/238 231/187/238
f 209/31/239 208/177/239 223/190/239 224/28/239
f 217/171/240 216/172/240 231/187/240 232/183/240
f 229/188/241 228/13/241 243/12/241 244/191/241
f 222/189/242 221/187/242 236/192/242 237/193/242
f 230/21/243 229/188/243 244/191/243 245/194/243
f 223/190/244 222/24/244 237/195/244 238/196/244
f 231/187/245 230/189/245 245/193/245 246/192/245
f 224/28/246 223/190/246 238/196/246 239/27/246
f 232/183/247 231/187/247 246/192/247 247/197/247
f 225/182/248 224/28/248 239/27/248 240/198/248
f 233/184/249 232/183/249 247/197/249 248/199/249
f 226/185/250 225/182/250 240/198/250 241/200/250
f 219/184/251 1/6/251 234/199/251
f 8/6/252 233/184/252 248/199/252
f 227/186/253 226/185/253 241/200/253 242/201/253
f 220/183/254 219/184/254 234/199/254 235/197/254
f 228/13/255 227/186/255 242/201/255 243/12/255
f 221/187/256 220/183/256 235/197/256 236/192/256
f 248/199/257 247/197/257 262/202/257 263/203/257
f 241/200/258 240/198/258 255/204/258 256/205/258
f 234/199/259 1/6/259 249/203/259
f 8/6/260 248/199/260 263/203/260
f 242/201/261 241/200/261 256/205/261 257/206/261
f 235/197/262 234/199/262 249/203/262 250/202/262
f 243/12/263 242/201/263 257/206/263 258/207/263
f 236/192/264 235/197/264 250/202/264 251/208/264
f 244/191/265 243/12/265 258/207/265 259/209/265
f 237/193/266 236/192/266 251/208/266 252/210/266
f 245/194/267 244/191/267 259/209/267 260/211/267
f 238/196/268 237/195/268 252/212/268 253/213/268
f 246/192/269 245/193/269 260/210/269 261/208/269
f 239/27/270 238/196/270 253/213/270 254/214/270
f 247/197/271 246/192/271 261/208/271 262/202/271
f 240/198/272 239/27/272 254/214/272 255/204/272
f 252/210/273 251/208/273 266/215/273 267/216/273
f 260/211/274 259/209/274 274/217/274 275/125/274
f 253/213/275 252/212/275 267/126/275 268/218/275
f 261/208/276 260/210/276 275/216/276 276/215/276
f 254/214/277 253/213/277 268/218/277 269/128/277
f 262/202/278 261/208/278 276/215/278 277/219/278
f 255/204/279 254/214/279 269/128/279 270/129/279
f 263/203/280 262/202/280 277/219/280 278/220/280
f 256/205/281 255/204/281 270/129/281 271/221/281
f 249/203/282 1/6/282 264/220/282
f 8/6/283 263/203/283 278/220/283
f 257/206/284 256/205/284 271/221/284 272/118/284
f 250/202/285 249/203/285 264/220/285 265/219/285
f 258/207/286 257/206/286 272/118/286 273/121/286
f 251/208/287 250/202/287 265/219/287 266/215/287
f 259/209/288 258/207/288 273/121/288 274/217/288
f 271/221/289 270/129/289 285/222/289 286/137/289
f 264/220/290 1/6/290 279/223/290
f 8/6/291 278/220/291 293/223/291
f 272/118/292 271/221/292 286/137/292 287/224/292
f 265/219/293 264/220/293 279/223/293 280/225/293
f 273/121/294 272/118/294 287/224/294 288/226/294
f 266/215/295 265/219/295 280/225/295 281/227/295
f 274/217/296 273/121/296 288/226/296 289/140/296
f 267/216/297 266/215/297 281/227/297 282/228/297
f 275/125/298 274/217/298 289/140/298 290/229/298
f 268/218/299 267/126/299 282/230/299 283/132/299
f 276/215/300 275/216/300 290/228/300 291/227/300
f 269/128/301 268/218/301 283/132/301 284/231/301
f 277/219/302 276/215/302 291/227/302 292/225/302
f 270/129/303 269/128/303 284/231/303 285/222/303
f 278/220/304 277/219/304 292/225/304 293/223/304
f 290/228/305 289/232/305 304/233/305 305/234/305
f 283/232/306 282/228/306 297/234/306 298/233/306
f 291/227/307 290/228/307 305/234/307 306/235/307
f 284/231/308 283/132/308 298/151/308 299/236/308
f 292/225/309 291/227/309 306/235/309 307/237/309
f 285/222/310 284/231/310 299/236/310 300/153/310
f 293/223/311 292/225/311 307/237/311 308/238/311
f 286/137/312 285/222/312 300/153/312 301/239/312
f 279/223/313 1/6/313 294/238/313
f 8/6/314 293/223/314 308/238/314
f 287/224/315 286/137/315 301/239/315 302/143/315
f 280/225/316 279/223/316 294/238/316 295/237/316
f 288/226/317 287/224/317 302/143/317 303/240/317
f 281/227/318 280/225/318 295/237/318 296/235/318
f 289/140/319 288/226/319 303/240/319 304/147/319
f 282/228/320 281/227/320 296/235/320 297/234/320
f 8/6/321 308/238/321 323/241/321
f 302/242/322 301/243/322 316/244/322 317/245/322
f 295/237/323 294/238/323 309/241/323 310/246/323
f 303/240/324 302/242/324 317/245/324 318/226/324
f 296/235/325 295/237/325 310/246/325 311/247/325
f 304/248/326 303/240/326 318/226/326 319/249/326
f 297/234/327 296/235/327 311/247/327 312/250/327
f 305/234/328 304/233/328 319/251/328 320/250/328
f 298/233/329 297/234/329 312/250/329 313/251/329
f 306/235/330 305/234/330 320/250/330 321/247/330
f 299/236/331 298/252/331 313/253/331 314/231/331
f 307/237/332 306/235/332 321/247/332 322/246/332
f 300/254/333 299/236/333 314/231/333 315/255/333
f 308/238/334 307/237/334 322/246/334 323/241/334
f 301/243/335 300/254/335 315/255/335 316/244/335
f 294/238/336 1/6/336 309/241/336
f 321/247/337 320/250/337 335/256/337 336/257/337
f 314/231/338 313/253/338 328/258/338 329/128/338
f 322/246/339 321/247/339 336/257/339 337/259/339
f 315/255/340 314/231/340 329/128/340 330/260/340
f 323/241/341 322/246/341 337/259/341 338/261/341
f 316/244/342 315/255/342 330/260/342 331/262/342
f 309/241/343 1/6/343 324/261/343
f 8/6/344 323/241/344 338/261/344
f 317/245/345 316/244/345 331/262/345 332/263/345
f 310/246/346 309/241/346 324/261/346 325/259/346
f 318/226/347 317/245/347 332/263/347 333/121/347
f 311/247/348 310/246/348 325/259/348 326/257/348
f 319/249/349 318/226/349 333/121/349 334/264/349
f 312/250/350 311/247/350 326/257/350 327/256/350
f 320/141/351 319/249/351 334/264/351 335/265/351
f 313/253/352 312/142/352 327/266/352 328/258/352
f 325/259/353 324/261/353 339/267/353 340/268/353
f 333/121/354 332/263/354 347/269/354 348/114/354
f 326/257/355 325/259/355 340/268/355 341/270/355
f 334/264/356 333/121/356 348/114/356 349/271/356
f 327/256/357 326/257/357 341/270/357 342/272/357
f 335/265/358 334/264/358 349/271/358 350/273/358
f 328/258/359 327/266/359 342/274/359 343/275/359
f 336/257/360 335/256/360 350/272/360 351/270/360
f 329/128/361 328/258/361 343/275/361 344/108/361
f 337/259/362 336/257/362 351/270/362 352/268/362
f 330/260/363 329/128/363 344/108/363 345/276/363
f 338/261/364 337/259/364 352/268/364 353/267/364
f 331/262/365 330/260/365 345/276/365 346/277/365
f 324/261/366 1/6/366 339/267/366
f 8/6/367 338/261/367 353/267/367
f 332/263/368 331/262/368 346/277/368 347/269/368
f 344/108/369 343/275/369 358/278/369 359/103/369
f 352/268/370 351/270/370 366/279/370 367/280/370
f 345/276/371 344/108/371 359/103/371 360/281/371
f 353/267/372 352/268/372 367/280/372 368/282/372
f 346/277/373 345/276/373 360/281/373 361/283/373
f 339/267/374 1/6/374 354/282/374
f 8/6/375 353/267/375 368/282/375
f 347/269/376 346/277/376 361/283/376 362/284/376
f 340/268/377 339/267/377 354/282/377 355/280/377
f 348/114/378 347/269/378 362/284/378 363/101/378
f 341/270/379 340/268/379 355/280/379 356/279/379
f 349/271/380 348/114/380 363/101/380 364/285/380
f 342/272/381 341/270/381 356/279/381 357/155/381
f 350/273/382 349/271/382 364/285/382 365/20/382
f 343/275/383 342/274/383 357/23/383 358/278/383
f 351/270/384 350/272/384 365/155/384 366/279/384
f 363/101/385 362/284/385 377/286/385 378/97/385
f 356/279/386 355/280/386 370/287/386 371/288/386
f 364/285/387 363/101/387 378/97/387 379/289/387
f 357/155/388 356/279/388 371/288/388 372/290/388
f 365/20/389 364/285/389 379/289/389 380/89/389
f 358/278/390 357/23/390 372/90/390 373/291/390
f 366/279/391 365/155/391 380/290/391 381/288/391
f 359/103/392 358/278/392 373/291/392 374/93/392
f 367/280/393 366/279/393 381/288/393 382/287/393
f 360/281/394 359/103/394 374/93/394 375/292/394
f 368/282/395 367/280/395 382/287/395 383/293/395
f 361/283/396 360/281/396 375/292/396 376/294/396
f 354/282/397 1/6/397 369/293/397
f 8/6/398 368/282/398 383/293/398
f 362/284/399 361/283/399 376/294/399 377/286/399
f 355/280/400 354/282/400 369/293/400 370/287/400
f 382/287/401 381/288/401 396/295/401 397/296/401
f 375/292/402 374/93/402 389/297/402 390/298/402
f 383/293/403 382/287/403 397/296/403 398/299/403
f 376/294/404 375/292/404 390/298/404 391/300/404
f 369/293/405 1/6/405 384/299/405
f 8/6/406 383/293/406 398/299/406
f 377/286/407 376/294/407 391/300/407 392/301/407
f 370/287/408 369/293/408 384/299/408 385/296/408
f 378/97/409 377/286/409 392/301/409 393/302/409
f 371/288/410 370/287/410 385/296/410 386/295/410
f 379/289/411 378/97/411 393/302/411 394/303/411
f 372/290/412 371/288/412 386/295/412 387/304/412
f 380/89/413 379/289/413 394/303/413 395/39/413
f 373/291/414 372/90/414 387/40/414 388/305/414
f 381/288/415 380/290/415 395/304/415 396/295/415
f 374/93/416 373/291/416 388/305/416 389/297/416
f 386/295/417 385/296/417 400/306/417 401/307/417
f 394/303/418 393/302/418 408/308/418 409/43/418
f 387/304/419 386/295/419 401/307/419 402/309/419
f 395/39/420 394/303/420 409/43/420 410/175/420
f 388/305/421 387/40/421 402/176/421 403/48/421
f 396/295/422 395/304/422 410/309/422 411/307/422
f 389/297/423 388/305/423 403/48/423 404/310/423
f 397/296/424 396/295/424 411/307/424 412/306/424
f 390/298/425 389/297/425 404/310/425 405/51/425
f 398/299/426 397/296/426 412/306/426 413/311/426
f 391/300/427 390/298/427 405/51/427 406/312/427
f 384/299/428 1/6/428 399/311/428
f 8/6/429 398/299/429 413/311/429
f 392/301/430 391/300/430 406/312/430 407/54/430
f 385/296/431 384/299/431 399/311/431 400/306/431
f 393/302/432 392/301/432 407/54/432 408/308/432
f 405/51/433 404/310/433 419/313/433 420/158/433
f 413/311/434 412/306/434 427/314/434 428/315/434
f 406/312/435 405/51/435 420/158/435 421/316/435
f 399/311/436 1/6/436 414/315/436
f 8/6/437 413/311/437 428/315/437
f 407/54/438 406/312/438 421/316/438 422/163/438
f 400/306/439 399/311/439 414/315/439 415/314/439
f 408/308/440 407/54/440 422/163/440 423/317/440
f 401/307/441 400/306/441 415/314/441 416/318/441
f 409/43/442 408/308/442 423/317/442 424/319/442
f 402/309/443 401/307/443 416/318/443 417/320/443
f 410/309/444 409/321/444 424/322/444 425/320/444
f 403/321/445 402/309/445 417/320/445 418/322/445
f 411/307/446 410/309/446 425/320/446 426/318/446
f 404/310/447 403/48/447 418/323/447 419/313/447
f 412/306/448 411/307/448 426/318/448 427/314/448
f 424/324/449 423/325/449 438/326/449 439/327/449
f 417/320/450 416/318/450 431/328/450 432/329/450
f 425/320/451 424/322/451 439/330/451 440/329/451
f 418/322/452 417/320/452 432/329/452 433/330/452
f 426/318/453 425/320/453 440/329/453 441/328/453
f 419/331/454 418/332/454 433/333/454 434/334/454
f 427/314/455 426/318/455 441/328/455 442/335/455
f 420/336/456 419/331/456 434/334/456 435/337/456
f 428/315/457 427/314/457 442/335/457 443/338/457
f 421/339/458 420/336/458 435/337/458 436/340/458
f 414/315/459 1/6/459 429/338/459
f 8/6/460 428/315/460 443/338/460
f 422/341/461 421/339/461 436/340/461 437/342/461
f 415/314/462 414/315/462 429/338/462 430/335/462
f 423/325/463 422/341/463 437/342/463 438/326/463
f 416/318/464 415/314/464 430/335/464 431/328/464
f 443/338/465 442/335/465 457/343/465 458/344/465
f 436/340/466 435/337/466 450/345/466 451/262/466
f 429/338/467 1/6/467 444/344/467
f 8/6/468 443/338/468 458/344/468
f 437/342/469 436/340/469 451/262/469 452/346/469
f 430/335/470 429/338/470 444/344/470 445/343/470
f 438/326/471 437/342/471 452/346/471 453/121/471
f 431/328/472 430/335/472 445/343/472 446/347/472
f 439/327/473 438/326/473 453/121/473 454/348/473
f 432/329/474 431/328/474 446/347/474 447/349/474
f 440/141/475 439/327/475 454/348/475 455/265/475
f 433/333/476 432/142/476 447/266/476 448/350/476
f 441/328/477 440/329/477 455/349/477 456/347/477
f 434/334/478 433/333/478 448/350/478 449/128/478
f 442/335/479 441/328/479 456/347/479 457/343/479
f 435/337/480 434/334/480 449/128/480 450/345/480
f 455/265/481 454/348/481 469/351/481 470/116/481
f 448/350/482 447/266/482 462/104/482 463/352/482
f 456/347/483 455/349/483 470/353/483 471/354/483
f 449/128/484 448/350/484 463/352/484 464/108/484
f 457/343/485 456/347/485 471/354/485 472/355/485
f 450/345/486 449/128/486 464/108/486 465/276/486
f 458/344/487 457/343/487 472/355/487 473/356/487
f 451/262/488 450/345/488 465/276/488 466/277/488
f 444/344/489 1/6/489 459/356/489
f 8/6/490 458/344/490 473/356/490
f 452/346/491 451/262/491 466/277/491 467/269/491
f 445/343/492 444/344/492 459/356/492 460/355/492
f 453/121/493 452/346/493 467/269/493 468/114/493
f 446/347/494 445/343/494 460/355/494 461/354/494
f 454/348/495 453/121/495 468/114/495 469/351/495
f 447/349/496 446/347/496 461/354/496 462/353/496
f 459/356/497 1/6/497 474/5/497
f 8/6/498 473/356/498 482/5/498
f 467/269/499 466/277/499 5/1/499 6/8/499
f 460/355/500 459/356/500 474/5/500 475/10/500
f 468/114/501 467/269/501 6/8/501 478/12/501
f 461/354/502 460/355/502 475/10/502 2/14/502
f 469/351/503 468/114/503 478/12/503 7/16/503
f 462/353/504 461/354/504 2/14/504 476/18/504
f 470/116/505 469/351/505 7/16/505 479/20/505
f 463/352/506 462/104/506 476/23/506 3/22/506
f 471/354/507 470/353/507 479/18/507 480/26/507
f 464/108/508 463/352/508 3/22/508 477/27/508
f 472/355/509 471/354/509 480/26/509 481/10/509
f 465/276/510 464/108/510 477/27/510 4/2/510
f 473/356/511 472/355/511 481/10/511 482/5/511
f 466/277/512 465/276/512 4/2/512 5/1/512
o Cube
v -1.000000 -0.072753 1.000000
v -1.000000 5.063863 1.000000
v -1.000000 -0.072753 -1.000000
v -1.000000 5.063863 -1.000000
v 1.000000 -0.072753 1.000000
v 1.000000 5.063863 1.000000
v 1.000000 -0.072753 -1.000000
v 1.000000 5.063863 -1.000000
vn -1.0000 -0.0000 -0.0000
vn -0.0000 -0.0000 -1.0000
vn 1.0000 -0.0000 -0.0000
vn -0.0000 -0.0000 1.0000
vn -0.0000 -1.0000 -0.0000
vn -0.0000 1.0000 -0.0000
vt 0.000000 0.000000
vt 0.000000 1.000000
vt 1.000000 1.000000
vt 1.000000 0.000000
s 0
usemtl Material.001
f 483/357/513 484/358/513 486/359/513 485/360/513
f 485/357/514 486/358/514 490/359/514 489/360/514
f 489/360/515 490/359/515 488/358/515 487/357/515
f 487/360/516 488/359/516 484/358/516 483/357/516
f 485/358/517 489/359/517 487/360/517 483/357/517
f 490/359/518 486/358/518 484/357/518 488/360/518
