# Blender 5.0.1
# www.blender.org
o polySurface2_aiStandardSurface1_0.002
v -0.074745 0.024080 0.017398
v -0.066361 0.047003 -0.012364
v -0.058311 0.022513 -0.004609
v -0.012533 0.047814 0.027774
v -0.033639 0.036149 0.012844
v -0.050072 0.037717 0.034851
v -0.059837 0.008980 -0.045759
v -0.038731 0.020645 -0.030829
v -0.022298 0.019078 -0.052836
v -0.041688 0.060639 0.005089
v -0.049297 0.052791 -0.041009
v 0.007047 0.045947 0.001553
v 0.002375 0.032715 -0.035383
v -0.014058 0.034282 -0.013376
v -0.024624 0.066428 -0.023556
v -0.025726 0.069779 -0.024617
v -0.079417 0.010848 -0.019538
v -0.024481 -0.008887 -0.030524
v -0.036406 -0.012092 -0.028268
v -0.050503 -0.019417 -0.036767
v -0.012964 -0.009319 -0.043843
v -0.089983 0.042993 -0.029718
v -0.067534 0.046061 -0.009970
v -0.078791 0.030529 0.018080
v -0.069678 0.047319 -0.007922
v -0.083513 0.038053 0.018875
v -0.070403 0.041126 -0.055939
v -0.058840 0.051689 0.036329
v -0.076744 0.080223 0.039346
v -0.101417 0.066586 0.021893
v -0.086603 0.074526 -0.005253
v -0.040738 0.009319 0.043843
v -0.003199 0.019417 0.036767
v -0.069979 0.058010 -0.015849
v -0.091085 0.046345 -0.030779
v -0.071505 0.044477 -0.057000
v -0.085569 0.086566 0.023245
v -0.091738 0.083157 0.018882
v -0.088034 0.085142 0.012096
v 0.011709 0.004317 -0.026390
v 0.002284 0.005906 -0.011590
v -0.017249 0.012088 0.028206
v 0.003713 0.010089 0.000134
v 0.016381 0.017550 0.010546
v -0.042861 0.059698 0.007484
v -0.054118 0.044166 0.035533
v -0.045005 0.060956 0.009531
v -0.081866 0.088551 0.016459
v -0.061930 0.088163 0.012200
v -0.045306 0.071646 0.001604
v -0.083980 0.100606 -0.029338
v -0.105086 0.088941 -0.044268
v -0.085506 0.087073 -0.070489
v -0.050399 0.056142 -0.042070
v -0.047368 0.051324 -0.042591
v -0.023362 0.026985 -0.057510
v -0.012813 0.053518 0.027159
v -0.043126 0.072135 0.003197
v -0.013095 0.059260 0.026539
v -0.041071 0.074678 0.004550
v -0.046551 0.051405 -0.043809
v -0.024437 0.034979 -0.062236
v 0.006767 0.051651 0.000938
v 0.001311 0.040622 -0.040057
v -0.059307 0.114242 -0.011885
v 0.006485 0.057393 0.000318
v -0.022695 0.064961 -0.025138
v -0.064400 0.098738 -0.055559
v -0.021878 0.065042 -0.026356
v -0.023546 0.070267 -0.023024
v -0.087469 0.104405 -0.047580
v -0.092745 0.101489 -0.051312
v 0.000236 0.048615 -0.044783
v -0.087850 0.101022 -0.057867
v -0.021491 0.072810 -0.021670
v -0.015564 0.109466 0.021120
v -0.040910 0.105612 0.002467
v -0.082574 0.103939 -0.054135
v -0.051575 0.087072 -0.064574
v -0.030379 0.079159 -0.088355
v -0.039727 0.112375 -0.038106
v -0.026902 0.100709 -0.047121
v -0.021330 0.103744 -0.023753
v 0.004016 0.107599 -0.005101
v -0.068641 0.142640 -0.020878
v -0.093314 0.129003 -0.038331
v -0.073734 0.127136 -0.064551
v -0.005706 0.092796 -0.070902
v -0.017643 0.117235 0.003649
v -0.023979 0.116271 -0.001014
v -0.019084 0.115804 -0.007570
v -0.035720 0.097717 -0.071684
v -0.030421 0.095739 -0.077630
v -0.072884 0.143925 -0.039503
v -0.079053 0.140516 -0.043867
v -0.074158 0.140049 -0.050422
v -0.029552 0.101126 -0.067321
v -0.049061 0.140772 -0.047098
v -0.012748 0.116768 -0.002906
v -0.067989 0.143458 -0.046058
v -0.024253 0.099148 -0.073266
v -0.029244 0.008874 0.030507
v -0.065411 -0.004317 0.026390
v -0.070083 -0.017550 -0.010546
v -0.057408 -0.010089 -0.000144
v -0.055914 -0.005866 0.011642
v -0.080827 0.066434 0.018641
v -0.030489 0.121853 0.018641
v -0.030489 0.066434 0.018641
v -0.030489 0.066434 0.128599
v -0.030489 0.066434 0.077904
v -0.080827 0.066434 0.077904
v 0.029488 0.066434 -0.032054
v 0.029488 0.066434 0.018641
v 0.079826 0.066434 0.018641
v -0.030489 0.121853 0.077904
v 0.029488 0.139177 0.018641
v 0.029488 0.066434 0.128599
v 0.079826 0.066434 0.077904
v 0.029488 0.066434 0.077904
v 0.029488 0.139177 0.077904
v 0.029488 0.146761 0.077904
v -0.030489 0.066434 -0.032054
v 0.047695 0.002173 0.016172
v 0.031693 0.002173 0.000076
v 0.029488 0.002173 -0.032054
v 0.079826 0.002173 0.018641
v -0.030489 0.139177 -0.032054
v -0.035178 0.119392 0.018641
v -0.086921 0.080598 0.018641
v -0.040649 0.121853 0.018641
v -0.094030 0.097123 0.018641
v 0.029488 0.139177 -0.032054
v -0.094030 0.097123 0.077904
v -0.120992 0.159792 0.077904
v -0.120992 0.159792 0.018641
v -0.065893 0.181642 0.018641
v -0.080827 0.002173 0.077904
v -0.030489 0.002173 0.128599
v -0.030489 0.146761 0.018641
v -0.030489 0.146761 -0.032054
v 0.029488 0.146761 -0.032054
v -0.107732 0.186653 0.055680
v -0.107732 0.186653 0.040864
v -0.093957 0.192115 0.040864
v 0.079826 0.002173 0.077904
v 0.047695 0.002173 0.080462
v -0.032553 0.002173 0.096468
v 0.031659 0.002173 0.096468
v 0.029488 0.002173 0.128599
v -0.035178 0.119392 0.077904
v -0.086921 0.080598 0.077904
v -0.040649 0.121853 0.077904
v -0.093957 0.192115 0.055680
v -0.065892 0.181642 0.077904
v -0.030489 0.146761 0.077904
v -0.030489 0.243153 0.018641
v -0.030489 0.243153 -0.032054
v 0.029488 0.243153 -0.032054
v 0.029488 0.146761 0.018641
v 0.034065 0.136180 0.018641
v 0.084681 0.084669 0.018641
v -0.030489 0.077654 0.131840
v -0.030489 0.145389 0.082661
v -0.030489 0.088949 0.135102
v -0.030489 0.148084 0.088537
v 0.036733 0.136552 0.018641
v 0.089590 0.103104 0.018641
v 0.029488 0.077654 0.131840
v 0.084681 0.084669 0.077904
v -0.030489 0.243153 0.077904
v 0.029488 0.088949 0.135102
v 0.034065 0.136180 0.077904
v 0.029488 0.243153 0.018641
v 0.036733 0.136552 0.077904
v 0.029488 0.145389 0.082661
v -0.007998 0.263234 -0.000370
v -0.007998 0.263234 -0.013044
v 0.089590 0.103104 0.077904
v 0.006996 0.263234 -0.013044
v 0.029488 0.148084 0.088537
v -0.030489 0.187707 0.163629
v -0.030489 0.207153 0.109533
v 0.006996 0.263234 -0.000370
v 0.057919 0.218756 0.018641
v 0.116721 0.204993 0.018641
v 0.029488 0.243153 0.077904
v 0.057919 0.218756 0.077904
v 0.029488 0.207153 0.109533
v 0.029488 0.187707 0.163629
v -0.030489 0.307414 0.077904
v -0.030489 0.307414 0.018641
v 0.029488 0.307414 0.018641
v 0.116721 0.204992 0.077904
v -0.007998 0.213897 0.150136
v -0.007998 0.218758 0.136612
v 0.006996 0.218758 0.136612
v 0.084547 0.233148 0.040864
v 0.099247 0.229707 0.040864
v -0.007998 0.323479 0.055680
v -0.007998 0.323479 0.040864
v 0.006996 0.323479 0.040864
v 0.084547 0.233148 0.055680
v 0.029488 0.307414 0.077904
v 0.006996 0.213897 0.150136
v 0.006996 0.323479 0.055680
v 0.099247 0.229707 0.055680
v -0.048697 0.002173 0.080315
v -0.080827 0.002173 0.018641
v -0.030489 0.002173 -0.032054
v -0.032638 0.002173 0.000076
v -0.048697 0.002173 0.016257
v 0.010154 0.041883 -0.036630
v 0.043886 0.085559 -0.018271
v 0.036191 0.044573 -0.007579
v -0.025684 0.070042 0.045518
v 0.002843 0.058300 0.021038
v -0.023194 0.055610 -0.008013
v 0.095741 0.036036 0.002556
v 0.067214 0.047778 0.027036
v 0.093251 0.050468 0.056087
v 0.010538 0.099286 0.010346
v 0.077315 0.101577 0.013001
v 0.005339 0.073247 0.080132
v 0.059903 0.064195 0.084704
v 0.033866 0.061505 0.055653
v 0.043966 0.115304 0.041618
v 0.045019 0.120912 0.040155
v 0.064718 0.032831 -0.032058
v 0.069097 0.000654 0.048750
v 0.069878 -0.003930 0.031742
v 0.086818 -0.011490 0.014954
v 0.084328 0.002943 0.068485
v 0.074819 0.086630 -0.046093
v 0.041119 0.083489 -0.020502
v 0.008969 0.052033 -0.042880
v 0.038631 0.085016 -0.024134
v 0.007586 0.063874 -0.050171
v 0.105842 0.089835 -0.011479
v -0.025762 0.077601 -0.021554
v -0.031006 0.122508 -0.049205
v 0.002342 0.108781 -0.077822
v 0.033876 0.127885 -0.050238
v -0.032117 0.008084 0.004385
v -0.034607 0.022516 0.057916
v 0.047345 0.103980 -0.023076
v 0.075872 0.092238 -0.047556
v 0.106895 0.095444 -0.012942
v -0.007912 0.137935 -0.057466
v 0.000425 0.134503 -0.064620
v 0.008309 0.139279 -0.057724
v 0.050979 0.016669 0.097102
v 0.032921 0.015545 0.079794
v -0.017594 0.014963 0.041210
v 0.015619 0.018395 0.078268
v -0.003584 0.025721 0.092530
v 0.007771 0.097215 0.008115
v -0.024379 0.065759 -0.014263
v 0.005283 0.098743 0.004483
v -0.000028 0.142711 -0.050570
v 0.000528 0.141612 -0.021621
v 0.013997 0.117707 0.005541
v 0.060730 0.175269 -0.041674
v 0.089257 0.163527 -0.066153
v 0.120279 0.166732 -0.031539
v 0.078368 0.107186 0.011538
v 0.079266 0.099605 0.016221
v 0.098294 0.064214 0.055371
v -0.025950 0.079090 0.044918
v 0.011129 0.117795 0.008103
v -0.026217 0.088199 0.044315
v 0.008197 0.121148 0.010420
v 0.080698 0.100023 0.017689
v 0.103393 0.078110 0.054647
v 0.005073 0.082296 0.079533
v 0.064946 0.077941 0.083988
v 0.027381 0.188996 -0.013056
v 0.004805 0.091405 0.078929
v 0.045918 0.113332 0.044838
v 0.091753 0.178474 -0.007059
v 0.047349 0.113749 0.046306
v 0.042152 0.121000 0.042717
v 0.085849 0.186920 -0.041747
v 0.092981 0.183984 -0.047867
v 0.070045 0.091837 0.083265
v 0.100737 0.184786 -0.039214
v 0.039220 0.124354 0.045035
v -0.028557 0.167846 0.039036
v 0.004584 0.169697 0.009162
v 0.093605 0.187721 -0.033094
v 0.103071 0.161951 0.014056
v 0.131575 0.154914 0.050648
v 0.058404 0.192201 0.021558
v 0.069723 0.175678 0.042673
v 0.035607 0.172903 0.043777
v 0.002466 0.171051 0.073650
v 0.036304 0.236522 -0.025455
v 0.069653 0.222795 -0.054072
v 0.100676 0.226000 -0.019457
v 0.098226 0.168641 0.079265
v -0.005694 0.185292 0.040448
v 0.002592 0.185755 0.032979
v 0.010347 0.186556 0.041633
v 0.106337 0.179165 0.037379
v 0.113463 0.177406 0.046526
v 0.062674 0.244458 -0.026305
v 0.071012 0.241026 -0.033459
v 0.078767 0.241827 -0.024806
v 0.098000 0.182597 0.044533
v 0.067327 0.239727 0.009160
v 0.002062 0.186093 0.049102
v 0.070430 0.245259 -0.017651
v 0.105126 0.180838 0.053681
v -0.016855 0.010359 0.024093
v 0.001231 -0.005643 -0.024232
v 0.055795 -0.014695 -0.019660
v 0.036603 -0.007367 -0.005385
v 0.019192 -0.004478 -0.006840
v -0.014268 0.040838 0.151384
v -0.052266 0.069327 0.145519
v -0.037807 0.036756 0.133755
v -0.006729 0.068166 0.084985
v -0.021057 0.053685 0.107470
v 0.002481 0.057767 0.125098
v -0.080181 0.017410 0.135236
v -0.065853 0.031892 0.112751
v -0.089391 0.027809 0.095123
v -0.035516 0.086256 0.119234
v -0.084832 0.074646 0.128193
v -0.034775 0.063302 0.063981
v -0.072641 0.044739 0.068837
v -0.049103 0.048821 0.086466
v -0.068082 0.091575 0.101908
v -0.070061 0.096032 0.103517
v -0.052135 0.022274 0.156240
v -0.058298 -0.008059 0.093829
v -0.055364 -0.011359 0.106572
v -0.063414 -0.020359 0.121595
v -0.072625 -0.009959 0.081482
v -0.071114 0.065028 0.171682
v -0.049431 0.068261 0.146639
v -0.015114 0.049657 0.156524
v -0.047515 0.070151 0.149077
v -0.016101 0.059946 0.162522
v -0.099160 0.060164 0.150678
v 0.000648 0.076875 0.136237
v -0.003095 0.115894 0.158982
v -0.019845 0.098965 0.185267
v -0.051311 0.107338 0.170609
v 0.019248 0.019998 0.111457
v 0.010037 0.030398 0.071344
v -0.058765 0.083967 0.150807
v -0.073093 0.069485 0.173292
v -0.101138 0.064621 0.152288
v -0.022585 0.124258 0.169897
v -0.026772 0.120025 0.176468
v -0.034639 0.122119 0.172804
v -0.055875 0.006970 0.055196
v -0.040128 0.010306 0.065314
v 0.001921 0.021386 0.086317
v -0.028105 0.016179 0.063830
v -0.018009 0.025534 0.050340
v -0.032682 0.085190 0.120354
v 0.001635 0.066586 0.130239
v -0.030765 0.087080 0.122792
v -0.030451 0.126351 0.166233
v -0.034561 0.124268 0.144324
v -0.042015 0.100896 0.124521
v -0.083914 0.140620 0.171269
v -0.098242 0.126138 0.193754
v -0.126288 0.121274 0.172750
v -0.086810 0.079103 0.129803
v -0.086190 0.072513 0.125954
v -0.096419 0.038133 0.097293
v -0.008741 0.075686 0.085929
v -0.040313 0.101449 0.122120
v -0.010765 0.083257 0.086880
v -0.039355 0.104711 0.120086
v -0.087535 0.072515 0.125098
v -0.103524 0.048570 0.099488
v -0.036786 0.070823 0.064925
v -0.079670 0.055062 0.071008
v -0.067165 0.157549 0.144983
v -0.038811 0.078393 0.065876
v -0.069441 0.089442 0.099668
v -0.111960 0.135756 0.150265
v -0.070785 0.089444 0.098813
v -0.068358 0.096585 0.101116
v -0.105044 0.145168 0.176087
v -0.108626 0.141548 0.181708
v -0.086775 0.065499 0.073202
v -0.115637 0.140332 0.176457
v -0.067401 0.099847 0.099082
v -0.028470 0.149450 0.095191
v -0.048833 0.145426 0.123313
v -0.112055 0.143952 0.170836
v -0.118890 0.119112 0.135129
v -0.142795 0.106253 0.111615
v -0.095210 0.152685 0.123979
v -0.102140 0.136041 0.108844
v -0.076878 0.140562 0.102309
v -0.056515 0.144586 0.074187
v -0.083931 0.195318 0.158624
v -0.100680 0.178389 0.184910
v -0.128726 0.173525 0.163906
v -0.126045 0.123183 0.085330
v -0.049634 0.159164 0.098859
v -0.054724 0.158158 0.105889
v -0.061736 0.156942 0.100638
v -0.128815 0.131759 0.119002
v -0.134791 0.128545 0.113124
v -0.104921 0.196588 0.164015
v -0.109108 0.192355 0.170587
v -0.116120 0.191139 0.165336
v -0.124627 0.135991 0.112431
v -0.111977 0.190454 0.137620
v -0.056645 0.157948 0.093608
v -0.111932 0.195372 0.158764
v -0.130603 0.132777 0.106552
v 0.004905 0.018081 0.099135
v 0.002498 0.003069 0.137742
v -0.035368 -0.015495 0.142599
v -0.025283 -0.006142 0.129100
v -0.013200 -0.000218 0.127547
v 0.058430 0.019150 0.070247
v 0.066371 0.037850 0.094189
v 0.057387 0.017872 0.092629
v 0.011652 0.038513 0.091676
v 0.032738 0.028996 0.092115
v 0.033781 0.030275 0.069734
v 0.077230 0.006832 0.119735
v 0.056144 0.016349 0.119296
v 0.055101 0.015070 0.141677
v 0.041722 0.048975 0.093675
v 0.067937 0.042572 0.121344
v 0.010409 0.036989 0.118343
v 0.030452 0.026194 0.141164
v 0.031495 0.027473 0.118782
v 0.043287 0.053697 0.120830
v 0.044517 0.056431 0.121044
v 0.078473 0.008356 0.093068
v 0.046376 -0.007744 0.125604
v 0.053402 -0.010359 0.118628
v 0.066812 -0.016334 0.117926
v 0.044683 -0.008096 0.139868
v 0.090265 0.034580 0.095116
v 0.066069 0.037082 0.092034
v 0.060853 0.024411 0.067936
v 0.066582 0.038108 0.089671
v 0.063679 0.030549 0.065241
v 0.089022 0.033056 0.121783
v 0.039030 0.041674 0.064727
v 0.049748 0.064951 0.054503
v 0.074397 0.053826 0.055017
v 0.076797 0.060303 0.080131
v 0.023364 0.007109 0.067925
v 0.001235 0.015346 0.089867
v 0.070409 0.046830 0.094890
v 0.091495 0.037314 0.095329
v 0.090252 0.035790 0.121996
v 0.063071 0.070126 0.061348
v 0.069233 0.067344 0.061476
v 0.069833 0.068964 0.067754
v 0.020034 0.003028 0.139355
v 0.019636 0.004325 0.125047
v 0.014642 0.009367 0.089228
v 0.013311 0.007736 0.117778
v -0.000008 0.013823 0.116534
v 0.041420 0.048207 0.091521
v 0.036204 0.035536 0.067423
v 0.041932 0.049233 0.089158
v 0.063671 0.071745 0.067626
v 0.052148 0.071428 0.079617
v 0.045760 0.057954 0.094376
v 0.086035 0.081579 0.097603
v 0.107121 0.072063 0.098042
v 0.105878 0.070539 0.124710
v 0.069166 0.045306 0.121557
v 0.067356 0.041376 0.123295
v 0.057956 0.021520 0.144350
v 0.012123 0.043166 0.091964
v 0.043559 0.058353 0.094297
v 0.012597 0.047850 0.092253
v 0.041552 0.060427 0.094321
v 0.067361 0.041442 0.124491
v 0.060843 0.028042 0.147051
v 0.010880 0.041642 0.118631
v 0.033307 0.032645 0.143836
v 0.061386 0.092704 0.097090
v 0.011354 0.046327 0.118921
v 0.042707 0.052500 0.122781
v 0.084792 0.080056 0.124271
v 0.042712 0.052566 0.123978
v 0.042316 0.056829 0.120964
v 0.096732 0.084679 0.108333
v 0.102003 0.082300 0.108443
v 0.036194 0.039166 0.146538
v 0.101692 0.081919 0.115110
v 0.040309 0.058904 0.120989
v 0.016742 0.088807 0.094786
v 0.042395 0.085663 0.095802
v 0.096421 0.084298 0.115000
v 0.080248 0.070539 0.136225
v 0.076798 0.064083 0.161982
v 0.060143 0.091180 0.123757
v 0.055599 0.081663 0.135712
v 0.041152 0.084139 0.122470
v 0.015499 0.087284 0.121454
v 0.071804 0.115870 0.098899
v 0.096453 0.104745 0.099412
v 0.095210 0.103222 0.126079
v 0.052149 0.075208 0.161469
v 0.026134 0.095145 0.105641
v 0.032547 0.094359 0.105895
v 0.032236 0.093978 0.112562
v 0.072786 0.079222 0.148277
v 0.071923 0.077608 0.154716
v 0.083185 0.116918 0.109544
v 0.089348 0.114137 0.109672
v 0.089037 0.113756 0.116339
v 0.066624 0.082003 0.148149
v 0.070561 0.114346 0.125566
v 0.025823 0.094764 0.112307
v 0.082875 0.116538 0.116211
v 0.065761 0.080390 0.154588
v 0.021695 0.006745 0.082190
v 0.048013 -0.004016 0.068438
v 0.068055 -0.014810 0.091259
v 0.054736 -0.008725 0.090025
v 0.048338 -0.005279 0.082745
vn -0.7441 -0.4113 -0.5264
vn -0.2990 0.9097 -0.2881
vn 0.7441 0.4113 0.5264
vn 0.5974 -0.0570 -0.8000
vn 0.2990 -0.9097 0.2881
vn 0.9469 0.2455 -0.2077
vn -0.5974 0.0570 0.7999
vn 0.4113 0.3389 -0.8462
vn 0.8005 0.1031 0.5904
vn -0.4074 -0.3451 0.8455
vn -0.0957 0.8455 -0.5253
vn 0.0874 0.9422 0.3233
vn -0.5974 0.0570 0.8000
vn 0.0893 0.3272 0.9407
vn -0.0893 -0.3272 -0.9407
vn 0.5974 -0.0570 -0.7999
vn -0.1711 0.8790 -0.4450
vn -0.0637 0.9909 -0.1182
vn -0.0559 0.8236 -0.5645
vn -0.1094 0.9824 -0.1516
vn 0.3266 0.9449 -0.0233
vn -0.8395 0.4300 -0.3323
vn 0.6580 -0.3156 -0.6836
vn 0.4585 0.4018 0.7927
vn -0.5531 0.6930 -0.4624
vn 0.7440 0.4116 0.5263
vn -0.6570 0.3081 0.6881
vn 0.1026 0.5823 -0.8064
vn 0.2031 0.6114 -0.7648
vn 0.2030 0.6114 -0.7648
vn -0.4242 0.8076 0.4096
vn 0.2826 0.9484 0.1435
vn 0.1371 0.6772 -0.7229
vn -0.6489 0.5519 -0.5238
vn -0.6056 0.7480 0.2716
vn -0.5235 0.8485 0.0771
vn -0.4806 0.8769 -0.0058
vn 0.3249 0.7362 -0.5937
vn 0.4874 0.8179 0.3057
vn -0.5398 0.7092 -0.4536
vn -0.7234 0.3924 -0.5681
vn 0.1423 0.9892 0.0358
vn -0.6674 0.4915 0.5595
vn 0.0677 0.7375 -0.6720
vn 0.2813 0.5217 -0.8054
vn -0.5282 0.8447 0.0867
vn -0.5952 0.4354 -0.6754
vn -0.5726 0.7985 0.1856
vn -0.3701 0.9098 -0.1877
vn -0.8020 -0.0360 -0.5963
vn -0.9469 -0.2455 0.2077
vn -0.0000 -0.0000 -1.0000
vn -0.0000 1.0000 -0.0000
vn -0.0000 -0.0000 1.0000
vn 1.0000 -0.0000 -0.0000
vn -0.0000 -1.0000 -0.0000
vn 0.7096 -0.0000 0.7046
vn -1.0000 -0.0000 -0.0000
vn 0.9213 0.3890 -0.0000
vn -0.0000 -0.2775 0.9607
vn -0.9186 -0.3952 -0.0000
vn 0.3496 0.9369 -0.0000
vn -0.2735 0.6897 0.6704
vn -0.7096 -0.0000 0.7046
vn 0.7096 -0.0000 -0.7046
vn 0.2279 0.9737 -0.0000
vn -0.0000 0.9410 0.3383
vn 0.4102 0.9120 -0.0000
vn -0.0000 0.9609 0.2770
vn 0.1691 0.7224 0.6704
vn -0.2735 0.6897 -0.6704
vn 0.9663 -0.2573 -0.0000
vn -0.8330 0.5525 0.0294
vn 0.3886 0.7997 -0.4576
vn -0.0000 0.9090 -0.4168
vn -0.0000 0.0004 1.0000
vn -0.9684 0.2496 -0.0000
vn 0.7200 0.6840 -0.1173
vn 0.7513 0.6599 0.0112
vn 0.7512 0.6601 0.0037
vn -0.6660 0.7020 0.2523
vn -0.0000 0.6875 0.7262
vn 0.6660 0.7459 -0.0000
vn -0.0000 0.8104 -0.5858
vn -0.6660 0.7459 -0.0000
vn -0.4647 0.8855 -0.0000
vn -0.3686 0.9296 -0.0000
vn 0.6660 0.7020 0.2523
vn -0.0000 0.4580 0.8890
vn -0.0000 0.9191 -0.3939
vn -0.0000 0.6875 -0.7262
vn -0.0000 0.8104 0.5858
vn -0.8967 0.4426 -0.0000
vn 0.5812 0.8137 -0.0000
vn 0.8165 0.5773 -0.0000
vn -0.4755 0.8797 -0.0000
vn 0.1691 0.7224 -0.6704
vn -0.5812 0.8137 -0.0000
vn -0.1379 0.9904 -0.0000
vn -0.0000 0.3349 -0.9422
vn -0.7096 -0.0000 -0.7046
vn 0.7244 -0.2982 -0.6216
vn 0.1787 0.9520 -0.2484
vn -0.7244 0.2982 0.6216
vn 0.6658 0.0688 0.7429
vn -0.1787 -0.9520 0.2484
vn -0.0379 0.2589 0.9652
vn -0.6658 -0.0688 -0.7429
vn 0.6829 0.4337 0.5878
vn -0.7455 0.0223 0.6661
vn -0.6823 -0.4394 -0.5843
vn 0.4003 0.9160 0.0271
vn -0.5445 0.8377 0.0423
vn -0.9829 0.1613 -0.0892
vn 0.9829 -0.1613 0.0892
vn 0.3258 0.9427 -0.0725
vn -0.0768 0.9968 -0.0234
vn 0.4361 0.8965 0.0783
vn -0.0289 0.9974 -0.0664
vn -0.2439 0.8993 0.3630
vn 0.4268 0.4379 -0.7912
vn 0.5974 -0.1785 0.7818
vn -0.8234 0.5424 -0.1668
vn -0.2899 0.6081 -0.7390
vn -0.6030 0.6257 -0.4949
vn 0.4644 0.7411 -0.4849
vn -0.7243 0.2985 0.6215
vn -0.6002 0.1710 -0.7814
vn 0.6346 0.6713 0.3830
vn 0.3254 0.8769 0.3538
vn 0.6296 0.6734 0.3874
vn -0.5008 0.6977 -0.5123
vn -0.4032 0.8710 0.2807
vn 0.5768 0.7560 0.3095
vn 0.5692 0.5969 -0.5654
vn -0.3101 0.6643 -0.6801
vn -0.1511 0.8110 -0.5651
vn -0.0793 0.8596 -0.5047
vn 0.3861 0.7893 0.4773
vn -0.5621 0.7011 0.4388
vn 0.4496 0.7576 -0.4731
vn 0.6489 0.4380 -0.6221
vn -0.2795 0.9462 0.1629
vn -0.5179 0.3597 -0.7761
vn -0.7455 0.0222 0.6661
vn 0.5325 0.8147 0.2297
vn 0.6469 0.6058 0.4632
vn -0.1593 0.8048 -0.5717
vn 0.7274 0.4995 -0.4705
vn -0.2416 0.7347 -0.6339
vn 0.0852 0.9334 -0.3484
vn 0.7424 0.0379 -0.6689
vn 0.0379 -0.2589 -0.9652
vn -0.4722 -0.4773 0.7411
vn -0.3853 0.8679 0.3135
vn 0.4722 0.4773 -0.7411
vn -0.7928 -0.1375 -0.5938
vn 0.3853 -0.8679 -0.3135
vn -0.2364 0.2355 -0.9427
vn 0.7928 0.1375 0.5938
vn -0.8771 0.1705 -0.4491
vn 0.5529 0.2478 -0.7956
vn 0.8776 -0.1758 0.4460
vn -0.6664 0.7436 0.0543
vn 0.3184 0.9362 -0.1488
vn 0.8969 0.4321 -0.0939
vn -0.8969 -0.4321 0.0939
vn -0.5779 0.8025 0.1486
vn -0.1790 0.9838 0.0112
vn -0.7061 0.7081 0.0061
vn -0.2198 0.9731 0.0682
vn -0.0695 0.9033 -0.4233
vn -0.3497 0.2609 0.8998
vn -0.6853 -0.3300 -0.6492
vn 0.5523 -0.0747 0.8303
vn 0.5774 -0.0745 0.8131
vn 0.5649 -0.0746 0.8218
vn -0.5595 0.5506 0.6196
vn 0.4721 0.4776 -0.7410
vn 0.6892 0.3243 0.6480
vn -0.8649 0.4374 -0.2462
vn -0.6577 0.6969 -0.2860
vn -0.8601 0.4424 -0.2538
vn 0.4371 0.7902 0.4296
vn 0.1149 0.9230 -0.3672
vn -0.8366 0.5076 -0.2061
vn -0.5972 0.3696 0.7118
vn 0.2985 0.7045 0.6439
vn 0.0791 0.8144 0.5749
vn -0.0221 0.8469 0.5313
vn -0.6891 0.5948 -0.4139
vn 0.2701 0.7941 -0.5445
vn -0.5527 0.5727 0.6054
vn -0.6094 0.1909 0.7695
vn 0.0007 0.9740 -0.2265
vn 0.5762 0.4691 0.6693
vn -0.8007 0.5839 -0.1341
vn -0.8771 0.3380 -0.3412
vn 0.0907 0.8100 0.5794
vn -0.7420 0.2236 0.6320
vn 0.2048 0.7583 0.6189
vn -0.2553 0.8787 0.4033
vn -0.5660 -0.1952 0.8010
vn 0.2364 -0.2355 0.9427
vn 0.9113 -0.4113 0.0190
vn 0.4091 0.9097 0.0710
vn -0.9113 0.4113 -0.0190
vn -0.0465 -0.0570 0.9973
vn -0.4091 -0.9097 -0.0710
vn -0.6679 0.2455 0.7027
vn 0.0465 0.0570 -0.9973
vn 0.1335 0.3389 0.9313
vn -0.9939 0.1031 -0.0404
vn -0.1364 -0.3451 -0.9286
vn 0.3736 0.8455 0.3814
vn -0.2536 0.9422 -0.2188
vn -0.6011 0.3272 -0.7291
vn 0.6011 -0.3272 0.7291
vn 0.3910 0.8790 0.2727
vn 0.1190 0.9909 0.0622
vn 0.3626 0.8236 0.4362
vn 0.1756 0.9824 0.0643
vn -0.2574 0.9449 0.2023
vn 0.8815 0.4300 -0.1951
vn -0.1619 -0.3156 0.9350
vn -0.7329 -0.0435 -0.6789
vn -0.9377 -0.3466 0.0231
vn -0.9090 -0.2115 -0.3591
vn 0.7172 0.6930 0.0730
vn -0.9112 0.4116 -0.0190
vn 0.1586 0.3081 -0.9381
vn 0.2750 0.5860 0.7622
vn 0.0881 0.8387 0.5375
vn 0.2766 0.5853 0.7622
vn 0.1218 0.8076 -0.5770
vn 0.1219 0.8076 -0.5770
vn -0.3145 0.9484 0.0395
vn 0.2915 0.6772 0.6756
vn 0.8310 0.5519 0.0703
vn 0.3493 0.7480 -0.5643
vn 0.3904 0.8485 -0.3572
vn 0.4013 0.8769 -0.2645
vn 0.0635 0.7362 0.6738
vn -0.5750 0.8179 0.0199
vn 0.7012 0.7092 0.0732
vn 0.9175 0.3924 0.0652
vn -0.1380 0.9892 0.0501
vn 0.2393 0.4915 -0.8374
vn 0.3204 0.7375 0.5945
vn 0.2183 0.5217 0.8247
vn 0.3889 0.8447 -0.3678
vn 0.8714 0.4354 0.2258
vn 0.3703 0.7985 -0.4746
vn 0.4117 0.9098 -0.0520
vn 0.9984 -0.0360 0.0445
vn 0.6679 -0.2455 -0.7027
vn 0.2133 0.6175 -0.7571
vn -0.1117 0.6345 -0.7648
vn 0.2814 0.5217 -0.8054
vn -0.3701 0.9098 -0.1876
vn 0.7512 0.6598 0.0202
vn 0.5431 0.8044 -0.2408
vn 0.5153 0.7353 0.4403
vn 0.6226 0.6766 0.3932
vn 0.6489 0.4380 -0.6222
vn 0.0852 0.9335 -0.3484
vn -0.5778 0.8025 0.1486
vn -0.7899 0.5224 -0.3212
vn -0.8579 0.4448 -0.2571
vn 0.2701 0.7940 -0.5445
vn 0.1529 0.6742 0.7225
vn 0.2613 0.5931 0.7615
vt 0.661594 0.777344
vt 0.679585 0.770118
vt 0.672031 0.780095
vt 0.865884 0.949123
vt 0.857538 0.942640
vt 0.865884 0.932643
vt 0.731399 0.935272
vt 0.739745 0.941755
vt 0.731399 0.951752
vt 0.267699 0.869756
vt 0.256963 0.870305
vt 0.251878 0.858577
vt 0.516841 0.712435
vt 0.518471 0.696090
vt 0.527181 0.709339
vt 0.935614 0.406288
vt 0.935614 0.389231
vt 0.943677 0.399457
vt 0.780885 0.369047
vt 0.771819 0.363269
vt 0.784373 0.352634
vt 0.253104 0.859047
vt 0.267699 0.866692
vt 0.371003 0.503592
vt 0.382182 0.519735
vt 0.371003 0.521672
vt 0.944659 0.344829
vt 0.936595 0.334603
vt 0.944659 0.327772
vt 0.262238 0.647031
vt 0.273640 0.642796
vt 0.279629 0.648572
vt 0.616880 0.243290
vt 0.633198 0.225455
vt 0.635042 0.240162
vt 0.608450 0.599746
vt 0.619897 0.603481
vt 0.608450 0.605923
vt 0.662261 0.774461
vt 0.677479 0.769562
vt 0.678278 0.770304
vt 0.789836 0.562225
vt 0.777839 0.572559
vt 0.777839 0.557737
vt 0.451147 0.888791
vt 0.437891 0.905117
vt 0.437891 0.888337
vt 0.613418 0.354092
vt 0.601525 0.360698
vt 0.601525 0.358986
vt 0.608450 0.575841
vt 0.595068 0.597578
vt 0.595068 0.573673
vt 0.646002 0.222543
vt 0.633369 0.222528
vt 0.633541 0.219582
vt 0.257033 0.629916
vt 0.268125 0.642282
vt 0.189245 0.612263
vt 0.174401 0.629319
vt 0.175699 0.611734
vt 0.156238 0.925678
vt 0.159324 0.921691
vt 0.159324 0.925570
vt 0.187605 0.634484
vt 0.173766 0.637930
vt 0.174059 0.633955
vt 0.537865 0.675936
vt 0.519901 0.696234
vt 0.526095 0.676460
vt 0.613111 0.499467
vt 0.627529 0.511747
vt 0.614765 0.515353
vt 0.354501 0.905027
vt 0.358659 0.896179
vt 0.357477 0.904202
vt 0.354501 0.908635
vt 0.346754 0.899477
vt 0.619897 0.621521
vt 0.608450 0.619667
vt 0.289794 0.621195
vt 0.273551 0.614398
vt 0.279434 0.609644
vt 0.254045 0.858466
vt 0.158170 0.657324
vt 0.175699 0.653749
vt 0.613418 0.372231
vt 0.601525 0.377125
vt 0.596723 0.516040
vt 0.595068 0.500154
vt 0.647504 0.196781
vt 0.635042 0.193820
vt 0.371003 0.501707
vt 0.357934 0.505856
vt 0.357934 0.503972
vt 0.918054 0.879245
vt 0.914981 0.882805
vt 0.914981 0.878931
vt 0.665992 0.758342
vt 0.663040 0.771097
vt 0.520696 0.899534
vt 0.524262 0.903362
vt 0.520696 0.903413
vt 0.979152 0.206174
vt 0.977699 0.194148
vt 0.979152 0.193820
vt 0.257015 0.624209
vt 0.251878 0.635481
vt 0.251878 0.617634
vt 0.968677 0.888810
vt 0.967475 0.873315
vt 0.968677 0.873294
vt 0.918054 0.883119
vt 0.925778 0.873337
vt 0.925778 0.888831
vt 0.619897 0.577695
vt 0.670754 0.750275
vt 0.680395 0.757419
vt 0.626093 0.491585
vt 0.613328 0.495191
vt 0.448537 0.782445
vt 0.437891 0.777847
vt 0.453409 0.763129
vt 0.208123 0.935833
vt 0.208123 0.915869
vt 0.208123 0.922059
vt 0.168995 0.871159
vt 0.156875 0.874172
vt 0.156238 0.872778
vt 0.647504 0.243123
vt 0.267699 0.849561
vt 0.267699 0.863117
vt 0.783405 0.352785
vt 0.771819 0.358597
vt 0.452327 0.763028
vt 0.437891 0.774855
vt 0.613418 0.332325
vt 0.601525 0.337219
vt 0.383617 0.513891
vt 0.372052 0.501867
vt 0.373348 0.500972
vt 0.782942 0.352395
vt 0.771819 0.353874
vt 0.357934 0.480014
vt 0.346754 0.505908
vt 0.346754 0.481951
vt 0.866638 0.259654
vt 0.879584 0.282870
vt 0.866638 0.278850
vt 0.626313 0.487262
vt 0.613549 0.490868
vt 0.094109 0.962281
vt 0.095339 0.974217
vt 0.094109 0.974635
vt 0.346754 0.507793
vt 0.627529 0.463367
vt 0.614765 0.466973
vt 0.524262 0.899483
vt 0.516841 0.894029
vt 0.531103 0.893825
vt 0.936425 0.563495
vt 0.933785 0.567467
vt 0.933785 0.563588
vt 0.943476 0.573253
vt 0.936425 0.567374
vt 0.437891 0.771843
vt 0.451257 0.761847
vt 0.519344 0.696482
vt 0.347891 0.474839
vt 0.357934 0.523936
vt 0.346754 0.525873
vt 0.771819 0.327772
vt 0.451648 0.826461
vt 0.444833 0.833221
vt 0.448433 0.826462
vt 0.602818 0.329003
vt 0.593079 0.332296
vt 0.600706 0.327772
vt 0.357934 0.464043
vt 0.371003 0.477750
vt 0.389908 0.488256
vt 0.377978 0.485489
vt 0.675187 0.759569
vt 0.673879 0.759756
vt 0.437891 0.745508
vt 0.516841 0.909545
vt 0.531103 0.909341
vt 0.161864 0.849762
vt 0.156875 0.857021
vt 0.158674 0.850167
vt 0.605791 0.327779
vt 0.166426 0.931385
vt 0.661594 0.747793
vt 0.669654 0.747638
vt 0.645831 0.225489
vt 0.457693 0.833221
vt 0.439311 0.846641
vt 0.363047 0.457240
vt 0.359780 0.457806
vt 0.595068 0.603755
vt 0.619634 0.457778
vt 0.616443 0.458679
vt 0.187947 0.629847
vt 0.528417 0.669073
vt 0.516841 0.669753
vt 0.526103 0.667397
vt 0.437891 0.824142
vt 0.446697 0.824192
vt 0.262043 0.608103
vt 0.093425 0.962200
vt 0.093425 0.974554
vt 0.608450 0.559904
vt 0.595068 0.557737
vt 0.169633 0.855401
vt 0.789836 0.577047
vt 0.777839 0.594793
vt 0.187312 0.638458
vt 0.613418 0.386742
vt 0.268002 0.613907
vt 0.284667 0.632457
vt 0.284664 0.626787
vt 0.583097 0.390820
vt 0.583097 0.376309
vt 0.528587 0.704943
vt 0.156238 0.559875
vt 0.187997 0.543003
vt 0.177789 0.570038
vt 0.363525 0.785771
vt 0.346754 0.768412
vt 0.363525 0.752088
vt 0.595068 0.750320
vt 0.611839 0.767678
vt 0.595068 0.784003
vt 0.475144 0.522257
vt 0.453643 0.532446
vt 0.443459 0.505427
vt 0.447932 0.416081
vt 0.438882 0.379245
vt 0.471450 0.412254
vt 0.533674 0.754132
vt 0.533674 0.787690
vt 0.516841 0.771430
vt 0.530917 0.100046
vt 0.507423 0.096284
vt 0.539957 0.063239
vt 0.445914 0.505678
vt 0.475144 0.514119
vt 0.076522 0.106663
vt 0.102995 0.143768
vt 0.078886 0.143768
vt 0.275282 0.803841
vt 0.251878 0.803841
vt 0.251968 0.779705
vt 0.041006 0.405486
vt 0.063190 0.395233
vt 0.074842 0.405075
vt 0.304866 0.317096
vt 0.280185 0.279630
vt 0.305057 0.284252
vt 0.280003 0.111443
vt 0.304061 0.113812
vt 0.280003 0.124057
vt 0.156238 0.551735
vt 0.183647 0.540952
vt 0.185536 0.543256
vt 0.513147 0.330097
vt 0.541400 0.361254
vt 0.513147 0.363578
vt 0.759038 0.111979
vt 0.730888 0.139680
vt 0.730888 0.110594
vt 0.185710 0.082664
vt 0.157409 0.084361
vt 0.157409 0.080407
vt 0.251878 0.064347
vt 0.251878 0.113163
vt 0.156542 0.268756
vt 0.184854 0.272604
vt 0.156576 0.274613
vt 0.052458 0.395316
vt 0.020848 0.385496
vt 0.030878 0.373913
vt 0.346754 0.209360
vt 0.375096 0.237553
vt 0.346957 0.239012
vt 0.744080 0.742281
vt 0.751051 0.749309
vt 0.744080 0.749335
vt 0.347010 0.246831
vt 0.375196 0.252074
vt 0.347056 0.253532
vt 0.471450 0.339285
vt 0.442594 0.380023
vt 0.442265 0.336785
vt 0.251878 0.310519
vt 0.279994 0.312475
vt 0.107923 0.781143
vt 0.093425 0.763984
vt 0.107923 0.774089
vt 0.465114 0.457778
vt 0.447594 0.469112
vt 0.458226 0.457902
vt 0.304061 0.150652
vt 0.280003 0.152123
vt 0.094620 0.351014
vt 0.063017 0.341202
vt 0.074462 0.331023
vt 0.447799 0.503371
vt 0.209808 0.309789
vt 0.184888 0.278422
vt 0.210181 0.276310
vt 0.185710 0.086619
vt 0.157409 0.122293
vt 0.210181 0.127324
vt 0.185710 0.158059
vt 0.185710 0.124550
vt 0.156238 0.217544
vt 0.184819 0.266747
vt 0.076275 0.102795
vt 0.048338 0.106663
vt 0.048091 0.102795
vt 0.748252 0.671475
vt 0.741200 0.678628
vt 0.741200 0.671315
vt 0.156238 0.506223
vt 0.156238 0.542238
vt 0.745627 0.036717
vt 0.752262 0.030443
vt 0.752262 0.037415
vt 0.025572 0.914106
vt 0.022688 0.886000
vt 0.025572 0.885890
vt 0.030842 0.363056
vt 0.020848 0.351529
vt 0.889399 0.558099
vt 0.887079 0.585786
vt 0.887079 0.557901
vt 0.748252 0.678788
vt 0.759608 0.661343
vt 0.759608 0.690594
vt 0.280003 0.062626
vt 0.304061 0.109972
vt 0.173925 0.496385
vt 0.167021 0.496268
vt 0.280160 0.270026
vt 0.252069 0.277675
vt 0.252044 0.268070
vt 0.044435 0.528885
vt 0.020848 0.523919
vt 0.055230 0.489663
vt 0.438882 0.493283
vt 0.892088 0.585622
vt 0.892088 0.557737
vt 0.156611 0.280431
vt 0.184515 0.311902
vt 0.156238 0.313911
vt 0.475144 0.468612
vt 0.475144 0.504623
vt 0.537448 0.064413
vt 0.507423 0.086695
vt 0.052832 0.489867
vt 0.020848 0.518124
vt 0.185710 0.032401
vt 0.157409 0.030144
vt 0.105356 0.132284
vt 0.078582 0.103494
vt 0.081289 0.102120
vt 0.536249 0.064026
vt 0.507423 0.077000
vt 0.044958 0.053627
vt 0.023982 0.102795
vt 0.020848 0.053627
vt 0.661594 0.662666
vt 0.689703 0.703976
vt 0.661594 0.705941
vt 0.280134 0.260316
vt 0.252018 0.258360
vt 0.911345 0.732421
vt 0.913888 0.760507
vt 0.911345 0.760638
vt 0.024228 0.106663
vt 0.279994 0.206651
vt 0.251878 0.204695
vt 0.031493 0.448232
vt 0.048631 0.457077
vt 0.020848 0.461273
vt 0.824379 0.208020
vt 0.817408 0.202012
vt 0.824379 0.201986
vt 0.857914 0.748556
vt 0.868459 0.732291
vt 0.868459 0.760640
vt 0.020848 0.512289
vt 0.050460 0.487976
vt 0.441394 0.380414
vt 0.817408 0.208046
vt 0.804171 0.193820
vt 0.026593 0.143768
vt 0.507423 0.023419
vt 0.759284 0.732291
vt 0.751051 0.742255
vt 0.289424 0.050162
vt 0.304061 0.061155
vt 0.071052 0.020848
vt 0.042869 0.020848
vt 0.073142 0.053627
vt 0.115713 0.081909
vt 0.089354 0.071990
vt 0.020848 0.914124
vt 0.022688 0.914216
vt 0.113572 0.774288
vt 0.113572 0.781342
vt 0.733203 0.048734
vt 0.167409 0.203032
vt 0.184515 0.215535
vt 0.733203 0.020848
vt 0.745627 0.029746
vt 0.175367 0.021413
vt 0.168292 0.020848
vt 0.759284 0.760507
vt 0.731399 0.760612
vt 0.357677 0.194185
vt 0.374893 0.207901
vt 0.689191 0.112851
vt 0.660890 0.144102
vt 0.660890 0.110594
vt 0.731399 0.732395
vt 0.251878 0.125777
vt 0.269809 0.194309
vt 0.262780 0.193820
vt 0.375150 0.245372
vt 0.731399 0.660702
vt 0.460610 0.328397
vt 0.453314 0.327772
vt 0.262824 0.021278
vt 0.280003 0.030082
vt 0.251878 0.031802
vt 0.040626 0.331434
vt 0.910156 0.760627
vt 0.184559 0.701001
vt 0.156238 0.729459
vt 0.156238 0.699021
vt 0.541400 0.411476
vt 0.513147 0.413801
vt 0.374893 0.284617
vt 0.346754 0.286075
vt 0.157409 0.155801
vt 0.052220 0.341336
vt 0.094620 0.384981
vt 0.084645 0.373435
vt 0.084638 0.362644
vt 0.400196 0.246934
vt 0.471450 0.402651
vt 0.660891 0.064180
vt 0.679541 0.047380
vt 0.673546 0.068897
vt 0.882976 0.193820
vt 0.884165 0.212368
vt 0.866076 0.212368
vt 0.864645 0.039435
vt 0.864645 0.020848
vt 0.882697 0.022006
vt 0.535785 0.621372
vt 0.522929 0.625700
vt 0.516841 0.604267
vt 0.660290 0.396541
vt 0.655115 0.367683
vt 0.673738 0.395295
vt 0.870080 0.659278
vt 0.870080 0.686030
vt 0.857539 0.672995
vt 0.675044 0.619005
vt 0.661594 0.617247
vt 0.680219 0.590220
vt 0.518309 0.604815
vt 0.535785 0.615370
vt 0.050380 0.250446
vt 0.063995 0.273572
vt 0.050380 0.278544
vt 0.857539 0.804888
vt 0.870080 0.817923
vt 0.857539 0.831640
vt 0.441893 0.236849
vt 0.449352 0.219300
vt 0.449316 0.227603
vt 0.295109 0.439636
vt 0.271303 0.414635
vt 0.298042 0.414989
vt 0.362164 0.093785
vt 0.376199 0.101300
vt 0.362164 0.103471
vt 0.660891 0.058110
vt 0.676986 0.046428
vt 0.678096 0.047896
vt 0.096927 0.447958
vt 0.113070 0.473020
vt 0.096927 0.473794
vt 0.677107 0.020848
vt 0.691385 0.049617
vt 0.172272 0.395825
vt 0.156238 0.397515
vt 0.156238 0.394458
vt 0.362164 0.056301
vt 0.345758 0.088447
vt 0.345758 0.050963
vt 0.065742 0.264238
vt 0.080329 0.271498
vt 0.064866 0.268921
vt 0.441893 0.210674
vt 0.465461 0.202102
vt 0.549870 0.577941
vt 0.535785 0.608368
vt 0.535785 0.581813
vt 0.812951 0.030543
vt 0.807574 0.035630
vt 0.807574 0.030198
vt 0.549870 0.611499
vt 0.673738 0.339413
vt 0.657237 0.368545
vt 0.657049 0.335408
vt 0.254811 0.418525
vt 0.268370 0.439282
vt 0.251878 0.443172
vt 0.868430 0.123975
vt 0.879753 0.110594
vt 0.879753 0.132321
vt 0.530611 0.570184
vt 0.519313 0.578099
vt 0.376199 0.129588
vt 0.362164 0.125021
vt 0.473354 0.243442
vt 0.496957 0.234832
vt 0.481911 0.250896
vt 0.519435 0.603393
vt 0.463985 0.661605
vt 0.437891 0.686846
vt 0.438161 0.660798
vt 0.172272 0.398882
vt 0.156238 0.426834
vt 0.198327 0.428671
vt 0.172272 0.454102
vt 0.172272 0.428201
vt 0.073403 0.223295
vt 0.081205 0.266815
vt 0.034464 0.253329
vt 0.034464 0.256258
vt 0.807915 0.118906
vt 0.813344 0.124412
vt 0.807915 0.124594
vt 0.660891 0.024169
vt 0.660891 0.051027
vt 0.813496 0.271128
vt 0.818688 0.265993
vt 0.818688 0.271381
vt 0.955585 0.754019
vt 0.957843 0.732312
vt 0.957843 0.754039
vt 0.482195 0.193820
vt 0.473534 0.201822
vt 0.955284 0.654108
vt 0.953474 0.675611
vt 0.953474 0.654059
vt 0.822450 0.110594
vt 0.822450 0.133348
vt 0.376199 0.060867
vt 0.358203 0.838001
vt 0.361133 0.854482
vt 0.346754 0.844721
vt 0.254425 0.411176
vt 0.702117 0.252200
vt 0.689200 0.245061
vt 0.708029 0.221529
vt 0.911777 0.686030
vt 0.911777 0.653654
vt 0.911777 0.663693
vt 0.957298 0.675207
vt 0.957298 0.653654
vt 0.438161 0.703005
vt 0.463715 0.687652
vt 0.463985 0.703812
vt 0.678783 0.591246
vt 0.661594 0.609862
vt 0.706716 0.221382
vt 0.689200 0.240320
vt 0.172272 0.356975
vt 0.156238 0.355608
vt 0.051658 0.247581
vt 0.053236 0.245963
vt 0.678096 0.591006
vt 0.661594 0.602395
vt 0.020848 0.221069
vt 0.020848 0.258300
vt 0.037895 0.739483
vt 0.020848 0.770039
vt 0.020848 0.736821
vt 0.254035 0.403746
vt 0.270917 0.407286
vt 0.963113 0.804888
vt 0.961111 0.826638
vt 0.961111 0.804911
vt 0.020848 0.261230
vt 0.251878 0.362683
vt 0.270527 0.399856
vt 0.093425 0.844904
vt 0.104922 0.848841
vt 0.094355 0.848639
vt 0.522787 0.835857
vt 0.527424 0.840948
vt 0.522787 0.841246
vt 0.535389 0.829386
vt 0.535389 0.850939
vt 0.050380 0.247517
vt 0.689200 0.235548
vt 0.705417 0.219526
vt 0.656551 0.368758
vt 0.516841 0.852128
vt 0.034464 0.284355
vt 0.020848 0.289327
vt 0.661594 0.561130
vt 0.812951 0.035975
vt 0.801440 0.042576
vt 0.376541 0.050466
vt 0.373032 0.049324
vt 0.034464 0.191277
vt 0.050380 0.210286
vt 0.034464 0.216098
vt 0.058875 0.221089
vt 0.959228 0.754252
vt 0.864146 0.117993
vt 0.868430 0.118543
vt 0.689200 0.193820
vt 0.804171 0.281206
vt 0.093425 0.852571
vt 0.101204 0.864569
vt 0.804171 0.259654
vt 0.813496 0.265740
vt 0.380277 0.049879
vt 0.801440 0.020848
vt 0.822948 0.022228
vt 0.346754 0.827468
vt 0.358203 0.833688
vt 0.079458 0.276149
vt 0.677628 0.823158
vt 0.661594 0.847692
vt 0.661594 0.821791
vt 0.822948 0.043955
vt 0.345758 0.098133
vt 0.800734 0.134079
vt 0.549870 0.604496
vt 0.813344 0.118723
vt 0.672695 0.328773
vt 0.668523 0.327772
vt 0.361617 0.022183
vt 0.345758 0.025974
vt 0.357515 0.020848
vt 0.489493 0.226212
vt 0.496957 0.208657
vt 0.964024 0.804965
vt 0.963113 0.826616
vt 0.362164 0.031312
vt 0.611029 0.825699
vt 0.595068 0.852404
vt 0.595068 0.827758
vt 0.113070 0.511775
vt 0.096927 0.512549
vt 0.693800 0.474880
vt 0.671498 0.462313
vt 0.696072 0.457778
vt 0.156238 0.452735
vt 0.489491 0.217860
vt 0.465331 0.243698
vt 0.456655 0.251686
vt 0.696072 0.501489
vt 0.669226 0.479416
vt 0.673738 0.387941
vt 0.595068 0.705934
vt 0.615274 0.692278
vt 0.606432 0.708623
vt 0.911777 0.804888
vt 0.919414 0.814397
vt 0.911777 0.825248
vt 0.920436 0.478138
vt 0.912799 0.468628
vt 0.920436 0.457778
vt 0.756986 0.494656
vt 0.745591 0.494777
vt 0.740194 0.477020
vt 0.719517 0.382046
vt 0.715435 0.357997
vt 0.730123 0.377160
vt 0.914981 0.940417
vt 0.926700 0.930528
vt 0.926700 0.943797
vt 0.732189 0.612068
vt 0.721916 0.607137
vt 0.736142 0.588030
vt 0.741495 0.477797
vt 0.756986 0.490103
vt 0.380166 0.378546
vt 0.397186 0.391549
vt 0.385153 0.399120
vt 0.936003 0.209153
vt 0.925862 0.200596
vt 0.936003 0.193820
vt 0.031110 0.570582
vt 0.042724 0.577488
vt 0.037156 0.576956
vt 0.560015 0.259406
vt 0.538654 0.241161
vt 0.558049 0.237975
vt 0.267491 0.537981
vt 0.280847 0.544737
vt 0.267491 0.545401
vt 0.595953 0.701431
vt 0.612981 0.691735
vt 0.613823 0.692753
vt 0.113854 0.574392
vt 0.100822 0.592102
vt 0.100822 0.570582
vt 0.799111 0.466257
vt 0.815109 0.484387
vt 0.798683 0.486910
vt 0.452293 0.063909
vt 0.465726 0.062828
vt 0.452293 0.066452
vt 0.267491 0.509268
vt 0.251878 0.532724
vt 0.251878 0.504011
vt 0.571740 0.232382
vt 0.558231 0.233890
vt 0.558414 0.229778
vt 0.059125 0.584928
vt 0.053922 0.591145
vt 0.619194 0.024529
vt 0.601859 0.042726
vt 0.603136 0.020848
vt 0.892753 0.334391
vt 0.889328 0.337356
vt 0.889328 0.333403
vt 0.617581 0.052176
vt 0.601234 0.053440
vt 0.601523 0.048495
vt 0.730123 0.327772
vt 0.717109 0.358162
vt 0.716961 0.328929
vt 0.536560 0.509722
vt 0.553372 0.521786
vt 0.538108 0.528359
vt 0.802967 0.458408
vt 0.815538 0.463735
vt 0.603762 0.904310
vt 0.595068 0.894101
vt 0.603762 0.899953
vt 0.280847 0.566406
vt 0.267491 0.561909
vt 0.020848 0.601063
vt 0.037246 0.608498
vt 0.031307 0.613819
vt 0.742494 0.476995
vt 0.583555 0.075505
vt 0.603136 0.072488
vt 0.465726 0.087220
vt 0.452293 0.090845
vt 0.516841 0.509850
vt 0.518388 0.528487
vt 0.573340 0.196425
vt 0.560015 0.193820
vt 0.365580 0.385252
vt 0.366100 0.387397
vt 0.542711 0.457778
vt 0.540924 0.462024
vt 0.538895 0.459421
vt 0.600897 0.676254
vt 0.596984 0.696177
vt 0.870091 0.885700
vt 0.866154 0.882007
vt 0.870091 0.881652
vt 0.815538 0.485853
vt 0.799111 0.488376
vt 0.059125 0.604751
vt 0.053940 0.597484
vt 0.962133 0.473587
vt 0.963488 0.457943
vt 0.963488 0.473753
vt 0.893398 0.399517
vt 0.881200 0.395567
vt 0.893917 0.389231
vt 0.280847 0.513765
vt 0.605991 0.665546
vt 0.616822 0.672753
vt 0.536764 0.504964
vt 0.551824 0.503148
vt 0.263849 0.738008
vt 0.251878 0.730572
vt 0.269328 0.714716
vt 0.737768 0.469039
vt 0.801305 0.689004
vt 0.815842 0.689502
vt 0.801972 0.690594
vt 0.571375 0.240580
vt 0.573340 0.262011
vt 0.756986 0.464646
vt 0.756986 0.484791
vt 0.735045 0.588572
vt 0.721916 0.600636
vt 0.251878 0.726844
vt 0.268111 0.714416
vt 0.452293 0.031586
vt 0.465726 0.060285
vt 0.397186 0.384209
vt 0.380869 0.376079
vt 0.382079 0.374439
vt 0.734521 0.588188
vt 0.721916 0.594063
vt 0.346939 0.365561
vt 0.353547 0.392824
vt 0.815842 0.811999
vt 0.800981 0.827202
vt 0.800981 0.804888
vt 0.536970 0.500153
vt 0.552028 0.498390
vt 0.381047 0.379794
vt 0.354067 0.394969
vt 0.538108 0.473565
vt 0.552234 0.493579
vt 0.857538 0.890947
vt 0.857538 0.874756
vt 0.809115 0.884934
vt 0.812044 0.881827
vt 0.812044 0.885779
vt 0.800981 0.876010
vt 0.809115 0.880982
vt 0.379646 0.376401
vt 0.397186 0.387891
vt 0.251878 0.723090
vt 0.266907 0.712773
vt 0.716568 0.358543
vt 0.346754 0.355076
vt 0.358971 0.357990
vt 0.371087 0.407971
vt 0.359055 0.415543
vt 0.721916 0.557737
vt 0.827523 0.328678
vt 0.839503 0.333833
vt 0.826070 0.337457
vt 0.800981 0.891820
vt 0.354565 0.339815
vt 0.373037 0.349138
vt 0.397186 0.352017
vt 0.383013 0.354596
vt 0.346754 0.955609
vt 0.348330 0.969888
vt 0.346754 0.969866
vt 0.607323 0.900114
vt 0.251878 0.690269
vt 0.388867 0.344658
vt 0.385324 0.345303
vt 0.873285 0.873337
vt 0.804051 0.659551
vt 0.815842 0.665931
vt 0.801972 0.667024
vt 0.454264 0.021754
vt 0.465726 0.027962
vt 0.881200 0.327772
vt 0.595068 0.666938
vt 0.604533 0.663217
vt 0.571557 0.236495
vt 0.839503 0.355381
vt 0.826070 0.359006
vt 0.355419 0.329985
vt 0.368632 0.330963
vt 0.251878 0.540144
vt 0.553372 0.466991
vt 0.617917 0.046407
vt 0.890218 0.404665
vt 0.890218 0.401100
vt 0.529993 0.463153
vt 0.892753 0.338344
vt 0.881200 0.343582
vt 0.048864 0.615409
vt 0.975546 0.124851
vt 0.974812 0.110733
vt 0.975546 0.110594
vt 0.267491 0.490126
vt 0.251878 0.484869
vt 0.815175 0.687911
vt 0.113854 0.595913
vt 0.100822 0.624383
vt 0.617292 0.057120
vt 0.465726 0.108769
vt 0.042848 0.609004
vt 0.020848 0.581240
vt 0.026024 0.588517
vt 0.026027 0.594815
vt 0.432842 0.110799
vt 0.432842 0.089250
vt 0.730123 0.370661
vt 0.831532 0.583090
vt 0.845382 0.578533
vt 0.840930 0.588269
vt 0.527237 0.951242
vt 0.527552 0.962376
vt 0.516841 0.962376
vt 0.595383 0.964359
vt 0.595068 0.953224
vt 0.605779 0.953224
vt 0.871102 0.478432
vt 0.861692 0.483585
vt 0.857235 0.473765
vt 0.160270 0.808066
vt 0.156238 0.794604
vt 0.170751 0.805763
vt 0.445502 0.947268
vt 0.445502 0.962937
vt 0.437891 0.955401
vt 0.031332 0.844193
vt 0.020848 0.841914
vt 0.035367 0.830625
vt 0.858309 0.473721
vt 0.871102 0.475298
vt 0.371514 0.600723
vt 0.382929 0.613639
vt 0.371514 0.615058
vt 0.661594 0.950166
vt 0.669205 0.957703
vt 0.661594 0.965835
vt 0.590276 0.117865
vt 0.600036 0.122653
vt 0.595357 0.122434
vt 0.474288 0.617061
vt 0.463112 0.605714
vt 0.475144 0.604426
vt 0.360099 0.693145
vt 0.371514 0.696060
vt 0.360099 0.698052
vt 0.831532 0.579975
vt 0.843485 0.577487
vt 0.844309 0.578482
vt 0.731399 0.803265
vt 0.744147 0.814813
vt 0.731399 0.815770
vt 0.826070 0.414150
vt 0.838069 0.402448
vt 0.838069 0.415895
vt 0.113572 0.694356
vt 0.100822 0.694865
vt 0.100822 0.693400
vt 0.360099 0.674154
vt 0.346754 0.691484
vt 0.346754 0.672493
vt 0.749726 0.219683
vt 0.762473 0.221129
vt 0.749726 0.222087
vt 0.605029 0.118489
vt 0.609445 0.132501
vt 0.053401 0.679142
vt 0.040632 0.667411
vt 0.053401 0.665694
vt 0.259811 0.917518
vt 0.256622 0.920683
vt 0.256622 0.917428
vt 0.037264 0.681311
vt 0.034378 0.668252
vt 0.037264 0.667864
vt 0.170751 0.778435
vt 0.157892 0.794759
vt 0.157745 0.778577
vt 0.449686 0.606466
vt 0.462256 0.618348
vt 0.448830 0.619101
vt 0.927120 0.119714
vt 0.933115 0.111479
vt 0.933115 0.124500
vt 0.927120 0.116459
vt 0.921450 0.110594
vt 0.371514 0.710391
vt 0.360099 0.708970
vt 0.586005 0.136141
vt 0.590442 0.150175
vt 0.581654 0.140976
vt 0.859134 0.472725
vt 0.020848 0.658670
vt 0.021815 0.669815
vt 0.113572 0.695821
vt 0.100822 0.708917
vt 0.438747 0.606466
vt 0.437891 0.619101
vt 0.749727 0.198663
vt 0.762473 0.218725
vt 0.358169 0.600887
vt 0.358169 0.602382
vt 0.926909 0.268317
vt 0.930044 0.265063
vt 0.930044 0.268318
vt 0.831532 0.576340
vt 0.843575 0.564386
vt 0.930046 0.025747
vt 0.933139 0.028862
vt 0.930046 0.028937
vt 0.390027 0.968659
vt 0.391197 0.955608
vt 0.391197 0.968630
vt 0.613818 0.142503
vt 0.609460 0.137238
vt 0.021928 0.968717
vt 0.020848 0.955981
vt 0.021928 0.955954
vt 0.926909 0.265062
vt 0.933822 0.259658
vt 0.371514 0.675575
vt 0.839817 0.558194
vt 0.831532 0.562556
vt 0.836807 0.557737
vt 0.449876 0.602943
vt 0.811433 0.763191
vt 0.800981 0.758386
vt 0.816217 0.748106
vt 0.968397 0.946046
vt 0.968397 0.930528
vt 0.968397 0.935340
vt 0.023150 0.968675
vt 0.023150 0.955913
vt 0.749726 0.224475
vt 0.762475 0.236022
vt 0.749727 0.236981
vt 0.859044 0.459546
vt 0.871102 0.471642
vt 0.034247 0.830977
vt 0.020848 0.838293
vt 0.815154 0.747913
vt 0.800981 0.755972
vt 0.113572 0.675735
vt 0.100822 0.674779
vt 0.384394 0.609020
vt 0.372585 0.599365
vt 0.373908 0.598670
vt 0.033712 0.830787
vt 0.020848 0.834632
vt 0.346754 0.583311
vt 0.346754 0.602306
vt 0.744754 0.877801
vt 0.731399 0.891998
vt 0.731399 0.876224
vt 0.450069 0.599382
vt 0.463303 0.602191
vt 0.976500 0.259654
vt 0.975519 0.272723
vt 0.975519 0.259702
vt 0.346754 0.603801
vt 0.451132 0.579696
vt 0.463495 0.598629
vt 0.936769 0.020848
vt 0.933139 0.025671
vt 0.804646 0.941844
vt 0.807430 0.944956
vt 0.804646 0.945034
vt 0.812116 0.936897
vt 0.812116 0.949659
vt 0.371514 0.599228
vt 0.800981 0.753542
vt 0.814103 0.746850
vt 0.157357 0.794950
vt 0.800981 0.949974
vt 0.358169 0.616717
vt 0.346754 0.618136
vt 0.020848 0.814398
vt 0.669537 0.890995
vt 0.661594 0.895100
vt 0.666349 0.890756
vt 0.807430 0.941765
vt 0.358169 0.569228
vt 0.371514 0.580233
vt 0.358169 0.581892
vt 0.390817 0.588760
vt 0.378636 0.586442
vt 0.392188 0.968720
vt 0.924203 0.116238
vt 0.800981 0.732291
vt 0.936769 0.033610
vt 0.924393 0.033911
vt 0.754505 0.194060
vt 0.762475 0.197705
vt 0.924393 0.021149
vt 0.108769 0.670129
vt 0.105581 0.669890
vt 0.251878 0.912002
vt 0.264635 0.912362
vt 0.058398 0.673540
vt 0.058398 0.670178
vt 0.762473 0.223517
vt 0.674343 0.896055
vt 0.661594 0.907514
vt 0.259811 0.920773
vt 0.264635 0.925383
vt 0.346754 0.696391
vt 0.456686 0.574331
vt 0.464558 0.578943
vt 0.040632 0.680859
vt 0.921281 0.259654
vt 0.165259 0.773137
vt 0.162008 0.773172
vt 0.595432 0.146007
vt 0.605195 0.150799
vt 0.977067 0.259679
vt 0.976500 0.272675
vt 0.360099 0.661493
vt 0.346754 0.659832
vt 0.106173 0.907245
vt 0.093425 0.919187
vt 0.093425 0.906265
vt 0.744147 0.833571
vt 0.731399 0.834527
vt 0.034378 0.681699
vt 0.113572 0.709873
vt 0.100822 0.721331
vt 0.600140 0.146205
vt 0.586003 0.131433
vt 0.581654 0.126160
vt 0.033412 0.693560
vt 0.021815 0.683263
vt 0.170751 0.802167
vt 0.615037 0.228582
vt 0.619897 0.601600
vt 0.451147 0.905571
vt 0.613418 0.355804
vt 0.156238 0.921799
vt 0.530008 0.700499
vt 0.625875 0.495862
vt 0.346754 0.913912
vt 0.156238 0.641505
vt 0.977699 0.206502
vt 0.967475 0.888831
vt 0.674354 0.750044
vt 0.169633 0.872552
vt 0.645660 0.228416
vt 0.253943 0.845538
vt 0.382897 0.516823
vt 0.879584 0.263674
vt 0.095339 0.961863
vt 0.943476 0.557737
vt 0.350686 0.474354
vt 0.783069 0.331416
vt 0.371003 0.461779
vt 0.357477 0.907811
vt 0.450431 0.745739
vt 0.166426 0.915869
vt 0.452171 0.846641
vt 0.531359 0.668942
vt 0.789836 0.599281
vt 0.189245 0.654277
vt 0.601525 0.391636
vt 0.289794 0.639042
vt 0.541400 0.327772
vt 0.759038 0.141065
vt 0.471450 0.392942
vt 0.093425 0.792200
vt 0.210181 0.160833
vt 0.183852 0.506688
vt 0.889399 0.585985
vt 0.104172 0.138045
vt 0.689703 0.660702
vt 0.913888 0.732291
vt 0.038439 0.447183
vt 0.857914 0.741469
vt 0.804171 0.217957
vt 0.050702 0.143768
vt 0.536577 0.020848
vt 0.295438 0.049794
vt 0.020848 0.885908
vt 0.759743 0.051525
vt 0.174478 0.202530
vt 0.364712 0.193820
vt 0.689191 0.146360
vt 0.269855 0.020848
vt 0.910156 0.732411
vt 0.184559 0.731440
vt 0.399894 0.279477
vt 0.376199 0.098351
vt 0.113070 0.447183
vt 0.691506 0.024038
vt 0.456939 0.194610
vt 0.549870 0.617501
vt 0.673738 0.380506
vt 0.534729 0.571112
vt 0.198327 0.454572
vt 0.088867 0.225872
vt 0.955585 0.732291
vt 0.955284 0.675661
vt 0.361797 0.840441
vt 0.037895 0.772701
vt 0.268370 0.358793
vt 0.101204 0.833897
vt 0.527424 0.835560
vt 0.678284 0.557737
vt 0.050380 0.185465
vt 0.959228 0.732525
vt 0.864146 0.123425
vt 0.704415 0.194014
vt 0.824941 0.282217
vt 0.391145 0.058520
vt 0.677628 0.849059
vt 0.800734 0.111324
vt 0.964024 0.826693
vt 0.611029 0.850346
vt 0.671498 0.506025
vt 0.048666 0.572172
vt 0.540620 0.262592
vt 0.280847 0.542478
vt 0.730123 0.364090
vt 0.807073 0.457778
vt 0.595068 0.911528
vt 0.581654 0.056458
vt 0.544740 0.460380
vt 0.866154 0.886055
vt 0.962133 0.457778
vt 0.609972 0.664671
vt 0.742386 0.457778
vt 0.815842 0.834313
vt 0.366981 0.388645
vt 0.349762 0.353183
vt 0.734665 0.558948
vt 0.830881 0.327772
vt 0.812700 0.895201
vt 0.348330 0.955631
vt 0.607323 0.904471
vt 0.265979 0.692565
vt 0.807518 0.659278
vt 0.457623 0.020848
vt 0.358935 0.327772
vt 0.881200 0.409824
vt 0.894899 0.347534
vt 0.974812 0.124991
vt 0.113854 0.628194
vt 0.619194 0.076168
vt 0.452293 0.112393
vt 0.371514 0.694566
vt 0.744147 0.802308
vt 0.826070 0.400703
vt 0.613818 0.127687
vt 0.170751 0.798531
vt 0.033412 0.657106
vt 0.390027 0.955638
vt 0.020848 0.968744
vt 0.871102 0.457778
vt 0.383659 0.611337
vt 0.744754 0.893575
vt 0.033858 0.814494
vt 0.800981 0.937212
vt 0.371514 0.567569
vt 0.392188 0.955699
vt 0.924203 0.119493
vt 0.813293 0.733766
vt 0.757692 0.193820
vt 0.674343 0.908469
vt 0.460042 0.574143
vt 0.921281 0.272675
vt 0.251878 0.925023
vt 0.977067 0.272700
vt 0.106173 0.920167
vt 0.113572 0.722287
vt 0.020848 0.695124
s 0
f 1/1/1 2/2/1 3/3/1
f 4/4/2 5/5/2 6/6/2
f 7/7/2 8/8/2 9/9/2
f 6/10/3 5/11/3 10/12/3
f 8/13/1 11/14/1 9/15/1
f 12/16/2 13/17/2 14/18/2
f 14/19/3 13/20/3 15/21/3
f 6/10/3 45/22/3 46/23/3
f 15/24/4 12/25/4 14/26/4
f 1/27/2 3/28/2 17/29/2
f 44/30/5 41/31/5 40/32/5
f 40/33/6 12/34/6 44/35/6
f 34/36/7 22/37/7 2/38/7
f 24/39/1 25/40/1 23/41/1
f 85/42/3 81/43/3 98/44/3
f 49/45/8 25/46/8 31/47/8
f 36/48/1 22/49/1 35/50/1
f 51/51/7 50/52/7 65/53/7
f 59/54/9 63/55/9 66/56/9
f 44/30/5 42/57/5 43/58/5
f 30/59/10 28/60/10 29/61/10
f 96/62/2 94/63/2 100/64/2
f 24/65/10 6/66/10 46/67/10
f 80/68/1 61/69/1 79/70/1
f 9/71/4 40/72/4 21/73/4
f 48/74/11 31/75/11 39/76/11
f 37/77/12 49/78/12 48/74/12
f 2/38/13 17/79/13 3/80/13
f 20/81/5 105/82/5 104/83/5
f 47/84/3 46/23/3 45/22/3
f 33/85/14 6/66/14 32/86/14
f 22/49/1 7/87/1 17/88/1
f 9/71/15 20/89/15 7/90/15
f 76/91/9 66/56/9 84/92/9
f 16/93/16 11/94/16 54/95/16
f 97/96/17 93/97/17 92/98/17
f 30/99/1 25/40/1 26/100/1
f 90/101/18 99/102/18 91/103/18
f 47/104/19 23/105/19 25/106/19
f 102/107/5 33/108/5 32/109/5
f 70/110/20 50/111/20 58/112/20
f 101/113/21 82/114/21 88/115/21
f 52/116/13 34/36/13 51/51/13
f 38/117/22 31/118/22 30/99/22
f 64/119/23 9/71/23 56/120/23
f 5/121/7 4/122/7 50/123/7
s 1
f 5/124/24 50/125/24 10/126/24
s 0
f 75/127/25 58/128/25 60/129/25
f 12/34/3 33/130/3 44/35/3
f 47/84/3 29/131/3 28/132/3
s 1
f 67/133/26 13/20/3 64/134/26
s 0
f 58/135/13 4/122/13 57/136/13
f 53/137/1 35/50/1 52/138/1
f 66/139/4 70/140/4 75/141/4
f 69/142/3 64/134/3 73/143/3
f 68/144/4 36/145/4 53/146/4
f 82/147/27 61/148/27 69/149/27
f 73/150/23 56/120/23 62/151/23
f 55/152/28 15/153/29 67/154/30
f 54/95/4 27/155/4 36/145/4
f 88/156/23 62/151/23 80/157/23
s 1
f 89/158/31 77/159/31 76/160/31
s 0
f 71/161/2 74/162/2 72/163/2
f 71/161/32 68/164/32 78/165/32
f 70/140/16 12/25/16 16/93/16
f 58/135/13 59/166/13 60/167/13
f 55/168/1 9/15/1 11/14/1
f 74/169/33 68/144/33 53/146/33
f 27/155/4 8/170/4 7/171/4
f 88/172/3 69/142/3 73/143/3
f 96/173/34 86/174/34 95/175/34
f 72/176/35 51/177/35 71/178/35
f 87/179/16 81/180/16 68/144/16
f 81/180/16 54/95/16 68/144/16
f 84/181/4 75/141/4 83/182/4
f 10/183/36 23/41/36 45/184/36
f 39/76/37 37/77/37 48/74/37
f 76/185/7 60/167/7 59/166/7
s 1
f 99/102/38 83/186/38 91/103/38
s 0
f 89/158/39 84/187/39 99/102/39
f 91/188/40 77/189/40 90/190/40
f 74/191/41 52/138/41 72/176/41
f 94/63/42 98/192/42 100/64/42
s 1
f 38/117/43 29/193/43 37/194/43
s 0
f 57/195/9 12/34/9 63/55/9
f 87/196/1 51/197/1 86/174/1
f 100/198/44 87/179/44 96/199/44
f 34/36/7 10/200/7 50/52/7
f 101/201/45 80/157/45 93/202/45
f 26/203/10 46/67/10 28/60/10
f 92/204/46 82/205/46 97/206/46
f 92/204/47 80/68/47 79/70/47
f 95/175/48 85/207/48 94/208/48
f 105/82/5 103/209/5 104/83/5
f 61/210/49 67/154/49 69/211/49
f 86/212/7 65/53/7 85/213/7
f 83/214/50 60/129/50 77/189/50
f 65/215/3 16/216/3 81/43/3
f 1/217/7 32/86/7 6/66/7
f 20/218/1 17/88/1 7/87/1
f 32/109/5 106/219/5 102/107/5
f 18/220/5 40/32/5 41/31/5
f 20/81/5 18/220/5 19/221/5
f 17/88/51 103/222/51 1/223/51
f 105/82/5 18/220/5 106/219/5
f 18/220/5 102/107/5 106/219/5
f 41/31/5 42/57/5 102/107/5
f 61/69/1 56/224/1 55/168/1
f 1/1/1 23/41/1 2/2/1
f 107/225/52 108/226/52 109/227/52
f 110/228/53 111/229/53 112/230/53
f 113/231/53 114/232/53 115/233/53
f 112/234/54 111/235/54 116/236/54
f 114/237/52 117/238/52 115/239/52
f 118/240/53 119/241/53 120/242/53
f 120/243/54 119/244/54 121/245/54
f 112/234/54 151/246/54 152/247/54
f 121/248/55 118/249/55 120/250/55
f 107/251/53 109/252/53 123/253/53
f 150/254/56 147/255/56 146/256/56
f 150/257/57 119/258/57 118/259/57
f 140/260/58 128/261/58 108/262/58
f 130/263/52 131/264/52 129/265/52
f 204/266/54 171/267/54 187/268/54
f 155/269/59 131/270/59 137/271/59
f 142/272/52 128/273/52 141/274/52
f 171/275/58 140/260/58 156/276/58
f 172/277/60 163/278/60 169/279/60
f 149/280/56 139/281/56 148/282/56
f 135/283/61 132/284/61 134/285/61
f 202/286/53 200/287/53 206/288/53
f 152/289/61 107/290/61 112/291/61
f 186/292/52 167/293/52 185/294/52
f 127/295/55 119/258/55 146/296/55
f 154/297/62 137/298/62 145/299/62
f 143/300/63 155/301/63 154/302/63
f 108/262/58 123/303/58 109/304/58
f 126/305/56 211/306/56 210/307/56
f 153/308/54 152/247/54 151/246/54
f 138/309/64 110/310/64 112/311/64
f 133/312/52 123/313/52 128/273/52
f 115/314/65 126/315/65 113/316/65
f 190/317/60 165/318/60 172/277/60
f 122/319/55 117/320/55 160/321/55
f 203/322/66 199/323/66 198/324/66
f 136/325/52 131/264/52 132/326/52
f 197/327/67 195/328/67 205/329/67
f 153/330/68 129/331/68 131/332/68
f 208/333/56 139/281/56 138/334/56
f 164/335/69 122/336/69 156/337/69
f 207/338/70 188/339/70 194/340/70
f 157/341/58 141/342/58 140/260/58
f 145/343/71 136/325/71 144/344/71
f 170/345/72 115/346/72 162/347/72
f 111/348/58 110/349/58 156/350/58
s 1
f 111/235/73 156/351/74 116/236/2
s 0
f 181/352/75 164/335/75 166/353/75
f 118/354/54 139/355/54 150/356/54
f 153/308/54 135/357/54 134/358/54
s 1
f 173/359/76 119/244/54 170/360/76
s 0
f 164/361/58 110/349/58 163/362/58
f 159/363/52 141/274/52 158/364/52
f 172/365/55 176/366/55 181/367/55
f 175/368/54 170/360/54 179/369/54
f 174/370/55 142/371/55 159/372/55
f 188/373/77 167/374/77 175/375/77
f 179/376/72 162/347/72 168/377/72
f 161/378/78 121/379/79 173/380/80
f 160/321/55 133/381/55 142/371/55
f 194/382/72 168/377/72 186/383/72
s 1
f 195/384/81 183/385/81 182/386/81
s 0
f 177/387/53 180/388/53 178/389/53
f 184/390/82 157/391/82 174/392/82
f 176/366/55 118/249/55 122/319/55
f 164/361/58 165/393/58 166/394/58
f 161/395/52 115/239/52 117/238/52
f 184/396/83 159/397/83 180/388/83
f 117/320/55 113/398/55 133/381/55
f 194/399/54 175/368/54 179/369/54
f 202/286/84 192/400/84 201/401/84
f 177/402/85 158/403/85 157/341/85
f 204/404/55 174/370/55 193/405/55
f 187/406/55 160/321/55 174/370/55
f 190/407/55 181/367/55 189/408/55
f 116/409/86 129/331/86 151/410/86
f 154/297/87 144/411/87 143/412/87
f 182/386/58 166/394/58 165/393/58
s 1
f 205/329/88 189/413/88 197/327/88
s 0
f 205/414/89 182/415/89 190/317/89
f 197/327/90 183/416/90 196/417/90
f 180/418/91 158/364/91 178/419/91
f 206/288/92 191/420/92 204/421/92
s 1
f 143/422/93 136/423/93 135/283/93
s 0
f 169/279/60 110/310/60 118/354/60
f 193/424/52 157/425/52 192/426/52
f 206/288/94 193/427/94 202/286/94
f 156/276/58 108/262/58 116/428/58
f 207/429/95 186/383/95 199/430/95
f 134/285/61 130/431/61 152/289/61
f 203/322/96 185/432/96 188/339/96
f 199/433/97 185/294/97 198/434/97
f 200/435/98 192/436/98 191/437/98
f 211/306/56 209/438/56 210/307/56
f 175/439/99 161/378/99 173/380/99
f 191/437/58 157/341/58 171/275/58
f 189/440/100 166/441/100 183/442/100
f 187/268/54 156/443/54 122/444/54
f 112/291/58 209/445/58 138/446/58
f 113/316/52 210/447/52 123/313/52
f 138/334/56 212/448/56 208/333/56
f 127/449/56 147/255/56 124/450/56
f 127/449/56 125/451/56 126/305/56
f 123/452/101 209/445/101 107/290/101
f 125/451/56 212/448/56 211/306/56
f 124/450/56 208/333/56 212/448/56
f 147/255/56 148/282/56 208/333/56
f 167/293/52 162/453/52 161/395/52
f 107/225/52 129/265/52 108/226/52
f 213/454/102 214/455/102 215/456/102
f 216/457/103 217/458/103 218/459/103
f 219/460/103 220/461/103 221/462/103
f 218/463/104 217/464/104 222/465/104
f 220/466/102 223/467/102 221/468/102
f 224/469/103 225/470/103 226/471/103
f 226/472/104 225/473/104 227/474/104
f 218/463/104 257/475/104 258/476/104
f 227/477/105 224/478/105 226/479/105
f 213/480/103 215/481/103 229/482/103
f 252/483/106 255/484/106 253/485/106
f 256/486/107 225/487/107 224/488/107
f 246/489/108 234/490/108 214/491/108
f 236/492/102 237/493/102 235/494/102
f 310/495/104 277/496/104 293/497/104
f 243/498/109 259/499/109 237/493/109
f 248/500/102 234/501/102 247/502/102
f 263/503/108 262/504/108 277/505/108
f 278/506/110 269/507/110 275/508/110
f 256/509/106 254/510/106 255/484/106
f 242/511/111 240/512/111 241/513/111
f 312/514/103 307/515/103 306/516/103
f 236/517/111 218/463/111 258/476/111
f 292/518/102 273/519/102 291/520/102
f 221/521/105 252/522/105 233/523/105
f 251/524/112 261/525/112 243/526/112
f 260/527/113 241/513/113 261/528/113
f 214/491/108 229/529/108 215/530/108
f 231/531/106 316/532/106 232/533/106
f 259/534/104 258/476/104 257/475/104
f 244/535/114 216/536/114 218/537/114
f 239/538/102 229/539/102 234/501/102
f 221/540/115 232/541/115 219/542/115
f 296/543/110 271/544/110 278/506/110
f 266/545/105 227/477/105 223/546/105
f 304/547/116 313/548/116 305/549/116
f 242/550/102 237/493/102 238/551/102
f 303/552/117 301/553/117 311/554/117
f 237/555/118 257/556/118 235/557/118
f 254/510/106 244/558/106 314/559/106
f 270/560/119 228/561/119 262/562/119
f 313/548/120 294/563/120 300/564/120
f 264/565/108 246/489/108 263/503/108
f 250/566/121 243/567/121 242/568/121
f 268/569/122 225/487/122 221/521/122
f 217/570/108 216/571/108 262/572/108
s 1
f 217/573/123 262/574/124 222/575/125
s 0
f 287/576/126 270/560/126 272/577/126
f 224/578/104 245/579/104 256/580/104
f 259/534/104 241/513/104 240/512/104
s 1
f 279/581/127 225/473/104 276/582/127
s 0
f 270/583/108 216/571/108 269/584/108
f 265/585/102 247/502/102 264/586/102
f 278/506/105 282/587/105 287/588/105
f 281/589/104 276/582/104 285/590/104
f 265/591/105 266/545/105 248/592/105
f 291/593/128 281/594/128 294/595/128
f 274/596/122 276/597/122 268/569/122
f 279/598/129 223/599/130 227/600/131
f 248/592/105 223/546/105 239/601/105
f 292/602/122 285/603/122 274/596/122
s 1
f 302/604/132 288/605/132 301/606/132
s 0
f 284/607/103 290/608/103 286/609/103
f 290/608/133 263/610/133 280/611/133
f 282/587/105 224/478/105 228/612/105
f 270/583/108 271/613/108 272/614/108
f 267/615/102 221/468/102 223/467/102
f 286/609/134 280/611/134 265/616/134
f 239/601/105 220/617/105 219/618/105
f 300/619/104 281/589/104 285/590/104
f 308/620/135 298/621/135 307/515/135
f 284/622/136 263/503/136 283/623/136
f 299/624/105 293/625/105 280/626/105
f 280/626/105 228/612/105 266/545/105
f 296/543/105 287/588/105 295/627/105
f 257/556/137 214/628/137 235/557/137
f 251/524/138 249/629/138 260/630/138
f 288/631/108 272/614/108 271/613/108
s 1
f 311/554/139 295/632/139 303/552/139
s 0
f 311/633/140 288/605/140 296/634/140
f 303/552/141 289/635/141 302/636/141
f 286/637/142 264/565/142 284/622/142
f 312/514/143 297/638/143 310/639/143
s 1
f 250/566/144 241/640/144 249/641/144
s 0
f 275/508/145 216/642/145 224/478/145
f 299/643/102 263/644/102 298/645/102
f 308/620/146 310/639/146 299/646/146
f 246/489/108 222/647/108 262/504/108
f 305/549/147 300/564/147 292/648/147
f 238/649/111 258/476/111 240/512/111
f 304/547/148 294/563/148 309/650/148
f 305/651/149 291/520/149 304/652/149
f 307/653/150 297/654/150 306/655/150
f 317/656/106 315/657/106 316/532/106
f 281/658/151 267/659/151 279/598/151
f 298/660/108 277/505/108 297/654/108
f 295/661/152 272/662/152 289/663/152
f 293/497/104 262/664/104 228/665/104
f 213/666/108 244/667/108 218/668/108
f 219/542/102 316/669/102 229/539/102
f 314/559/106 315/657/106 318/670/106
f 230/671/106 252/483/106 253/485/106
f 233/672/106 231/531/106 232/533/106
f 229/673/153 315/674/153 213/666/153
f 317/656/106 230/671/106 318/670/106
f 318/670/106 253/485/106 314/559/106
f 314/559/106 255/484/106 254/510/106
f 273/519/102 268/675/102 267/615/102
f 213/454/102 235/494/102 214/455/102
f 319/676/154 320/677/154 321/678/154
f 322/679/155 323/680/155 324/681/155
f 325/682/155 326/683/155 327/684/155
f 324/685/156 323/686/156 328/687/156
f 326/688/154 329/689/154 327/690/154
f 330/691/155 331/692/155 332/693/155
f 332/694/156 331/695/156 333/696/156
f 324/685/156 363/697/156 364/698/156
f 333/699/157 330/700/157 332/701/157
f 319/702/155 321/703/155 335/704/155
f 358/705/158 361/706/158 359/707/158
f 362/708/159 331/709/159 330/710/159
f 352/711/160 340/712/160 320/713/160
f 342/714/154 343/715/154 341/716/154
f 403/717/156 399/718/156 416/719/156
f 349/720/161 365/721/161 343/722/161
f 353/723/154 345/724/154 340/725/154
f 369/726/160 368/727/160 383/728/160
f 377/729/162 381/730/162 384/731/162
f 361/706/158 351/732/158 360/733/158
f 348/734/163 346/735/163 347/736/163
f 414/737/155 412/738/155 418/739/155
f 342/740/163 324/741/163 364/742/163
f 398/743/154 379/744/154 397/745/154
f 327/746/157 358/747/157 339/748/157
f 357/749/164 367/750/164 349/720/164
f 355/751/165 367/752/165 366/753/165
f 320/713/160 335/754/160 321/755/160
f 338/756/158 423/757/158 422/758/158
f 365/759/156 364/698/156 363/697/156
f 351/760/166 324/741/166 350/761/166
f 340/725/154 325/762/154 335/763/154
f 325/764/167 339/748/167 338/765/167
f 394/766/162 384/731/162 402/767/162
f 372/768/157 333/699/157 329/769/157
f 415/770/168 411/771/168 410/772/168
f 348/773/154 343/715/154 344/774/154
f 409/775/169 407/776/169 417/777/169
f 343/722/170 363/778/170 341/779/170
f 360/733/158 350/780/158 420/781/158
f 376/782/171 334/783/171 368/784/171
f 419/785/172 400/786/172 406/787/172
f 370/788/160 352/711/160 369/726/160
f 356/789/173 349/790/173 348/773/173
f 374/791/174 331/792/174 327/746/174
f 323/793/160 322/794/160 368/795/160
s 1
f 323/686/175 368/796/176 328/687/177
s 0
f 378/797/178 388/798/178 376/799/178
f 362/708/156 322/800/156 351/801/156
f 365/759/156 347/802/156 346/803/156
s 1
f 385/804/179 331/695/156 382/805/179
s 0
f 368/795/160 375/806/160 376/807/160
f 370/808/154 354/809/154 353/723/154
f 384/810/157 388/811/157 393/812/157
f 387/813/156 382/805/156 391/814/156
f 371/815/157 372/768/157 354/816/157
f 397/817/180 387/818/180 400/819/180
f 380/820/174 382/821/174 374/791/174
f 385/822/181 329/769/182 333/699/183
f 354/816/157 329/769/157 345/823/157
f 398/824/174 391/825/174 380/820/174
s 1
f 407/776/184 395/826/184 394/827/184
s 0
f 389/828/155 392/829/155 390/830/155
f 389/828/185 386/831/185 396/832/185
f 334/833/157 381/834/157 330/700/157
f 376/807/160 377/835/160 378/836/160
f 373/837/154 327/690/154 329/689/154
f 392/838/186 386/839/186 371/815/186
f 345/823/157 326/840/157 325/841/157
f 406/842/156 387/813/156 391/814/156
f 413/843/187 405/844/187 404/845/187
f 390/830/188 369/846/188 389/828/188
f 405/847/157 399/848/157 386/839/157
f 386/839/157 334/833/157 372/768/157
f 402/849/157 393/812/157 401/850/157
f 363/851/189 320/852/189 341/853/189
f 357/854/190 355/751/190 366/753/190
f 394/855/160 378/836/160 377/835/160
s 1
f 417/856/191 401/850/191 409/857/191
s 0
f 407/776/192 402/858/192 417/777/192
f 408/859/193 401/860/193 395/861/193
f 390/862/194 371/863/194 370/808/194
f 412/738/195 416/864/195 418/739/195
s 1
f 356/789/196 347/865/196 355/866/196
s 0
f 375/867/162 330/710/162 381/730/162
f 404/845/154 386/868/154 369/869/154
f 414/870/197 416/871/197 405/847/197
f 352/711/160 328/872/160 368/727/160
f 411/771/198 406/873/198 398/824/198
f 344/874/163 364/742/163 346/735/163
f 410/875/199 400/786/199 415/876/199
f 411/771/200 397/877/200 410/772/200
f 413/878/201 403/879/201 412/738/201
f 423/757/158 421/880/158 422/758/158
f 379/881/202 385/882/202 387/883/202
f 404/884/160 383/728/160 403/885/160
f 395/861/203 393/886/203 378/797/203
f 383/887/156 334/888/156 399/718/156
f 319/889/160 350/761/160 324/741/160
f 338/890/154 335/763/154 325/762/154
f 350/780/158 424/891/158 420/781/158
f 339/892/158 359/707/158 336/893/158
f 339/892/158 337/894/158 338/756/158
f 335/763/204 421/895/204 319/896/204
f 337/894/158 424/891/158 423/757/158
f 336/893/158 420/781/158 424/891/158
f 359/707/158 360/733/158 420/781/158
f 379/744/154 374/897/154 373/837/154
f 319/676/154 341/716/154 320/677/154
f 425/898/205 426/899/205 427/900/205
f 428/901/206 429/902/206 430/903/206
f 431/904/206 432/905/206 433/906/206
f 430/907/207 429/908/207 434/909/207
f 432/910/205 435/911/205 433/912/205
f 436/913/206 437/914/206 438/915/206
f 438/916/207 437/917/207 439/918/207
f 430/907/207 469/919/207 470/920/207
f 439/921/208 436/922/208 438/923/208
f 425/924/206 427/925/206 441/926/206
f 464/927/209 467/928/209 465/929/209
f 468/930/210 437/931/210 436/932/210
f 458/933/211 446/934/211 426/935/211
f 448/936/205 449/937/205 447/938/205
f 522/939/207 489/940/207 505/941/207
f 455/942/212 471/943/212 449/944/212
f 460/945/205 446/946/205 459/947/205
f 475/948/211 474/949/211 489/950/211
f 490/951/213 481/952/213 487/953/213
f 468/954/209 466/955/209 467/928/209
f 454/956/214 452/957/214 453/958/214
f 524/959/206 519/960/206 518/961/206
f 448/962/214 430/963/214 470/964/214
f 504/965/205 485/966/205 503/967/205
f 433/968/208 464/969/208 445/970/208
f 463/971/215 473/972/215 455/973/215
f 472/974/216 453/975/216 473/972/216
f 426/935/211 441/976/211 427/977/211
f 443/978/209 528/979/209 444/980/209
f 471/981/207 470/920/207 469/919/207
f 457/982/217 430/963/217 456/983/217
f 451/984/205 441/985/205 446/946/205
f 431/986/218 445/970/218 444/987/218
f 508/988/213 483/989/213 490/951/213
f 478/990/208 439/921/208 435/991/208
f 516/992/219 525/993/219 517/994/219
f 450/995/205 455/996/205 449/937/205
f 514/997/220 523/998/220 515/999/220
f 449/1000/221 469/1001/221 447/1002/221
f 466/955/209 456/1003/209 526/1004/209
f 494/1005/222 474/1006/222 482/1007/222
f 521/1008/223 512/1009/223 525/993/223
f 476/1010/211 458/933/211 475/948/211
f 463/1011/224 454/1012/224 462/1013/224
f 480/1014/225 437/931/225 433/968/225
f 429/1015/211 428/1016/211 474/1017/211
s 1
f 429/1018/226 474/1019/227 434/1020/228
s 0
f 499/1021/229 482/1007/229 484/1022/229
f 436/1023/207 457/1024/207 468/1025/207
f 473/1026/207 452/1027/207 471/981/207
s 1
f 491/1028/230 437/917/207 488/1029/230
s 0
f 482/1030/211 428/1016/211 481/1031/211
f 477/1032/205 459/947/205 476/1033/205
f 490/1034/208 494/1035/208 499/1036/208
f 493/1037/207 488/1029/207 497/1038/207
f 477/1039/208 478/990/208 460/1040/208
f 503/1041/231 493/1042/231 506/1043/231
f 486/1044/225 488/1045/225 480/1014/225
f 491/1046/232 435/1047/233 439/1048/234
f 460/1040/208 435/991/208 451/1049/208
f 504/1050/225 497/1051/225 486/1044/225
s 1
f 514/997/235 500/1052/236 513/1053/235
s 0
f 496/1054/206 502/1055/206 498/1056/206
f 502/1055/237 475/1057/237 492/1058/237
f 494/1035/208 436/922/208 440/1059/208
f 482/1030/211 483/1060/211 484/1061/211
f 479/1062/205 433/912/205 435/911/205
f 498/1056/238 492/1058/238 477/1063/238
f 451/1049/208 432/1064/208 431/1065/208
f 512/1066/207 493/1037/207 497/1038/207
f 520/1067/239 510/1068/239 519/1069/239
f 496/1054/240 475/1057/240 495/1070/240
f 511/1071/208 505/1072/208 492/1073/208
f 492/1073/208 440/1059/208 478/990/208
f 508/1074/208 499/1036/208 507/1075/208
f 469/1001/241 426/1076/241 447/1002/241
f 463/971/242 461/1077/242 472/974/242
f 500/1078/211 484/1061/211 483/1060/211
s 1
f 515/999/243 508/1079/243 507/1080/243
s 0
f 523/1081/244 500/1082/244 508/988/244
f 515/999/245 501/1083/245 514/997/245
f 498/1084/246 476/1033/246 496/1085/246
f 524/959/247 509/1086/247 522/1087/247
s 1
f 462/1088/248 453/958/248 461/1089/248
s 0
f 487/953/213 428/1090/213 436/1023/213
f 511/1091/205 475/1092/205 510/1068/205
f 520/1093/249 522/1087/249 511/1094/249
f 458/933/211 434/1095/211 474/949/211
f 517/1096/250 512/1097/250 504/1050/250
f 450/1098/214 470/964/214 452/957/214
f 516/992/251 506/1099/251 521/1008/251
f 517/1100/252 503/967/252 516/1101/252
f 519/960/253 509/1086/253 518/961/253
f 529/1102/209 527/1103/209 528/979/209
f 493/1104/254 479/1105/254 491/1046/254
f 510/1106/211 489/950/211 509/1107/211
f 507/1108/255 484/1109/255 501/1110/255
f 505/941/207 474/1111/207 440/1112/207
f 425/1113/211 456/983/211 430/963/211
f 431/1114/205 528/1115/205 441/985/205
f 526/1004/209 527/1103/209 530/1116/209
f 442/1117/209 464/927/209 465/929/209
f 445/1118/209 443/978/209 444/980/209
f 441/1119/256 527/1120/256 425/1113/256
f 529/1102/209 442/1117/209 530/1116/209
f 530/1116/209 465/929/209 526/1004/209
f 526/1004/209 467/928/209 466/955/209
f 485/966/205 480/1121/205 479/1062/205
f 425/898/205 447/938/205 426/899/205
f 6/10/3 10/12/3 45/22/3
f 15/24/4 16/93/4 12/25/4
f 44/30/5 43/58/5 41/31/5
f 40/33/6 13/1122/6 12/34/6
f 34/36/13 35/1123/13 22/37/13
f 24/39/1 26/100/1 25/40/1
f 85/42/3 65/215/3 81/43/3
f 49/45/8 47/1124/8 25/46/8
f 36/48/1 27/1125/1 22/49/1
f 51/51/7 34/36/7 50/52/7
f 59/54/9 57/195/9 63/55/9
f 44/30/5 33/108/5 42/57/5
f 30/59/10 26/203/10 28/60/10
f 96/62/2 95/1126/2 94/63/2
f 24/65/10 1/217/10 6/66/10
f 80/68/1 62/1127/1 61/69/1
f 9/71/4 13/1128/4 40/72/4
f 48/74/11 49/78/11 31/75/11
f 37/77/12 29/1129/12 49/78/12
f 2/38/7 22/37/7 17/79/7
f 20/81/5 19/221/5 105/82/5
f 47/84/3 28/132/3 46/23/3
f 33/85/14 4/1130/14 6/66/14
f 22/49/1 27/1125/1 7/87/1
f 9/71/15 21/73/15 20/89/15
f 76/91/9 59/54/9 66/56/9
f 16/93/16 15/24/16 11/94/16
f 97/96/17 101/113/17 93/97/17
f 30/99/1 31/118/1 25/40/1
f 90/101/18 89/158/18 99/102/18
f 47/104/19 45/1131/19 23/105/19
f 102/107/5 42/57/5 33/108/5
f 70/110/20 16/1132/20 50/111/20
f 101/113/21 97/96/21 82/114/21
f 52/116/7 35/1123/7 34/36/7
f 38/117/22 39/1133/22 31/118/22
f 64/119/23 13/1128/23 9/71/23
f 75/127/25 70/1134/25 58/128/25
f 12/34/3 4/1135/3 33/130/3
f 47/84/3 49/1136/3 29/131/3
s 1
f 67/133/26 15/21/3 13/20/3
s 0
f 58/135/7 50/123/7 4/122/7
f 53/137/1 36/48/1 35/50/1
f 66/139/4 63/1137/4 70/140/4
f 69/142/3 67/133/3 64/134/3
f 68/144/4 54/95/4 36/145/4
f 82/147/27 79/1138/27 61/148/27
f 73/150/23 64/119/23 56/120/23
f 55/152/257 11/1139/29 15/153/258
f 54/95/4 11/94/4 27/155/4
f 88/156/23 73/150/23 62/151/23
s 1
f 89/158/31 90/101/31 77/159/31
s 0
f 71/161/2 78/165/2 74/162/2
f 71/161/32 51/1140/32 68/164/32
f 70/140/4 63/1137/4 12/25/4
f 58/135/7 57/136/7 59/166/7
f 55/168/1 56/224/1 9/15/1
f 74/169/33 78/1141/33 68/144/33
f 27/155/4 11/94/4 8/170/4
f 88/172/3 82/1142/3 69/142/3
f 96/173/34 87/196/34 86/174/34
f 72/176/35 52/138/35 51/177/35
f 87/179/4 98/1143/4 81/180/4
f 81/180/16 16/93/16 54/95/16
f 84/181/4 66/139/4 75/141/4
f 10/183/36 2/2/36 23/41/36
f 39/76/37 38/1144/37 37/77/37
f 76/185/7 77/1145/7 60/167/7
s 1
f 99/102/38 84/187/38 83/186/38
s 0
f 89/158/39 76/160/39 84/187/39
f 91/188/40 83/214/40 77/189/40
f 74/191/41 53/137/41 52/138/41
f 94/63/42 85/1146/42 98/192/42
s 1
f 38/117/43 30/99/43 29/193/43
s 0
f 57/195/9 4/1135/9 12/34/9
f 87/196/1 68/1147/1 51/197/1
f 100/198/44 98/1143/44 87/179/44
f 34/36/7 2/38/7 10/200/7
f 101/201/259 88/156/259 80/157/259
f 26/203/10 24/65/10 46/67/10
f 92/204/46 79/70/46 82/205/46
f 92/204/47 93/1148/47 80/68/47
f 95/175/48 86/174/48 85/207/48
f 105/82/5 106/219/5 103/209/5
f 61/210/260 55/152/260 67/154/260
f 86/212/7 51/51/7 65/53/7
f 83/214/50 75/127/50 60/129/50
f 65/215/3 50/1149/3 16/216/3
f 1/217/7 103/1150/7 32/86/7
f 20/218/1 104/1151/1 17/88/1
f 32/109/5 103/209/5 106/219/5
f 18/220/5 21/1152/5 40/32/5
f 20/81/5 21/1152/5 18/220/5
f 17/88/51 104/1151/51 103/222/51
f 105/82/5 19/221/5 18/220/5
f 18/220/5 41/31/5 102/107/5
f 41/31/5 43/58/5 42/57/5
f 61/69/1 62/1127/1 56/224/1
f 1/1/1 24/39/1 23/41/1
f 112/234/54 116/236/54 151/246/54
f 121/248/55 122/319/55 118/249/55
f 150/254/56 149/280/56 147/255/56
f 150/257/57 146/296/57 119/258/57
f 140/260/58 141/342/58 128/261/58
f 130/263/52 132/326/52 131/264/52
f 204/266/54 191/1153/54 171/267/54
f 155/269/59 153/1154/59 131/270/59
f 142/272/52 133/312/52 128/273/52
f 171/275/58 157/341/58 140/260/58
f 172/277/60 165/318/60 163/278/60
f 149/280/56 150/254/56 139/281/56
f 135/283/61 136/423/61 132/284/61
f 202/286/53 201/401/53 200/287/53
f 152/289/61 130/431/61 107/290/61
f 186/292/52 168/1155/52 167/293/52
f 127/295/55 115/346/55 119/258/55
f 154/297/62 155/1156/62 137/298/62
f 143/300/63 135/357/63 155/301/63
f 108/262/58 128/261/58 123/303/58
f 126/305/56 125/451/56 211/306/56
f 153/308/54 134/358/54 152/247/54
f 138/309/64 139/355/64 110/310/64
f 133/312/52 113/316/52 123/313/52
f 115/314/65 127/1157/65 126/315/65
f 190/317/60 182/415/60 165/318/60
f 122/319/55 121/248/55 117/320/55
f 203/322/66 207/338/66 199/323/66
f 136/325/52 137/1158/52 131/264/52
f 197/327/67 196/417/67 195/328/67
f 153/330/68 151/410/68 129/331/68
f 208/333/56 148/282/56 139/281/56
f 164/335/69 176/1159/69 122/336/69
f 207/338/70 203/322/70 188/339/70
f 157/341/58 158/403/58 141/342/58
f 145/343/71 137/1158/71 136/325/71
f 170/345/72 119/258/72 115/346/72
f 181/352/75 176/1159/75 164/335/75
f 118/354/54 110/310/54 139/355/54
f 153/308/54 155/301/54 135/357/54
s 1
f 173/359/76 121/245/54 119/244/54
s 0
f 164/361/58 156/350/58 110/349/58
f 159/363/52 142/272/52 141/274/52
f 172/365/55 169/1160/55 176/366/55
f 175/368/54 173/359/54 170/360/54
f 174/370/55 160/321/55 142/371/55
f 188/373/77 185/1161/77 167/374/77
f 179/376/72 170/345/72 162/347/72
f 161/378/261 117/1162/79 121/379/262
f 160/321/55 117/320/55 133/381/55
f 194/382/72 179/376/72 168/377/72
s 1
f 195/384/81 196/1163/81 183/385/81
s 0
f 177/387/53 184/396/53 180/388/53
f 184/390/82 177/1164/82 157/391/82
f 176/366/55 169/1160/55 118/249/55
f 164/361/58 163/362/58 165/393/58
f 161/395/52 162/453/52 115/239/52
f 184/396/83 174/1165/83 159/397/83
f 117/320/55 114/1166/55 113/398/55
f 194/399/54 188/1167/54 175/368/54
f 202/286/84 193/427/84 192/400/84
f 177/402/85 178/1168/85 158/403/85
f 204/404/55 187/406/55 174/370/55
f 187/406/55 122/319/55 160/321/55
f 190/407/55 172/365/55 181/367/55
f 116/409/86 108/1169/86 129/331/86
f 154/297/87 145/299/87 144/411/87
f 182/386/58 183/385/58 166/394/58
s 1
f 205/329/88 190/1170/88 189/413/88
s 0
f 205/414/89 195/1171/89 182/415/89
f 197/327/90 189/413/90 183/416/90
f 180/418/91 159/363/91 158/364/91
f 206/288/92 200/287/92 191/420/92
s 1
f 143/422/93 144/1172/93 136/423/93
s 0
f 169/279/60 163/278/60 110/310/60
f 193/424/52 174/1173/52 157/425/52
f 206/288/94 204/421/94 193/427/94
f 156/276/58 140/260/58 108/262/58
f 207/429/95 194/382/95 186/383/95
f 134/285/61 132/284/61 130/431/61
f 203/322/96 198/324/96 185/432/96
f 199/433/97 186/292/97 185/294/97
f 200/435/98 201/1174/98 192/436/98
f 211/306/56 212/448/56 209/438/56
f 175/439/99 167/1175/99 161/378/99
f 191/437/58 192/436/58 157/341/58
f 189/440/100 181/1176/100 166/441/100
f 187/268/54 171/267/54 156/443/54
f 112/291/58 107/290/58 209/445/58
f 113/316/52 126/315/52 210/447/52
f 138/334/56 209/438/56 212/448/56
f 127/449/56 146/256/56 147/255/56
f 127/449/56 124/450/56 125/451/56
f 123/452/101 210/1177/101 209/445/101
f 125/451/56 124/450/56 212/448/56
f 124/450/56 147/255/56 208/333/56
f 147/255/56 149/280/56 148/282/56
f 167/293/52 168/1155/52 162/453/52
f 107/225/52 130/263/52 129/265/52
f 218/463/104 222/465/104 257/475/104
f 227/477/105 228/612/105 224/478/105
f 252/483/106 256/509/106 255/484/106
f 256/486/107 252/522/107 225/487/107
f 246/489/108 247/1178/108 234/490/108
f 236/492/102 238/551/102 237/493/102
f 310/495/104 297/1179/104 277/496/104
f 243/498/109 261/1180/109 259/499/109
f 248/500/102 239/538/102 234/501/102
f 263/503/108 246/489/108 262/504/108
f 278/506/110 271/544/110 269/507/110
f 256/509/106 245/1181/106 254/510/106
f 242/511/111 238/649/111 240/512/111
f 312/514/103 308/620/103 307/515/103
f 236/517/111 213/1182/111 218/463/111
f 292/518/102 274/1183/102 273/519/102
f 221/521/105 225/487/105 252/522/105
f 251/524/112 260/630/112 261/525/112
f 260/527/113 249/1184/113 241/513/113
f 214/491/108 234/490/108 229/529/108
f 231/531/106 317/656/106 316/532/106
f 259/534/104 240/512/104 258/476/104
f 244/535/114 245/579/114 216/536/114
f 239/538/102 219/542/102 229/539/102
f 221/540/115 233/1185/115 232/541/115
f 296/543/110 288/1186/110 271/544/110
f 266/545/105 228/612/105 227/477/105
f 304/547/116 309/650/116 313/548/116
f 242/550/102 243/498/102 237/493/102
f 303/552/117 302/636/117 301/553/117
f 237/555/118 259/1187/118 257/556/118
f 254/510/106 245/1181/106 244/558/106
f 270/560/119 282/1188/119 228/561/119
f 313/548/120 309/650/120 294/563/120
f 264/565/108 247/1178/108 246/489/108
f 250/566/121 251/1189/121 243/567/121
f 268/569/122 276/597/122 225/487/122
f 287/576/126 282/1188/126 270/560/126
f 224/578/104 216/536/104 245/579/104
f 259/534/104 261/528/104 241/513/104
s 1
f 279/581/127 227/474/104 225/473/104
s 0
f 270/583/108 262/572/108 216/571/108
f 265/585/102 248/500/102 247/502/102
f 278/506/105 275/508/105 282/587/105
f 281/589/104 279/581/104 276/582/104
f 265/591/105 280/626/105 266/545/105
f 291/593/128 273/1190/128 281/594/128
f 274/596/122 285/603/122 276/597/122
f 279/598/263 267/659/264 223/599/131
f 248/592/105 266/545/105 223/546/105
f 292/602/122 300/1191/122 285/603/122
s 1
f 302/604/132 289/1192/132 288/605/132
s 0
f 284/607/103 283/1193/103 290/608/103
f 290/608/133 283/1193/133 263/610/133
f 282/587/105 275/508/105 224/478/105
f 270/583/108 269/584/108 271/613/108
f 267/615/102 268/675/102 221/468/102
f 286/609/134 290/608/134 280/611/134
f 239/601/105 223/546/105 220/617/105
f 300/619/104 294/1194/104 281/589/104
f 308/620/135 299/646/135 298/621/135
f 284/622/136 264/565/136 263/503/136
f 299/624/105 310/1195/105 293/625/105
f 280/626/105 293/625/105 228/612/105
f 296/543/105 278/506/105 287/588/105
f 257/556/137 222/1196/137 214/628/137
f 251/524/138 250/1197/138 249/629/138
f 288/631/108 289/1198/108 272/614/108
s 1
f 311/554/139 296/1199/139 295/632/139
s 0
f 311/633/140 301/606/140 288/605/140
f 303/552/141 295/632/141 289/635/141
f 286/637/265 265/1200/265 264/565/265
f 312/514/143 306/516/143 297/638/143
s 1
f 250/566/144 242/568/144 241/640/144
s 0
f 275/508/110 269/507/110 216/642/110
f 299/643/102 280/1201/102 263/644/102
f 308/620/146 312/514/146 310/639/146
f 246/489/108 214/491/108 222/647/108
f 305/549/147 313/548/147 300/564/147
f 238/649/111 236/517/111 258/476/111
f 304/547/148 291/1202/148 294/563/148
f 305/651/149 292/518/149 291/520/149
f 307/653/150 298/660/150 297/654/150
f 317/656/106 318/670/106 315/657/106
f 281/658/266 273/1203/266 267/659/266
f 298/660/108 263/503/108 277/505/108
f 295/661/152 287/1204/152 272/662/152
f 293/497/104 277/496/104 262/664/104
f 213/666/108 315/674/108 244/667/108
f 219/542/102 232/541/102 316/669/102
f 314/559/106 244/558/106 315/657/106
f 230/671/106 233/672/106 252/483/106
f 233/672/106 230/671/106 231/531/106
f 229/673/153 316/1205/153 315/674/153
f 317/656/106 231/531/106 230/671/106
f 318/670/106 230/671/106 253/485/106
f 314/559/106 253/485/106 255/484/106
f 273/519/102 274/1183/102 268/675/102
f 213/454/102 236/492/102 235/494/102
f 324/685/156 328/687/156 363/697/156
f 333/699/157 334/833/157 330/700/157
f 358/705/158 362/1206/158 361/706/158
f 362/708/159 358/1207/159 331/709/159
f 352/711/160 353/1208/160 340/712/160
f 342/714/154 344/774/154 343/715/154
f 403/717/156 383/887/156 399/718/156
f 349/720/161 367/750/161 365/721/161
f 353/723/154 354/809/154 345/724/154
f 369/726/160 352/711/160 368/727/160
f 377/729/162 375/867/162 381/730/162
f 361/706/158 362/1206/158 351/732/158
f 348/734/163 344/874/163 346/735/163
f 414/737/155 413/878/155 412/738/155
f 342/740/163 319/889/163 324/741/163
f 398/743/154 380/1209/154 379/744/154
f 327/746/157 331/792/157 358/747/157
f 357/749/164 366/1210/164 367/750/164
f 355/751/165 347/1211/165 367/752/165
f 320/713/160 340/712/160 335/754/160
f 338/756/158 337/894/158 423/757/158
f 365/759/156 346/803/156 364/698/156
f 351/760/166 322/1212/166 324/741/166
f 340/725/154 345/724/154 325/762/154
f 325/764/167 327/746/167 339/748/167
f 394/766/162 377/729/162 384/731/162
f 372/768/157 334/833/157 333/699/157
f 415/770/267 419/1213/267 411/771/267
f 348/773/154 349/790/154 343/715/154
f 409/775/169 408/1214/169 407/776/169
f 343/722/170 365/721/170 363/778/170
f 360/733/158 351/732/158 350/780/158
f 376/782/171 388/1215/171 334/783/171
f 419/785/172 415/876/172 400/786/172
f 370/788/160 353/1208/160 352/711/160
f 356/789/173 357/1216/173 349/790/173
f 374/791/174 382/821/174 331/792/174
f 378/797/178 393/886/178 388/798/178
f 362/708/156 330/710/156 322/800/156
f 365/759/156 367/1217/156 347/802/156
s 1
f 385/804/179 333/696/156 331/695/156
s 0
f 368/795/160 322/794/160 375/806/160
f 370/808/154 371/863/154 354/809/154
f 384/810/157 381/834/157 388/811/157
f 387/813/156 385/804/156 382/805/156
f 371/815/157 386/839/157 372/768/157
f 397/817/180 379/1218/180 387/818/180
f 380/820/174 391/825/174 382/821/174
f 385/822/268 373/1219/269 329/769/183
f 354/816/157 372/768/157 329/769/157
f 398/824/174 406/873/174 391/825/174
s 1
f 407/776/184 408/1214/184 395/826/184
s 0
f 389/828/155 396/832/155 392/829/155
f 389/828/185 369/846/185 386/831/185
f 334/833/157 388/811/157 381/834/157
f 376/807/160 375/806/160 377/835/160
f 373/837/154 374/897/154 327/690/154
f 392/838/186 396/1220/186 386/839/186
f 345/823/157 329/769/157 326/840/157
f 406/842/156 400/1221/156 387/813/156
f 413/843/187 414/1222/187 405/844/187
f 390/830/188 370/1223/188 369/846/188
f 405/847/157 416/871/157 399/848/157
f 386/839/157 399/848/157 334/833/157
f 402/849/157 384/810/157 393/812/157
f 363/851/189 328/1224/189 320/852/189
f 357/854/190 356/1225/190 355/751/190
f 394/855/160 395/1226/160 378/836/160
s 1
f 417/856/191 402/849/191 401/850/191
s 0
f 407/776/270 394/827/270 402/858/270
f 408/859/193 409/1227/193 401/860/193
f 390/862/194 392/1228/194 371/863/194
f 412/738/195 403/879/195 416/864/195
s 1
f 356/789/196 348/773/196 347/865/196
s 0
f 375/867/162 322/800/162 330/710/162
f 404/845/154 405/844/154 386/868/154
f 414/870/197 418/1229/197 416/871/197
f 352/711/160 320/713/160 328/872/160
f 411/771/198 419/1213/198 406/873/198
f 344/874/163 342/740/163 364/742/163
f 410/875/199 397/1230/199 400/786/199
f 411/771/200 398/824/200 397/877/200
f 413/878/201 404/1231/201 403/879/201
f 423/757/158 424/891/158 421/880/158
f 379/881/202 373/1232/202 385/882/202
f 404/884/160 369/726/160 383/728/160
f 395/861/203 401/860/203 393/886/203
f 383/887/156 368/1233/156 334/888/156
f 319/889/160 421/1234/160 350/761/160
f 338/890/154 422/1235/154 335/763/154
f 350/780/158 421/880/158 424/891/158
f 339/892/158 358/705/158 359/707/158
f 339/892/158 336/893/158 337/894/158
f 335/763/204 422/1235/204 421/895/204
f 337/894/158 336/893/158 424/891/158
f 336/893/158 359/707/158 420/781/158
f 359/707/158 361/706/158 360/733/158
f 379/744/154 380/1209/154 374/897/154
f 319/676/154 342/714/154 341/716/154
f 430/907/207 434/909/207 469/919/207
f 439/921/208 440/1059/208 436/922/208
f 464/927/209 468/954/209 467/928/209
f 468/930/210 464/969/210 437/931/210
f 458/933/211 459/1236/211 446/934/211
f 448/936/205 450/995/205 449/937/205
f 522/939/207 509/1237/207 489/940/207
f 455/942/212 473/1238/212 471/943/212
f 460/945/205 451/984/205 446/946/205
f 475/948/211 458/933/211 474/949/211
f 490/951/213 483/989/213 481/952/213
f 468/954/209 457/1239/209 466/955/209
f 454/956/214 450/1098/214 452/957/214
f 524/959/206 520/1093/206 519/960/206
f 448/962/214 425/1113/214 430/963/214
f 504/965/205 486/1240/205 485/966/205
f 433/968/208 437/931/208 464/969/208
f 463/971/215 472/974/215 473/972/215
f 472/974/216 461/1077/216 453/975/216
f 426/935/211 446/934/211 441/976/211
f 443/978/209 529/1102/209 528/979/209
f 471/981/207 452/1027/207 470/920/207
f 457/982/217 428/1241/217 430/963/217
f 451/984/205 431/1114/205 441/985/205
f 431/986/218 433/968/218 445/970/218
f 508/988/213 500/1082/213 483/989/213
f 478/990/208 440/1059/208 439/921/208
f 516/992/219 521/1008/219 525/993/219
f 450/995/205 454/1012/205 455/996/205
f 514/997/220 513/1053/220 523/998/220
f 449/1000/221 471/1242/221 469/1001/221
f 466/955/209 457/1239/209 456/1003/209
f 494/1005/222 440/1243/222 474/1006/222
f 521/1008/223 506/1099/223 512/1009/223
f 476/1010/211 459/1236/211 458/933/211
f 463/1011/224 455/996/224 454/1012/224
f 480/1014/225 488/1045/225 437/931/225
f 499/1021/229 494/1005/229 482/1007/229
f 436/1023/207 428/1090/207 457/1024/207
f 473/1026/207 453/1244/207 452/1027/207
s 1
f 491/1028/230 439/918/207 437/917/207
s 0
f 482/1030/211 474/1017/211 428/1016/211
f 477/1032/205 460/945/205 459/947/205
f 490/1034/208 487/1245/208 494/1035/208
f 493/1037/207 491/1028/207 488/1029/207
f 477/1039/208 492/1073/208 478/990/208
f 503/1041/231 485/1246/231 493/1042/231
f 486/1044/225 497/1051/225 488/1045/225
f 491/1046/271 479/1105/272 435/1047/234
f 460/1040/208 478/990/208 435/991/208
f 504/1050/225 512/1097/225 497/1051/225
s 1
f 514/997/235 501/1083/236 500/1052/236
s 0
f 496/1054/206 495/1070/206 502/1055/206
f 502/1055/237 495/1070/237 475/1057/237
f 494/1035/208 487/1245/208 436/922/208
f 482/1030/211 481/1031/211 483/1060/211
f 479/1062/205 480/1121/205 433/912/205
f 498/1056/238 502/1055/238 492/1058/238
f 451/1049/208 435/991/208 432/1064/208
f 512/1066/207 506/1247/207 493/1037/207
f 520/1067/239 511/1091/239 510/1068/239
f 496/1054/240 476/1248/240 475/1057/240
f 511/1071/208 522/1249/208 505/1072/208
f 492/1073/208 505/1072/208 440/1059/208
f 508/1074/208 490/1034/208 499/1036/208
f 469/1001/241 434/1250/241 426/1076/241
f 463/971/242 462/1251/242 461/1077/242
f 500/1078/211 501/1252/211 484/1061/211
s 1
f 515/999/243 523/998/243 508/1079/243
s 0
f 523/1081/244 513/1253/244 500/1082/244
f 515/999/245 507/1080/245 501/1083/245
f 498/1084/246 477/1032/246 476/1033/246
f 524/959/247 518/961/247 509/1086/247
s 1
f 462/1088/248 454/956/248 453/958/248
s 0
f 487/953/213 481/952/213 428/1090/213
f 511/1091/205 492/1254/205 475/1092/205
f 520/1093/249 524/959/249 522/1087/249
f 458/933/211 426/935/211 434/1095/211
f 517/1096/250 525/1255/250 512/1097/250
f 450/1098/214 448/962/214 470/964/214
f 516/992/251 503/1256/251 506/1099/251
f 517/1100/252 504/965/252 503/967/252
f 519/960/253 510/1257/253 509/1086/253
f 529/1102/209 530/1116/209 527/1103/209
f 493/1104/254 485/1258/254 479/1105/254
f 510/1106/211 475/948/211 489/950/211
f 507/1108/255 499/1259/255 484/1109/255
f 505/941/207 489/940/207 474/1111/207
f 425/1113/211 527/1120/211 456/983/211
f 431/1114/205 444/1260/205 528/1115/205
f 526/1004/209 456/1003/209 527/1103/209
f 442/1117/209 445/1118/209 464/927/209
f 445/1118/209 442/1117/209 443/978/209
f 441/1119/256 528/1261/256 527/1120/256
f 529/1102/209 443/978/209 442/1117/209
f 530/1116/209 442/1117/209 465/929/209
f 526/1004/209 465/929/209 467/928/209
f 485/966/205 486/1240/205 480/1121/205
f 425/898/205 448/936/205 447/938/205
