# Blender 5.0.1
# www.blender.org
o RockCenter.004
v 0.329693 0.048099 -0.753539
v -0.407525 0.048098 -1.000000
v -0.125929 0.048099 -1.398785
v 0.148619 0.764974 -0.529361
v -0.389097 0.764974 -0.709132
v 0.148619 0.764974 -1.470639
v 0.000000 1.125498 -1.000000
v -0.297465 0.542696 -1.359368
v -0.424099 0.542695 -1.180035
v -0.389097 0.764974 -1.069197
v -0.240833 0.902351 -1.180034
v -0.184201 0.764974 -1.359369
v 0.322481 0.041416 -0.999907
v 0.248243 0.523311 -1.396165
v -0.106296 0.037674 -0.663386
v -0.025565 0.048099 -0.634769
v -0.093140 0.290510 -0.529361
v -0.193503 0.290509 -0.562915
v -0.187959 0.048098 -0.689059
v -0.070981 -0.006706 -0.775222
v -0.229703 -0.006708 -1.000000
v -0.070981 -0.006706 -1.224778
v 0.161157 -0.029571 -1.120472
v 0.185834 -0.006706 -0.861081
v 0.446995 0.549314 -1.107533
v 0.358090 0.764974 -1.173994
v 0.303147 0.898259 -1.000000
v 0.358090 0.764974 -0.826006
v 0.446995 0.549314 -0.892467
vn -0.2125 0.7422 0.6356
vn -0.7541 0.3843 -0.5325
vn -0.2394 -0.0056 -0.9709
vn -0.2125 0.7422 -0.6356
vn -0.7948 -0.2309 -0.5612
vn -0.9970 -0.0055 0.0767
vn -0.6797 0.7335 -0.0000
vn 0.2484 -0.1903 -0.9498
vn -0.2835 -0.4478 0.8480
vn -0.3130 0.1595 0.9363
vn -0.8374 -0.1869 0.5137
vn 0.3727 -0.1899 0.9083
vn -0.0303 -0.9954 0.0906
vn 0.0314 -0.9643 0.2628
vn -0.2884 -0.9356 -0.2036
vn 0.0475 -0.9483 -0.3137
vn 0.3459 -0.9381 0.0153
vn -0.2884 -0.9356 0.2036
vn 0.9245 0.3811 -0.0000
vn 0.9721 -0.2336 -0.0221
vn 0.7714 -0.0041 0.6363
vn 0.5523 0.7368 -0.3900
vn 0.5523 0.7368 0.3900
vn 0.8067 0.1570 -0.5697
vn -0.7542 0.3843 -0.5325
vn 0.7968 -0.3058 -0.5211
vn -0.3130 0.1595 -0.9363
vn -0.9878 0.1555 -0.0000
vn 0.5617 -0.4384 -0.7017
vn -0.3136 -0.1465 0.9382
vn -0.7783 -0.3038 0.5496
vn 0.3016 -0.3082 0.9022
vn -0.0000 -1.0000 -0.0000
vn -0.0745 -0.9958 -0.0526
vn 0.1344 -0.9058 0.4019
vn 0.1104 -0.9375 0.3301
vn 0.3732 -0.9266 0.0462
vn -0.2134 -0.9293 0.3014
vn 0.9712 -0.2381 -0.0000
vn 0.8067 0.1570 0.5697
vn 0.6547 -0.4174 -0.6302
vt 0.000000 0.314921
vt 0.181819 0.314921
vt 0.090910 0.472382
vt 0.692633 0.254922
vt 0.761913 0.254922
vt 0.796555 0.314921
vt 0.545455 0.314921
vt 0.642232 0.133421
vt 0.738820 0.374921
vt 0.636364 0.472382
vt 0.818182 0.133421
vt 0.909091 0.314921
vt 0.818182 0.472382
vt 0.507794 0.249690
vt 0.141225 0.133421
vt 0.528487 0.186850
vt 0.952185 0.133421
vt 0.073942 0.186850
vt 0.107878 0.186851
vt 0.279668 0.133421
vt 0.865673 0.075203
vt 0.436818 0.065218
vt 0.272728 0.075204
vt 0.116798 0.112621
vt 0.770691 0.075203
vt 0.683855 0.075204
vt 0.588873 0.075204
vt 0.320219 0.075204
vt 0.373985 0.130506
vt 0.952509 0.075204
vt 0.430855 0.314921
vt 0.296419 0.314921
vt 0.330028 0.256708
vt 0.374840 0.373134
vt 0.454546 0.472382
vt 0.272728 0.472382
vt 0.397246 0.256708
vt 0.657992 0.314921
vt 0.436796 0.065231
vt 0.974112 0.112621
vt 0.107878 0.186851
vt 0.138401 0.075204
s 0
f 5/1/1 4/2/1 7/3/1
f 8/4/2 9/5/2 10/6/2
f 8/4/3 6/7/3 3/8/3
f 6/7/4 11/9/4 7/10/4
f 2/11/5 8/4/5 3/8/5
f 5/12/6 9/5/6 2/11/6
f 11/9/7 5/12/7 7/13/7
f 14/14/8 3/8/8 6/7/8
f 16/15/9 18/16/9 19/17/9
f 18/18/10 4/2/10 5/1/10
f 2/11/11 18/16/11 5/12/11
f 17/19/12 1/20/12 4/2/12
f 21/21/13 23/22/13 24/23/13
f 24/23/14 16/15/14 15/24/14
f 21/25/15 3/8/15 22/26/15
f 23/22/16 22/27/16 3/8/16
f 24/28/17 13/29/17 1/20/17
f 20/30/18 19/17/18 2/11/18
f 26/31/19 28/32/19 29/33/19
f 13/29/20 29/33/20 1/20/20
f 29/33/21 4/2/21 1/20/21
f 27/34/22 6/7/22 7/35/22
f 4/2/23 27/34/23 7/36/23
f 14/14/24 26/31/24 25/37/24
f 25/37/19 26/31/19 29/33/19
f 12/38/25 10/6/25 11/9/25
f 13/29/26 14/14/26 25/37/26
f 8/4/27 12/38/27 6/7/27
f 6/7/4 12/38/4 11/9/4
f 2/11/5 9/5/5 8/4/5
f 5/12/28 10/6/28 9/5/28
f 11/9/7 10/6/7 5/12/7
f 14/14/29 23/39/29 3/8/29
f 19/17/30 15/40/30 16/15/30
f 16/15/9 17/41/9 18/16/9
f 18/18/10 17/19/10 4/2/10
f 2/11/31 19/17/31 18/16/31
f 17/19/32 16/15/32 1/20/32
f 24/23/33 20/42/33 21/21/33
f 21/21/34 22/26/34 23/22/34
f 15/24/35 20/42/35 24/23/35
f 24/23/36 1/20/36 16/15/36
f 21/25/15 2/11/15 3/8/15
f 24/28/37 23/39/37 13/29/37
f 2/11/18 21/21/18 20/30/18
f 20/30/38 15/40/38 19/17/38
f 26/31/19 27/34/19 28/32/19
f 13/29/39 25/37/39 29/33/39
f 29/33/40 28/32/40 4/2/40
f 27/34/22 26/31/22 6/7/22
f 4/2/23 28/32/23 27/34/23
f 14/14/24 6/7/24 26/31/24
f 12/38/25 8/4/25 10/6/25
f 13/29/41 23/39/41 14/14/41
